<?xml version="1.0" standalone="no"?>
<!DOCTYPE svg PUBLIC "-//W3C//DTD SVG 20010904//EN"
 "http://www.w3.org/TR/2001/REC-SVG-20010904/DTD/svg10.dtd">
<svg version="1.0" xmlns="http://www.w3.org/2000/svg"
 width="800.000000pt" height="800.000000pt" viewBox="0 0 800.000000 800.000000"
 preserveAspectRatio="xMidYMid meet">
<metadata>
Created by potrace 1.14, written by Peter Selinger 2001-2017
</metadata>
<g transform="translate(0.000000,800.000000) scale(0.100000,-0.100000)"
fill="#000000" stroke="none">
<path d="M2140 7972 c-19 -16 -51 -37 -70 -48 -19 -10 -37 -20 -40 -22 -2 -2
2 -7 10 -12 11 -7 3 -10 -28 -10 -36 0 -44 4 -52 24 -5 13 -6 34 -3 46 4 15 2
21 -5 16 -6 -3 -14 -21 -17 -39 -4 -17 -14 -39 -21 -48 -9 -10 -13 -32 -11
-57 2 -22 0 -39 -4 -36 -4 2 -13 -11 -20 -30 -7 -19 -16 -33 -20 -30 -4 2 -10
-4 -13 -13 -3 -10 -19 -24 -35 -31 -40 -18 -118 -119 -176 -228 -26 -49 -51
-91 -56 -92 -5 -2 -7 -7 -4 -12 4 -7 -32 -102 -55 -143 -7 -11 -7 -24 -2 -33
7 -12 12 -5 21 31 13 54 17 54 24 5 3 -19 8 -51 11 -70 4 -19 4 -29 0 -22 -11
23 -21 12 -16 -20 3 -20 0 -35 -9 -42 -8 -6 -25 -35 -38 -64 -16 -33 -42 -67
-70 -90 -25 -20 -58 -47 -72 -60 -40 -35 -119 -78 -223 -122 -27 -11 -47 -23
-43 -26 3 -3 34 6 68 20 35 14 65 24 66 22 6 -5 -147 -100 -184 -115 -18 -7
-30 -17 -27 -23 3 -5 44 12 90 37 47 25 90 43 96 39 6 -4 8 -3 5 3 -7 11 20
39 29 30 3 -2 15 5 28 17 58 56 156 131 156 121 0 -11 -96 -131 -189 -237 -18
-21 -29 -38 -23 -38 5 0 27 21 48 48 53 65 87 98 97 94 5 -1 6 2 3 6 -3 5 3
17 13 26 14 13 21 14 27 5 5 -8 3 -10 -6 -4 -10 6 -12 4 -7 -9 4 -9 3 -15 -2
-11 -5 3 -21 -27 -36 -65 -15 -39 -35 -75 -45 -80 -18 -10 -26 -26 -34 -67 -2
-10 -14 -42 -25 -71 -12 -29 -21 -55 -21 -57 0 -7 34 8 48 22 19 18 29 16 35
-7 5 -20 27 -29 27 -11 0 13 79 53 91 46 5 -3 6 1 3 9 -8 22 13 20 25 -1 6
-11 11 -13 11 -5 0 8 5 10 12 6 8 -5 9 -2 5 9 -3 10 -2 17 3 17 5 0 7 7 4 15
-4 8 -2 15 3 15 5 0 10 -18 12 -41 1 -30 -1 -39 -10 -33 -9 5 -10 2 -6 -10 8
-20 -19 -122 -34 -132 -6 -3 -31 -10 -57 -14 l-47 -9 58 2 c31 1 57 -2 57 -6
0 -4 -7 -22 -16 -39 -9 -16 -11 -27 -5 -24 15 9 15 -69 0 -96 -8 -15 -8 -19 0
-14 12 8 16 -47 14 -169 -1 -56 0 -63 6 -32 11 53 25 60 18 9 -3 -24 -1 -40 4
-36 5 3 10 -12 11 -33 1 -21 2 -45 3 -53 1 -18 24 -59 25 -45 0 6 5 3 10 -5 9
-13 10 -13 11 0 0 10 3 8 9 -5 8 -18 9 -18 10 5 l2 25 8 -25 c12 -36 12 -62 0
-55 -6 4 -7 11 -4 17 4 7 2 8 -4 4 -12 -7 -5 -36 9 -36 20 0 7 -38 -21 -65
-16 -16 -28 -31 -25 -33 2 -2 15 9 29 24 l26 29 -6 -45 c-4 -25 -11 -65 -16
-90 -5 -25 -9 -53 -9 -62 0 -28 -26 -21 -38 10 -10 26 -10 26 -7 -8 2 -19 11
-55 19 -79 9 -25 13 -49 10 -54 -3 -6 -1 -7 5 -3 7 4 12 2 12 -3 0 -6 -4 -11
-8 -11 -5 0 -17 -7 -28 -16 -10 -8 -14 -13 -7 -9 21 10 60 -6 71 -30 9 -20 9
-23 -4 -18 -12 4 -14 -1 -9 -25 6 -39 -25 -63 -52 -40 -15 12 -15 11 -2 -9 8
-13 17 -23 21 -23 5 0 8 -6 8 -14 0 -20 -71 -47 -88 -34 -7 6 -15 8 -19 4 -3
-3 0 -6 7 -6 7 0 11 -3 7 -6 -12 -12 17 -33 31 -22 17 15 15 0 -3 -18 -8 -9
-15 -11 -15 -5 0 6 -7 11 -16 11 -14 0 -14 -1 0 -16 18 -17 22 -39 6 -29 -6 4
-7 -1 -3 -11 5 -15 7 -15 15 0 5 9 14 16 19 16 6 0 7 -5 4 -11 -4 -5 1 -18 12
-27 21 -19 28 -42 13 -42 -5 0 -10 -7 -10 -15 0 -17 25 -20 35 -5 3 6 15 10
26 10 11 0 17 -4 14 -10 -3 -5 1 -10 9 -10 8 0 18 -5 22 -12 5 -7 3 -8 -6 -3
-10 6 -12 4 -7 -9 4 -11 -6 -30 -31 -59 -38 -44 -27 -37 46 27 28 24 50 35 60
31 8 -3 19 0 23 6 4 7 7 -5 7 -26 0 -21 6 -42 14 -46 11 -7 10 -11 -2 -19 -13
-8 -13 -11 -1 -22 10 -10 12 -10 7 0 -4 6 -2 12 3 12 6 0 11 -7 11 -16 0 -29
50 -119 90 -163 48 -51 66 -50 21 2 -17 19 -31 43 -31 53 0 14 -3 15 -8 6 -6
-9 -14 0 -27 28 -16 36 -17 43 -4 51 12 7 11 9 -3 9 -20 0 -26 16 -32 88 -4
43 -2 56 14 72 34 34 84 23 74 -16 -4 -15 -2 -24 5 -24 6 0 11 -8 11 -19 0
-10 7 -24 15 -31 16 -13 21 -35 6 -25 -5 3 -12 1 -16 -5 -3 -5 1 -10 9 -10 10
0 13 -6 9 -17 -4 -11 -3 -14 5 -9 7 4 14 -4 18 -21 3 -15 22 -72 41 -126 20
-54 33 -101 29 -104 -3 -3 2 -12 12 -19 15 -12 15 -15 2 -24 -13 -9 -13 -10 0
-10 8 0 28 -27 44 -60 15 -33 47 -79 71 -103 39 -40 42 -49 44 -98 0 -30 5
-55 10 -57 5 -2 7 -13 5 -25 -2 -12 -2 -17 2 -10 7 16 34 5 34 -16 0 -9 5 -23
11 -31 8 -11 9 -8 5 15 l-6 30 20 -24 c19 -23 32 -28 81 -33 17 -2 23 -34 8
-43 -15 -10 -10 -25 6 -19 10 4 15 0 15 -15 0 -12 -4 -21 -9 -21 -11 0 -24
-67 -16 -81 5 -6 12 -6 23 3 13 11 15 10 10 -10 -4 -12 -2 -22 3 -22 5 0 9 -8
10 -17 0 -11 3 -13 6 -5 11 27 23 -2 23 -54 0 -31 4 -54 11 -54 6 0 8 -9 4
-20 -3 -11 -2 -20 4 -20 5 0 11 -6 14 -12 2 -7 3 -5 2 4 -2 10 1 21 6 24 5 3
9 13 8 22 0 14 -2 13 -9 -3 -8 -19 -9 -19 -9 3 -1 33 23 23 27 -11 2 -15 8
-27 13 -27 12 0 11 17 -2 42 -6 11 -7 23 -3 27 13 9 14 45 2 52 -7 4 -7 9 1
13 6 4 15 -3 20 -17 6 -14 15 -27 21 -29 7 -2 9 -14 5 -31 -4 -15 -10 -25 -14
-22 -5 2 -8 -25 -8 -61 0 -37 4 -59 9 -52 4 7 8 22 8 33 1 19 1 19 14 3 17
-23 26 -23 26 1 0 37 16 30 17 -7 1 -20 -4 -40 -10 -44 -9 -6 -9 -8 1 -8 6 0
12 -5 12 -10 0 -7 -6 -7 -20 0 -23 12 -26 5 -6 -15 11 -11 18 -11 41 1 40 20
48 18 40 -13 -6 -24 -5 -25 11 -12 16 12 17 12 11 -3 -4 -11 -2 -17 5 -15 7 1
14 -6 16 -15 3 -14 -3 -18 -25 -18 -24 -1 -26 -2 -10 -11 13 -7 22 -7 31 0 16
13 42 -11 31 -29 -3 -5 0 -10 7 -10 21 0 75 -91 83 -140 20 -125 84 -329 135
-430 74 -146 169 -261 285 -345 68 -48 257 -145 450 -230 72 -31 182 -79 245
-107 63 -28 189 -89 279 -135 141 -73 168 -84 184 -73 11 6 16 7 13 2 -3 -6 5
-9 19 -8 14 0 25 2 25 3 0 0 -15 10 -32 22 -21 13 -27 21 -16 21 9 0 27 -12
40 -27 19 -23 30 -28 63 -26 44 2 167 -36 159 -49 -3 -4 2 -8 10 -8 9 0 16 -5
16 -10 0 -12 -49 -3 -64 11 -13 12 -59 11 -51 0 10 -17 -11 -20 -39 -6 -14 8
-34 11 -43 8 -11 -4 -14 -3 -9 5 8 13 -16 26 -35 20 -14 -5 57 -51 77 -51 8 0
14 -3 14 -7 0 -11 51 -31 62 -24 6 4 8 2 5 -3 -9 -15 24 -26 37 -13 8 8 7 14
-4 20 -13 8 -13 10 2 10 9 0 25 3 35 6 16 5 16 4 -1 -10 -17 -14 -17 -16 -4
-16 9 0 20 5 23 10 4 6 11 7 17 4 11 -7 -28 -43 -47 -44 -5 0 -3 5 5 11 10 7
11 9 2 7 -8 -2 -14 -7 -15 -11 -2 -9 166 -87 187 -87 7 0 41 18 75 41 44 29
68 39 84 35 19 -4 31 5 67 52 25 31 62 75 82 97 21 23 56 82 79 131 30 63 44
83 47 69 7 -31 68 128 106 278 45 177 72 344 67 415 -2 20 -32 14 -38 -8 -6
-23 -23 -27 -23 -6 0 8 -5 27 -11 43 -13 30 -14 83 -4 180 6 57 11 67 73 145
180 223 323 494 392 742 15 56 31 120 35 143 4 24 11 45 16 49 5 3 9 13 9 22
0 9 10 28 21 42 11 14 17 18 13 10 -5 -12 -4 -12 5 -4 10 9 10 17 1 34 -10 18
-9 21 1 15 9 -6 11 -3 6 8 -3 10 -3 17 2 17 13 0 30 47 25 71 -4 22 -4 23 6 4
9 -18 10 -17 6 8 -2 15 1 30 5 33 9 5 13 -14 10 -51 -2 -17 0 -17 8 -5 6 8 11
47 11 85 l0 70 38 24 c20 12 52 42 70 65 37 50 43 73 13 54 -11 -7 -18 -16
-15 -20 3 -4 -3 -5 -12 -1 -16 6 -15 8 4 16 26 12 29 35 5 33 -12 -1 -17 5
-15 18 2 11 -1 15 -8 11 -7 -4 -9 -18 -6 -31 5 -17 2 -24 -8 -24 -8 0 -17 -7
-20 -16 -9 -24 -7 -28 8 -15 10 9 16 8 26 -4 11 -13 9 -15 -13 -15 -14 0 -28
-6 -31 -12 -5 -10 -7 -10 -12 0 -3 6 -12 12 -19 12 -7 0 -16 8 -20 18 -5 14
-4 15 6 5 23 -23 34 -14 34 27 0 37 0 38 -12 17 -12 -21 -13 -20 -7 8 4 17 11
41 16 54 5 15 5 28 -2 35 -5 5 -9 21 -9 36 1 20 2 21 6 5 9 -36 23 -41 23 -7
l0 32 37 -20 c21 -11 43 -20 50 -20 7 0 15 -16 19 -35 7 -39 19 -46 27 -15 3
11 1 20 -4 20 -5 0 -9 5 -9 11 0 6 6 9 13 6 10 -4 25 27 52 101 21 59 42 112
45 117 4 6 15 35 25 65 10 30 21 60 25 65 4 6 11 25 15 43 3 17 10 32 14 32 3
0 15 28 24 63 20 67 46 128 61 139 12 8 13 70 1 118 -5 24 -4 32 3 25 5 -5 12
-19 15 -30 4 -19 5 -18 6 2 0 12 -6 28 -14 36 -8 8 -11 17 -8 21 9 8 33 -14
33 -30 0 -7 5 -16 12 -20 7 -5 8 -3 3 6 -5 8 -1 18 10 27 14 9 15 13 4 13 -8
0 -25 10 -39 21 -14 11 -19 18 -12 14 8 -4 2 11 -13 33 -20 30 -24 45 -17 59
5 10 7 25 5 33 -2 8 6 -3 18 -25 12 -22 22 -48 23 -58 1 -9 5 -17 9 -17 4 1
17 -9 28 -22 20 -22 20 -22 0 12 -44 73 -72 144 -67 166 3 12 -1 41 -10 65
-16 47 -11 105 7 78 10 -13 5 12 -8 49 -3 6 0 12 6 12 6 0 11 5 11 11 0 5 -5
7 -11 4 -7 -5 -9 32 -8 119 2 69 6 121 10 114 4 -7 9 -4 12 8 3 12 5 7 6 -13
0 -17 4 -34 9 -37 4 -2 6 14 4 36 -3 22 1 45 7 51 8 8 11 6 11 -8 0 -10 2 -16
5 -13 10 9 -18 107 -28 101 -7 -4 -8 1 -3 12 3 10 0 39 -8 64 -9 25 -14 55
-11 66 2 11 4 22 4 24 1 2 9 -3 18 -10 17 -13 17 -13 0 13 -9 15 -17 38 -17
50 0 17 2 20 9 9 5 -8 7 -21 4 -30 -2 -9 3 -5 12 9 12 20 15 21 11 5 -8 -30 7
-88 24 -93 12 -4 13 -2 4 9 -7 8 -15 30 -18 49 -6 28 -5 32 4 20 10 -13 11
-12 6 3 -3 10 -6 23 -6 28 0 5 -7 9 -15 9 -16 0 -17 1 -19 42 -1 20 1 24 10
17 8 -7 14 -6 17 3 4 9 6 8 6 -3 1 -9 8 -22 16 -29 18 -15 20 1 3 19 -11 10
-9 11 7 6 11 -3 4 3 -15 13 -19 11 -36 28 -37 39 -2 10 -6 33 -9 51 -8 42 7
41 30 -3 11 -19 21 -34 22 -32 2 2 -3 26 -10 54 -8 29 -12 54 -9 57 3 2 -5 9
-16 15 -11 7 -28 25 -37 42 -8 17 -11 28 -4 24 6 -4 15 -17 20 -29 4 -13 15
-23 24 -23 11 0 13 4 6 12 -5 7 -6 16 -2 20 4 5 2 5 -4 2 -6 -4 -16 5 -23 19
-6 14 -14 23 -19 21 -4 -3 -8 50 -9 117 -1 67 -7 151 -14 186 -6 36 -13 72
-14 80 -1 8 -7 26 -12 40 -5 14 -18 48 -28 77 -25 70 -102 181 -153 219 -22
18 -38 35 -34 40 4 4 2 4 -4 1 -6 -4 -33 13 -60 38 -26 25 -41 45 -33 45 9 1
4 9 -13 24 -23 20 -25 26 -13 36 8 6 19 9 25 5 13 -8 13 1 0 26 -6 10 -8 19
-6 19 3 0 38 -25 77 -55 101 -78 106 -68 7 12 -97 79 -187 135 -201 126 -5 -3
-19 5 -29 18 -11 13 -16 17 -12 9 4 -8 3 -12 -1 -7 -5 4 -10 24 -12 45 l-3 37
20 -25 21 -25 -12 26 c-8 19 -19 27 -36 27 -14 0 -20 -3 -15 -7 7 -4 7 -12 3
-20 -7 -10 -10 -9 -16 8 l-6 21 -1806 0 c-1422 0 -1809 -3 -1822 -13 -12 -9
-13 -9 -7 1 12 21 -8 13 -44 -16z m25 -31 c-3 -6 -11 -11 -16 -11 -5 0 -4 6 3
14 14 16 24 13 13 -3z m-49 -26 c-11 -8 -22 -12 -25 -9 -6 6 19 24 34 24 6 -1
1 -7 -9 -15z m3838 -79 c13 -12 30 -22 37 -24 8 -1 6 4 -5 13 -26 20 -15 28
12 9 31 -22 27 -29 -17 -31 -35 -2 -40 0 -46 24 -3 15 -9 23 -13 17 -11 -14
-32 -15 -26 -1 7 20 31 17 58 -7z m-3910 -4 c2 -4 1 -14 -4 -22 -7 -11 -11
-11 -24 -1 -9 7 -13 17 -10 22 7 11 31 12 38 1z m-34 -43 c0 -5 -4 -9 -8 -9
-5 0 -9 7 -9 15 0 8 4 12 9 9 4 -3 8 -9 8 -15z m3967 -21 c2 -16 0 -16 -23 -2
-29 20 -29 19 -1 19 15 0 24 -6 24 -17z m38 2 c-3 -5 -10 -10 -16 -10 -5 0 -9
5 -9 10 0 6 7 10 16 10 8 0 12 -4 9 -10z m-3758 -42 c-3 -8 -6 -5 -6 6 -1 11
2 17 5 13 3 -3 4 -12 1 -19z m-131 -25 c-10 -10 -19 5 -10 18 6 11 8 11 12 0
2 -7 1 -15 -2 -18z m-232 -37 c-10 -8 -21 -12 -23 -10 -3 2 4 11 15 18 10 8
21 12 23 10 3 -2 -4 -11 -15 -18z m-64 4 c0 -15 -33 -50 -48 -50 -7 0 -11 -4
-8 -8 3 -5 -1 -9 -9 -9 -20 0 -20 1 16 42 31 35 49 44 49 25z m4141 -41 l24
-20 -30 17 c-39 24 -40 24 -28 24 6 0 21 -9 34 -21z m17 -49 c23 -16 45 -30
48 -30 9 0 80 -63 76 -68 -4 -4 45 -43 55 -43 4 0 16 -8 26 -17 23 -21 42 -53
28 -50 -5 2 -9 0 -10 -4 -1 -5 2 -8 6 -7 13 1 22 -35 22 -90 l1 -54 -24 22
c-29 27 -56 81 -61 119 -1 15 -8 26 -14 25 -6 -2 -11 6 -11 18 0 12 -8 23 -18
26 -10 2 -26 17 -37 33 -11 16 -30 33 -42 39 -13 6 -22 15 -21 21 2 5 -17 27
-42 49 -53 47 -41 54 18 11z m72 -1 c17 -13 18 -17 5 -10 -33 17 -51 31 -40
31 6 0 21 -10 35 -21z m-4148 -29 c-2 -18 -13 -35 -26 -42 -11 -6 -24 -16 -28
-22 -4 -6 -6 1 -4 16 2 22 46 78 60 78 1 0 1 -14 -2 -30z m-182 0 c-6 -11 -13
-20 -16 -20 -2 0 0 9 6 20 6 11 13 20 16 20 2 0 0 -9 -6 -20z m4271 -17 c13
-16 12 -17 -3 -4 -10 7 -18 15 -18 17 0 8 8 3 21 -13z m-4068 -8 c-3 -9 -8
-14 -10 -11 -3 3 -2 9 2 15 9 16 15 13 8 -4z m-243 -14 c-5 -11 -15 -23 -22
-27 -7 -5 -8 -2 -3 7 21 37 44 55 25 20z m220 -16 c0 -2 -10 -9 -22 -15 -22
-11 -22 -10 -4 4 21 17 26 19 26 11z m4160 -57 c0 -6 -6 -5 -15 2 -8 7 -15 14
-15 16 0 2 7 1 15 -2 8 -4 15 -11 15 -16z m39 -40 c38 -62 44 -72 35 -63 -23
23 -64 85 -57 85 5 0 14 -10 22 -22z m185 -24 c3 -8 2 -12 -4 -9 -6 3 -10 10
-10 16 0 14 7 11 14 -7z m-4686 -58 c-6 -14 -16 -26 -21 -26 -14 0 1 -13 18
-16 7 -1 16 5 20 14 5 13 8 12 21 -7 13 -18 13 -25 3 -37 -12 -14 -14 -14 -20
3 -7 16 -8 16 -8 1 -1 -10 -5 -18 -11 -18 -5 0 -7 7 -4 15 5 11 2 13 -9 9 -9
-3 -18 -13 -20 -22 -2 -10 -2 -2 0 16 3 23 1 32 -6 27 -7 -4 -7 2 1 19 6 14
15 26 20 26 4 0 7 3 7 8 -1 4 -1 16 0 27 1 18 3 18 11 3 7 -11 6 -25 -2 -42z
m4662 -48 c0 -5 -4 -8 -10 -8 -5 0 -10 10 -10 23 0 18 2 19 10 7 5 -8 10 -18
10 -22z m-3 -33 c-4 -8 -2 -17 3 -20 15 -9 12 -42 -5 -49 -13 -5 -17 0 -14 20
0 4 -5 11 -13 15 -8 5 -9 9 -2 9 7 0 14 9 17 20 3 11 8 20 12 20 4 0 5 -7 2
-15z m-4651 -70 c-6 -18 -36 -9 -36 11 0 20 34 37 38 18 2 -8 1 -22 -2 -29z
m4612 10 c-3 -3 -9 2 -12 12 -6 14 -5 15 5 6 7 -7 10 -15 7 -18z m116 -80 c4
-37 3 -42 -3 -20 -8 29 -9 29 -11 5 -1 -14 -2 -32 -1 -40 2 -13 1 -13 -8 0 -5
8 -7 18 -5 22 3 4 -3 21 -12 37 -15 25 -15 33 -4 61 l13 32 13 -23 c6 -13 15
-47 18 -74z m-3307 53 c-3 -8 -6 -5 -6 6 -1 11 2 17 5 13 3 -3 4 -12 1 -19z
m213 -91 c0 -12 -25 14 -38 40 -7 12 -12 28 -12 35 0 13 49 -61 50 -75z m29
69 c10 -6 12 -5 7 2 -4 7 -2 12 5 12 6 0 9 -8 7 -18 -3 -10 1 -27 8 -37 8 -10
14 -14 14 -9 0 6 -4 14 -9 20 -5 5 -5 18 -1 29 7 19 7 19 15 -4 4 -13 20 -35
36 -49 24 -19 28 -29 24 -55 -7 -36 -13 -47 -26 -47 -6 0 -7 5 -4 10 4 6 3 10
-2 9 -24 -4 -36 6 -67 54 -53 83 -56 113 -7 83z m2981 -11 c0 -14 -4 -25 -10
-25 -11 0 -14 33 -3 43 11 11 13 8 13 -18z m-3168 -47 c-6 -6 -8 -17 -5 -24 4
-10 0 -12 -13 -7 -13 5 -15 3 -9 -7 6 -9 4 -11 -4 -6 -9 6 -10 21 -6 50 10 57
16 63 32 31 10 -18 11 -31 5 -37z m94 7 c4 -8 11 -12 17 -8 6 4 8 0 4 -10 -3
-9 -2 -16 2 -14 12 3 109 -147 117 -181 4 -15 13 -33 22 -39 27 -22 -14 -28
-46 -7 -15 10 -29 19 -32 19 -15 2 -51 27 -46 32 3 4 14 -1 23 -9 12 -11 25
-13 38 -8 17 7 17 9 3 9 -10 1 -26 8 -37 18 -11 9 -30 17 -44 19 -28 3 -97 70
-96 93 0 10 2 12 6 3 2 -6 9 -10 13 -7 5 3 7 12 4 20 -4 8 -11 12 -17 8 -6 -3
-7 -1 -3 6 6 8 12 9 20 2 10 -8 11 -3 8 20 -6 41 31 69 44 34z m3139 -79 c10
-28 20 -57 23 -65 4 -10 1 -12 -9 -7 -8 4 -6 1 4 -7 9 -8 17 -20 16 -28 0 -10
-2 -11 -6 -1 -2 6 -9 12 -14 12 -6 0 -7 -6 -3 -12 4 -7 4 -10 0 -6 -4 3 -8 10
-8 15 0 4 -4 16 -10 26 -6 12 -6 23 1 31 8 9 7 13 -4 13 -8 0 -12 -4 -9 -9 3
-4 0 -8 -6 -8 -7 0 -10 7 -7 15 7 16 -16 67 -27 60 -3 -3 -2 1 4 7 13 15 13
41 0 33 -6 -4 -7 1 -3 11 5 14 8 14 23 -6 9 -12 25 -46 35 -74z m-2865 54 c10
0 25 -11 34 -25 9 -14 37 -44 61 -66 25 -23 45 -47 45 -53 0 -7 16 -18 35 -25
33 -12 48 -31 24 -31 -17 0 -123 77 -175 128 -13 12 -28 22 -34 22 -5 0 -10 9
-10 21 0 11 -4 18 -9 15 -5 -4 -7 4 -3 16 3 12 7 17 10 10 2 -6 12 -12 22 -12z
m-681 -26 c4 3 8 -1 8 -9 0 -20 -26 -19 -33 0 -4 8 -10 13 -14 10 -5 -3 -7 3
-5 12 2 10 4 20 4 23 1 2 8 -6 17 -18 8 -12 19 -20 23 -18z m754 -11 c-4 -10
-2 -14 4 -10 11 7 77 -63 68 -71 -9 -9 -88 76 -81 87 11 17 16 13 9 -6z m-43
-67 c0 -1 -9 -2 -20 -2 -10 0 -17 2 -15 4 2 2 -5 13 -16 25 -32 35 -21 39 16
6 19 -18 35 -33 35 -33z m-138 15 c11 -11 19 -24 17 -29 -2 -5 -14 4 -27 20
-27 32 -21 37 10 9z m92 -21 c14 -22 22 -40 17 -40 -6 0 -13 4 -16 10 -7 12
-45 33 -45 25 0 -2 18 -17 40 -31 22 -15 37 -31 33 -37 -3 -6 -1 -7 5 -3 6 3
16 -3 22 -14 8 -16 8 -22 -4 -26 -16 -6 -66 23 -66 39 0 6 -3 7 -7 4 -7 -8
-33 11 -33 25 0 5 6 6 13 1 25 -16 42 -12 19 5 -26 20 -40 82 -18 82 7 0 25
-18 40 -40z m128 -57 c20 -18 13 -43 -13 -43 -17 0 -99 75 -99 92 0 10 90 -29
112 -49z m98 15 c0 -5 -6 -6 -12 -1 -7 4 -17 8 -22 8 -5 0 -10 8 -12 17 -2 16
0 16 22 1 13 -8 24 -20 24 -25z m41 25 c13 -16 12 -17 -3 -4 -10 7 -18 15 -18
17 0 8 8 3 21 -13z m-2094 -35 c-3 -8 -6 -5 -6 6 -1 11 2 17 5 13 3 -3 4 -12
1 -19z m1296 -10 c6 -22 0 -23 -19 -4 -18 18 -18 23 0 23 8 0 17 -9 19 -19z
m792 13 c-3 -5 5 -17 17 -25 25 -18 17 -22 -11 -6 -25 13 -35 40 -15 40 8 0
13 -4 9 -9z m-878 -23 c-3 -8 -6 -5 -6 6 -1 11 2 17 5 13 3 -3 4 -12 1 -19z
m118 2 c-4 -6 -1 -19 6 -28 12 -16 12 -16 -5 0 -16 14 -15 38 0 38 3 0 2 -5
-1 -10z m-1345 -42 c-18 -17 -19 -22 -8 -36 12 -15 11 -16 -4 -4 -15 12 -16
10 -11 -22 4 -24 2 -36 -6 -36 -19 0 -12 59 11 94 13 19 26 32 31 29 5 -3 -1
-14 -13 -25z m2010 22 c0 -5 -4 -10 -10 -10 -5 0 -10 5 -10 10 0 6 5 10 10 10
6 0 10 -4 10 -10z m-2110 -16 c0 -8 -4 -13 -9 -10 -4 3 -16 -11 -25 -32 -16
-37 -20 -44 -65 -115 -33 -53 -20 -57 14 -5 37 56 44 34 9 -31 -19 -38 -32
-51 -48 -51 -20 1 -20 1 4 15 22 13 16 21 -13 16 -10 -1 46 109 89 177 36 55
44 62 44 36z m1424 -9 c8 -8 19 -15 25 -15 5 0 13 -5 16 -11 4 -5 -10 -3 -30
5 -21 9 -39 16 -41 16 -2 0 -4 5 -4 10 0 15 16 12 34 -5z m-214 -5 c0 -5 7
-10 16 -10 10 0 14 -6 11 -14 -4 -11 -1 -13 11 -9 14 6 15 4 5 -9 -7 -8 -10
-18 -6 -21 3 -4 1 -13 -6 -20 -6 -8 -8 -23 -4 -32 4 -13 3 -16 -6 -11 -6 4
-11 15 -10 24 3 30 -1 43 -10 38 -5 -3 -11 1 -15 9 -3 8 0 15 7 16 9 0 9 2 0
6 -15 6 -17 43 -3 43 6 0 10 -4 10 -10z m897 4 c-3 -3 -12 -4 -19 -1 -8 3 -5
6 6 6 11 1 17 -2 13 -5z m-92 -14 c-17 -7 -16 -9 10 -10 l30 -1 -25 -14 -25
-14 25 -1 c18 0 21 -3 12 -12 -9 -9 -19 -5 -42 17 -27 26 -29 30 -13 37 26 10
52 9 28 -2z m-410 -21 c-3 -5 0 -6 8 -4 7 3 21 -3 31 -14 18 -20 18 -20 -5
-16 -44 8 -70 27 -58 42 12 14 33 8 24 -8z m619 9 c19 1 76 -24 76 -33 0 -3
-9 -5 -21 -5 -11 0 -17 5 -14 10 3 6 -1 10 -10 10 -9 0 -13 -5 -10 -11 4 -6
-4 -9 -22 -7 -15 2 -30 8 -33 14 -3 7 -13 8 -25 3 -17 -6 -17 -8 -2 -8 9 -1
17 -5 17 -11 0 -15 -36 -12 -50 5 -9 10 -9 15 -1 15 6 0 11 7 11 16 0 12 6 14
33 8 17 -4 41 -7 51 -6z m156 0 c0 -11 -22 -10 -39 1 -10 7 -7 9 12 8 15 -1
27 -5 27 -9z m-610 -13 c14 -8 21 -14 15 -14 -5 0 -21 6 -35 14 -14 8 -20 14
-15 14 6 0 21 -6 35 -14z m-372 -68 c8 -32 8 -32 -41 -49 -27 -10 -53 -15 -58
-12 -11 6 -12 34 -1 34 4 0 16 13 26 28 11 15 16 24 11 20 -4 -4 -16 2 -26 14
-24 27 -24 31 1 18 19 -10 24 -6 21 13 -4 25 60 -39 67 -66z m559 57 c7 -21
-25 -23 -43 -2 -18 19 -18 20 10 16 16 -1 31 -8 33 -14z m153 12 c0 -3 -4 -8
-10 -11 -5 -3 -10 -1 -10 4 0 6 5 11 10 11 6 0 10 -2 10 -4z m-25 -34 c-3 -3
-11 0 -18 7 -9 10 -8 11 6 5 10 -3 15 -9 12 -12z m-775 -28 c0 -7 -7 -17 -16
-22 -11 -6 -15 -17 -11 -31 8 -31 -9 -25 -23 8 -12 31 -5 75 11 66 5 -4 9 -1
9 6 0 8 4 8 15 -1 8 -7 15 -18 15 -26z m826 14 c10 -12 14 -18 7 -15 -6 4 -15
2 -19 -4 -4 -8 -3 -9 4 -5 7 4 12 2 12 -4 0 -6 5 -8 12 -4 8 5 9 2 5 -9 -4
-10 -2 -16 5 -14 6 1 12 -3 15 -10 3 -7 -3 -9 -16 -6 -12 3 -21 9 -21 14 0 5
-8 9 -18 9 -21 0 -62 27 -62 42 0 6 13 8 30 6 23 -3 30 -1 26 9 -8 19 -2 16
20 -9z m89 13 c3 -5 -3 -11 -12 -13 -15 -3 -14 -5 5 -10 12 -3 20 -2 17 2 -9
15 13 21 50 14 29 -5 33 -9 24 -20 -9 -11 -6 -14 16 -14 23 0 25 -3 16 -14
-10 -12 -8 -14 13 -12 26 3 50 -14 88 -62 15 -18 15 -22 3 -22 -8 0 -15 5 -15
11 0 8 -4 8 -14 0 -14 -12 -29 -10 -144 22 -61 17 -62 17 -66 49 -1 13 -6 29
-10 36 -9 15 -1 42 13 42 5 0 12 -4 16 -9z m210 -13 c7 -8 5 -9 -8 -4 -10 3
-27 6 -38 6 -10 0 -19 4 -19 9 0 12 52 3 65 -11z m-2424 -15 c-4 -9 -6 -24 -4
-34 3 -11 0 -19 -6 -19 -12 0 -16 62 -5 73 12 12 24 -4 15 -20z m1839 23 c0
-9 -30 -14 -35 -6 -4 6 3 10 14 10 12 0 21 -2 21 -4z m-404 -45 c-17 -16 -36
-7 -36 19 0 16 3 17 25 7 20 -10 22 -14 11 -26z m581 13 c-7 -7 -37 7 -37 17
0 6 9 5 21 -1 11 -7 19 -14 16 -16z m153 10 c0 -8 -4 -12 -10 -9 -5 3 -10 10
-10 16 0 5 5 9 10 9 6 0 10 -7 10 -16z m245 0 c13 -5 14 -8 3 -15 -19 -12 -25
-11 -32 6 -6 16 3 19 29 9z m-630 -24 c-4 -6 6 -7 27 -3 18 3 30 2 26 -2 -9
-10 14 -35 26 -27 5 3 6 0 3 -5 -7 -12 -74 0 -109 18 -22 12 -15 29 13 29 11
0 17 -4 14 -10z m191 2 c11 -7 27 -42 19 -42 -7 0 -45 39 -45 45 0 7 13 6 26
-3z m691 -196 c54 -51 61 -62 52 -80 -9 -19 -9 -19 4 -4 13 17 15 17 33 -3 21
-24 74 -54 89 -51 6 1 30 -16 55 -38 24 -21 46 -37 49 -35 2 3 -9 15 -24 27
-26 20 -26 22 -9 29 14 6 15 8 3 8 -8 1 -26 12 -38 25 -13 13 -34 27 -47 30
-13 4 -24 14 -24 22 0 14 2 15 18 3 15 -13 16 -12 3 4 -9 12 -21 15 -35 11
-12 -4 -18 -3 -14 1 3 3 -11 22 -33 42 -21 19 -37 38 -35 42 3 4 1 13 -3 20
-5 8 -8 -1 -7 -22 0 -19 3 -35 6 -34 3 1 16 -8 30 -20 13 -13 19 -23 12 -23
-6 0 -17 9 -25 20 -8 11 -16 18 -19 15 -8 -8 -190 184 -184 194 4 5 -2 12 -11
14 -10 3 -6 4 9 4 15 -1 26 -6 25 -12 -1 -5 3 -9 10 -8 6 2 37 -25 67 -60 31
-34 56 -57 56 -50 0 6 -4 15 -10 18 -19 12 -71 95 -65 105 4 6 16 3 31 -6 18
-12 24 -13 24 -3 0 8 6 5 16 -7 8 -10 12 -13 8 -5 -5 10 -3 12 7 5 14 -8 19
-10 38 -13 5 0 12 -9 14 -18 3 -11 5 -7 6 10 1 25 3 27 21 17 11 -6 17 -16 14
-22 -4 -6 -3 -8 3 -5 12 8 40 -22 78 -85 16 -26 32 -45 35 -43 3 2 6 -8 7 -23
0 -14 8 -29 17 -34 9 -5 13 -15 9 -25 -4 -10 -2 -14 5 -10 12 8 38 -26 72 -93
22 -43 56 -78 72 -73 4 2 5 -3 2 -11 -3 -8 0 -17 7 -22 8 -5 10 -3 4 6 -5 9
-4 11 4 6 6 -4 10 -15 9 -24 -2 -9 2 -16 9 -15 12 3 119 -115 111 -122 -2 -3
-26 20 -52 50 -26 31 -51 53 -56 50 -7 -4 -61 33 -80 56 -3 3 -14 9 -25 13
-12 4 -4 -7 19 -28 21 -20 42 -36 46 -36 4 0 27 -18 51 -40 24 -22 47 -40 50
-40 4 0 9 -6 12 -14 4 -10 0 -14 -13 -11 -13 3 -17 -1 -13 -11 9 -23 -28 -30
-45 -8 -14 19 -15 19 -7 -1 4 -11 8 -28 9 -37 0 -10 4 -18 9 -18 4 0 6 -4 2
-10 -7 -11 -35 -1 -55 20 -8 9 -11 10 -6 2 11 -16 -11 -35 -32 -27 -13 5 -24
-2 -64 -40 -20 -19 -21 -19 -14 -1 6 17 5 17 -11 5 -9 -8 -25 -22 -35 -31 -10
-10 -22 -18 -28 -18 -5 0 -10 -7 -10 -15 0 -8 -8 -15 -17 -15 -17 -1 -17 -1 0
-14 20 -15 23 -30 4 -23 -15 6 -21 -30 -6 -38 5 -4 7 -11 3 -16 -3 -5 -10 -7
-15 -4 -5 4 -16 -1 -25 -10 -12 -11 -26 -14 -48 -10 -27 5 -29 4 -11 -6 11 -7
21 -13 23 -14 7 -6 -19 -55 -29 -55 -6 0 -9 6 -6 13 4 10 -2 13 -19 9 -20 -4
-21 -6 -9 -18 7 -8 22 -14 32 -15 12 -1 10 -3 -7 -8 -15 -4 -24 -14 -24 -24 1
-11 -6 -17 -19 -17 -11 0 -17 -3 -14 -6 14 -14 -16 -44 -54 -54 -48 -13 -190
-3 -201 14 -4 6 -8 7 -8 1 -1 -5 -5 0 -10 12 -5 13 -15 21 -22 19 -7 -1 -10
-1 -5 1 4 3 4 10 0 16 -4 6 0 8 11 4 14 -6 15 -3 6 13 -9 17 -41 26 -72 21
-11 -1 -5 21 8 35 6 7 19 14 30 16 17 3 17 4 2 10 -10 4 -24 1 -32 -7 -13 -13
-15 -11 -21 16 -4 19 -12 29 -20 25 -16 -6 -45 24 -45 46 0 12 -6 15 -22 10
-14 -3 -19 -1 -14 6 5 8 2 10 -8 6 -10 -4 -16 -1 -16 9 0 8 -8 21 -17 28 -15
12 -16 12 -11 -8 5 -20 4 -21 -13 -12 -11 5 -17 14 -14 20 4 5 -1 9 -11 9 -13
0 -14 3 -5 13 8 11 5 16 -14 25 -14 6 -25 18 -25 26 0 10 -7 12 -22 8 -15 -4
-19 -2 -13 7 5 10 -2 11 -29 7 -22 -4 -36 -2 -36 4 0 7 -8 6 -22 -1 -17 -9
-23 -9 -26 0 -2 6 -8 9 -13 6 -5 -4 -6 0 -3 8 3 8 0 18 -7 23 -8 4 -10 3 -5
-4 4 -7 1 -12 -8 -12 -8 0 -17 -6 -19 -12 -7 -18 -25 8 -22 31 1 9 0 11 -2 4
-5 -14 -74 -13 -85 2 -4 6 -8 2 -8 -7 0 -10 -5 -18 -11 -18 -5 0 -7 5 -4 11 5
7 -7 8 -35 4 -25 -4 -40 -2 -36 3 3 5 -6 7 -20 4 -22 -4 -25 -9 -19 -31 3 -14
2 -21 -2 -15 -14 19 -43 25 -49 9 -4 -8 -10 -15 -15 -15 -4 0 -6 7 -3 15 7 17
-4 19 -40 5 -16 -6 -26 -17 -26 -29 0 -11 -6 -22 -12 -24 -7 -3 -1 -6 14 -6
22 -1 29 -7 36 -33 9 -35 6 -58 -9 -58 -5 0 -9 -5 -9 -10 0 -7 6 -7 19 0 29
15 59 12 70 -7 8 -15 12 -16 38 -3 15 8 31 16 36 18 4 2 7 -5 7 -15 0 -10 4
-14 8 -8 12 17 42 17 42 0 0 -13 12 -19 33 -16 4 0 7 -9 7 -21 0 -21 0 -21 15
-2 12 16 14 17 15 2 0 -10 14 -20 38 -26 26 -7 30 -10 14 -11 -13 -1 -21 -5
-17 -10 3 -6 -37 -10 -97 -11 -57 0 -154 -3 -217 -5 -73 -3 -119 -1 -127 6 -8
6 -19 9 -26 6 -8 -4 -7 -6 5 -6 38 -2 14 -22 -25 -21 -24 0 -55 -1 -70 -4 -16
-2 -28 0 -28 6 0 6 7 8 15 5 8 -4 17 -2 20 3 4 6 1 10 -5 10 -7 0 -10 6 -7 13
4 10 -3 12 -24 9 -16 -2 -35 1 -43 7 -10 8 -16 9 -21 1 -3 -5 -11 -10 -17 -10
-6 0 -6 6 2 15 11 14 10 14 -14 6 -25 -10 -39 2 -13 12 7 3 5 6 -5 6 -10 1
-18 6 -18 11 0 6 6 10 13 9 6 -1 25 3 40 9 16 7 36 12 46 12 12 0 20 9 23 25
3 14 1 25 -3 25 -5 0 -9 7 -9 16 0 8 5 12 10 9 14 -9 13 8 -2 23 -7 7 -9 12
-5 12 4 0 3 9 -3 20 -8 14 -8 20 0 20 7 0 9 12 6 30 -4 30 7 49 19 31 3 -6 12
-8 21 -4 11 4 12 9 3 19 -9 11 -9 14 0 14 7 0 9 5 5 11 -3 6 -7 28 -8 49 -2
32 0 36 12 24 19 -20 29 -17 35 9 6 21 6 21 -8 3 -13 -17 -15 -18 -15 -3 0 9
-5 17 -11 17 -6 0 -9 8 -7 17 2 10 -5 26 -15 36 -14 14 -15 22 -7 38 6 11 16
16 22 13 8 -5 9 -1 4 12 -5 10 -9 24 -9 31 0 6 -7 9 -16 5 -9 -3 -13 -2 -9 3
4 4 1 14 -7 22 -21 21 -18 32 6 26 13 -4 17 -8 9 -13 -8 -5 -4 -9 9 -13 12 -3
19 -1 15 4 -3 5 2 6 10 3 9 -3 14 -9 11 -13 -6 -10 23 -51 36 -51 6 0 7 6 3
13 -4 7 -3 9 2 4 5 -5 9 -12 9 -15 0 -4 15 -27 33 -51 17 -24 32 -51 32 -59 0
-9 3 -12 7 -8 4 3 22 -8 42 -26 32 -30 31 -29 -9 22 -24 30 -37 49 -30 43 18
-16 34 -17 24 -1 -4 7 -3 8 5 4 6 -4 9 -11 7 -15 -7 -10 5 -24 34 -40 l25 -14
-21 24 c-12 13 -27 34 -33 47 -7 13 -17 20 -24 15 -7 -4 -7 0 2 10 9 12 10 17
2 17 -7 0 -10 4 -6 10 3 5 13 6 23 3 9 -3 0 9 -20 26 -25 22 -35 37 -31 48 4
11 2 14 -5 9 -8 -5 -10 -2 -6 8 3 9 11 13 18 9 6 -4 5 1 -3 10 -7 9 -18 14
-24 10 -5 -3 -7 -1 -4 4 4 6 0 16 -9 23 -8 7 -13 19 -10 27 3 8 -2 13 -13 13
-20 0 -31 19 -31 50 0 12 -6 17 -18 13 -13 -3 -24 8 -41 38 -17 30 -20 41 -9
37 10 -4 14 1 14 16 -1 14 4 20 16 18 9 -1 19 2 23 8 3 5 19 10 35 10 16 0 32
5 35 11 5 7 15 5 31 -5 17 -12 22 -13 18 -3 -9 25 58 38 139 28 4 -1 7 -9 8
-18 0 -12 2 -14 6 -5 4 10 9 7 17 -9 14 -29 73 -62 82 -47 5 7 2 8 -7 4 -8 -4
-5 0 5 8 17 14 18 16 3 16 -9 0 -17 5 -17 10 0 6 6 10 13 10 8 0 7 4 -3 10
-11 8 -7 9 15 4 33 -7 58 -24 35 -24 -7 0 -10 -3 -7 -6 4 -4 14 -1 24 7 9 8
14 9 10 3 -4 -7 0 -17 7 -23 12 -10 13 -9 9 7 -3 12 1 19 11 19 8 0 13 -4 11
-8 -3 -4 10 -10 29 -13 29 -6 35 -11 41 -42 3 -19 9 -43 12 -52 4 -12 -2 -10
-23 8 -27 24 -27 23 4 -13 20 -24 32 -48 32 -67 0 -42 0 -43 13 -59 7 -8 17
-26 24 -40 11 -23 11 -21 6 19 -3 25 -10 48 -15 51 -5 3 -3 9 6 12 9 4 16 12
15 19 0 9 -2 10 -5 1 -6 -13 -34 -6 -34 9 0 5 6 6 13 1 7 -4 5 4 -5 18 -9 14
-18 50 -20 80 l-3 54 40 0 c22 0 43 -4 47 -10 5 -6 8 -5 8 3 0 7 4 11 9 8 5
-4 20 -2 33 3 l23 10 -22 0 c-13 1 -23 5 -23 10 0 12 74 1 78 -11 2 -4 8 -6
12 -3 5 3 27 -2 50 -11 28 -11 45 -26 55 -48 l14 -31 -6 34 c-6 32 -5 33 16
22 11 -7 21 -9 21 -7 0 3 -12 12 -27 20 -24 13 -25 15 -8 15 11 1 41 -6 67
-14 26 -7 76 -15 112 -17 35 -2 62 -6 60 -10 -2 -4 5 -9 16 -13 11 -3 20 -11
20 -16 0 -6 5 -7 11 -4 13 8 6 30 -9 31 -23 3 -24 4 -12 19 10 12 7 15 -13 20
-32 9 -61 40 -51 56 4 7 3 10 -2 6 -6 -3 -16 -2 -24 4 -11 6 -7 9 15 9 17 0
37 5 45 10 12 7 29 -6 80 -63 36 -39 93 -99 127 -131z m-73 178 c3 -8 2 -12
-4 -9 -6 3 -10 10 -10 16 0 14 7 11 14 -7z m2286 -17 c0 -5 -4 -5 -10 -2 -5 3
-10 14 -10 23 0 15 2 15 10 2 5 -8 10 -19 10 -23z m-2947 5 c-2 -7 0 -11 5
-10 12 2 42 -14 42 -23 0 -5 -7 -9 -15 -9 -8 0 -15 4 -15 8 0 4 -12 8 -27 7
-21 0 -28 5 -29 21 -1 16 4 21 20 20 12 -1 20 -7 19 -14z m132 0 c-3 -3 -11 0
-18 7 -9 10 -8 11 6 5 10 -3 15 -9 12 -12z m-385 -39 c0 -13 -2 -13 -17 -2
-11 10 -14 10 -9 2 4 -7 5 -13 2 -13 -3 0 -10 8 -15 19 -9 16 -7 17 14 13 14
-2 25 -11 25 -19z m1217 -16 c16 6 28 -36 14 -50 -11 -11 -16 1 -12 32 2 7 -2
10 -8 7 -5 -4 -15 4 -21 16 -9 19 -9 21 2 7 7 -9 18 -14 25 -12z m-2920 -26
c-13 -16 -28 -27 -31 -24 -3 4 -6 0 -6 -8 0 -8 -16 -31 -35 -51 -19 -20 -35
-43 -36 -50 0 -9 -2 -10 -5 -1 -3 7 -12 9 -20 6 -7 -3 -11 -10 -7 -17 3 -6 3
-8 -2 -4 -4 4 -22 0 -39 -9 -25 -13 -29 -13 -21 -2 6 8 2 6 -8 -4 -10 -11 -20
-18 -22 -15 -8 8 37 89 56 99 11 5 19 15 19 22 0 8 -4 7 -11 -3 -7 -10 -9 -11
-7 -2 2 8 6 12 8 11 3 -1 24 8 47 20 50 25 60 26 42 5 -19 -23 53 21 76 46 28
31 30 14 2 -19z m3046 27 c10 0 15 -4 11 -10 -4 -7 -2 -8 5 -4 14 9 94 -48 83
-59 -4 -5 -2 -5 4 -2 7 4 18 -1 25 -10 10 -12 10 -14 2 -9 -7 4 -13 5 -13 1 0
-8 52 -85 57 -85 3 0 -2 11 -11 25 -9 13 -16 28 -16 32 0 4 9 -5 19 -21 11
-17 18 -34 15 -38 -3 -5 6 -22 20 -39 15 -17 24 -35 20 -40 -8 -13 -90 57
-191 160 -79 81 -105 122 -65 106 9 -4 25 -7 35 -7z m102 -38 c3 -5 1 -10 -4
-10 -6 0 -11 5 -11 10 0 6 2 10 4 10 3 0 8 -4 11 -10z m-3125 -20 c0 -5 -4
-10 -10 -10 -5 0 -9 -3 -9 -7 3 -20 -2 -27 -10 -14 -6 9 -5 19 2 27 14 16 27
18 27 4z m2943 -3 c3 -8 -1 -14 -8 -14 -7 0 -11 6 -8 14 3 7 6 13 8 13 2 0 5
-6 8 -13z m55 -45 c9 -22 10 -23 6 -3 -4 16 -2 21 5 17 6 -4 11 -14 11 -21 0
-8 18 -27 40 -41 22 -15 37 -31 33 -37 -3 -5 -2 -7 4 -4 5 4 23 -7 38 -23 15
-16 32 -27 37 -24 12 7 98 -65 98 -83 0 -8 4 -12 9 -9 9 6 38 -52 33 -66 -1
-5 3 -8 9 -8 5 0 15 -13 20 -30 6 -16 15 -30 21 -30 5 0 6 -4 3 -10 -3 -5 -2
-10 3 -10 5 0 8 -10 7 -22 -1 -13 5 -34 12 -48 14 -25 14 -25 -2 -3 -17 22
-17 22 -54 4 l-37 -19 -24 26 c-14 14 -24 29 -22 34 1 5 -1 7 -6 4 -5 -3 -25
14 -45 38 -63 75 -136 176 -129 176 4 0 -1 5 -11 11 -25 15 -80 131 -66 140 7
4 4 9 -6 13 -11 4 -15 13 -12 26 3 11 1 18 -4 14 -5 -3 -9 2 -9 10 0 23 25 9
38 -22z m210 25 c7 -5 10 -12 7 -17 -3 -4 2 -10 10 -14 8 -3 17 -1 20 4 4 6 1
10 -4 10 -6 0 -11 5 -11 10 0 6 11 3 25 -6 14 -9 25 -21 25 -26 0 -6 -6 -5
-15 2 -8 7 -15 8 -15 4 0 -11 42 -39 53 -36 5 1 6 -1 3 -6 -3 -5 7 -20 22 -33
l27 -24 -20 25 -20 25 22 -19 c13 -10 20 -22 18 -26 -3 -4 6 -20 20 -36 13
-15 21 -32 18 -37 -3 -6 -1 -7 5 -3 7 4 19 -7 29 -29 17 -36 17 -37 -2 -51
-10 -8 -14 -14 -8 -14 6 0 16 7 23 15 9 11 16 12 25 5 6 -5 16 -6 20 -2 5 4 5
2 2 -4 -4 -6 2 -19 13 -29 20 -19 28 -41 10 -30 -6 4 -7 -1 -3 -11 4 -12 3
-15 -5 -10 -14 8 -15 5 -6 -18 3 -9 15 -16 25 -16 10 0 19 -4 19 -10 0 -5 6
-10 13 -10 6 1 0 11 -14 23 -15 12 -24 28 -22 35 3 9 13 2 29 -19 13 -18 21
-36 18 -40 -3 -5 3 -20 13 -35 15 -23 7 -20 -52 21 -39 26 -82 57 -96 68 -14
12 -3 2 25 -23 73 -65 119 -113 132 -135 8 -15 12 -16 19 -5 6 9 4 11 -6 5 -8
-5 -11 -5 -7 0 4 4 2 15 -5 24 -7 9 -1 7 13 -4 81 -63 110 -90 110 -101 0 -6
7 -15 16 -18 8 -3 13 -10 10 -15 -3 -5 1 -11 9 -15 17 -6 20 -26 4 -26 -5 0
-7 5 -4 10 3 6 4 10 1 10 -3 0 -12 -14 -21 -30 -12 -22 -13 -35 -5 -49 5 -11
10 -22 10 -25 0 -12 -136 -6 -149 7 -11 10 -13 10 -7 0 4 -7 4 -13 -1 -14 -4
0 -44 -2 -88 -5 -69 -4 -218 -18 -307 -29 -16 -2 -28 1 -28 6 0 10 50 64 60
64 3 0 14 6 25 13 20 13 20 13 -1 7 -14 -4 -21 -1 -21 10 0 8 4 15 9 15 5 0 7
4 4 8 -3 5 8 8 24 7 33 -2 45 4 51 24 4 11 8 11 21 -3 10 -9 18 -12 20 -5 5
14 78 19 75 6 -1 -6 3 -11 8 -12 6 0 17 -4 25 -9 9 -6 7 -1 -4 12 -11 12 -16
25 -13 29 4 4 14 -2 22 -13 13 -16 14 -16 9 -1 -7 20 15 24 34 5 18 -18 15 -2
-12 50 -13 26 -21 53 -19 60 3 6 0 12 -5 12 -6 0 -22 20 -36 45 -33 56 -44 59
-16 5 11 -21 20 -43 20 -47 -1 -4 -12 12 -24 37 -13 25 -22 48 -19 52 2 4 -12
37 -32 73 -39 69 -38 79 4 43 14 -13 6 -1 -19 25 -24 26 -40 47 -35 47 6 0 3
6 -5 13 -22 17 -80 132 -80 157 0 12 -4 18 -10 15 -10 -6 -14 6 -10 39 1 10
-3 15 -8 12 -6 -4 -13 -2 -16 3 -7 11 13 9 32 -2z m-1959 -78 c-11 -7 -9 -9 5
-9 11 0 17 -3 13 -6 -12 -12 -37 5 -31 21 3 8 11 12 16 9 6 -4 5 -10 -3 -15z
m2177 -69 l-7 25 14 -23 c7 -12 16 -19 20 -16 4 4 7 -1 7 -11 0 -14 -3 -15
-15 -5 -19 16 -19 7 1 -31 8 -17 13 -33 11 -36 -6 -5 -38 41 -61 86 l-16 35
26 -25 26 -24 -6 25z m1447 -70 c3 -11 1 -20 -4 -20 -5 0 -9 9 -9 20 0 11 2
20 4 20 2 0 6 -9 9 -20z m-1328 -60 c16 0 20 -12 8 -23 -3 -4 -16 1 -27 10
-21 18 -21 18 -2 -4 10 -13 23 -20 29 -16 6 4 8 0 4 -10 -4 -11 4 -28 23 -47
33 -34 40 -50 13 -29 -58 45 -84 85 -89 136 l-4 38 15 -27 c9 -16 22 -28 30
-28z m1341 -38 c-12 -12 -18 8 -10 35 l8 28 4 -28 c2 -16 1 -31 -2 -35z
m-1303 -23 c4 -16 3 -18 -9 -8 -7 6 -11 15 -8 20 8 13 11 11 17 -12z m-3576
-51 c-3 -8 -6 -5 -6 6 -1 11 2 17 5 13 3 -3 4 -12 1 -19z m3598 -38 c10 -11
13 -20 7 -20 -6 0 -16 9 -22 20 -6 11 -9 20 -7 20 2 0 12 -9 22 -20z m-3632
-38 c3 -24 1 -40 -4 -36 -5 3 -9 24 -9 46 0 51 5 47 13 -10z m3652 -18 c9 -15
12 -23 6 -20 -11 7 -35 46 -28 46 3 0 12 -12 22 -26z m185 -24 c5 0 10 -7 10
-16 0 -9 5 -12 13 -8 9 6 9 4 -1 -8 -11 -14 -10 -16 7 -11 12 3 21 1 21 -5 0
-5 11 -9 24 -9 16 0 23 5 21 16 -1 9 0 10 2 4 3 -7 8 -13 12 -13 4 0 8 -15 8
-32 2 -29 1 -30 -7 -10 -5 12 -15 22 -22 22 -9 0 -9 -3 2 -10 29 -18 4 -17
-37 2 -50 23 -93 64 -93 87 0 10 -3 21 -7 27 -5 5 2 -1 14 -13 12 -13 27 -23
33 -23z m57 32 c8 -5 9 -13 3 -22 -9 -14 -12 -12 -9 6 0 4 -5 11 -13 15 -7 5
-8 9 -3 9 6 0 15 -4 22 -8z m-3860 -94 c-3 -8 -6 -5 -6 6 -1 11 2 17 5 13 3
-3 4 -12 1 -19z m3472 -25 c10 -22 10 -25 -4 -19 -9 3 -19 6 -21 6 -3 0 -3 4
1 9 3 5 1 12 -5 16 -15 9 -12 25 4 19 7 -3 19 -17 25 -31z m396 -22 c6 -10 44
-9 62 2 15 10 22 -4 14 -26 -6 -17 -8 -17 -20 -3 -17 20 -28 20 -28 1 0 -8 2
-13 5 -10 3 2 18 -3 33 -12 22 -13 29 -25 29 -48 l0 -30 13 25 c8 14 19 24 26
22 7 -1 10 2 6 7 -3 6 -12 8 -20 4 -8 -3 -15 -1 -15 4 0 10 40 15 41 5 5 -45
5 -61 -3 -84 -8 -23 -16 -28 -43 -28 -35 0 -48 11 -60 49 -5 18 -4 22 6 16 8
-4 -1 7 -19 24 -18 17 -29 31 -26 31 4 0 -1 10 -12 22 -13 14 -14 19 -4 14 8
-4 5 1 -7 10 -13 9 -23 21 -23 26 0 10 36 -7 45 -21z m-3796 -85 c2 -25 -18
13 -23 44 l-6 35 14 -35 c8 -19 15 -39 15 -44z m-49 48 c0 -8 -5 -12 -10 -9
-6 4 -8 11 -5 16 9 14 15 11 15 -7z m1195 2 c0 0 6 -12 13 -24 7 -13 11 -26 8
-29 -3 -3 -8 1 -11 9 -4 10 -15 13 -30 11 -20 -4 -23 -1 -22 21 2 21 6 25 22
20 11 -4 20 -7 20 -8z m2618 -10 c4 -10 1 -13 -8 -9 -8 3 -12 9 -9 14 7 12 11
11 17 -5z m-2829 -41 c-4 -8 -8 -15 -10 -15 -2 0 -4 7 -4 15 0 8 4 15 10 15 5
0 7 -7 4 -15z m2761 -21 l5 -29 -14 24 c-9 16 -15 20 -18 11 -2 -8 -9 -10 -17
-5 -10 6 -8 11 10 21 28 15 29 15 34 -22z m126 19 c13 -16 12 -17 -3 -4 -23
18 -23 10 2 -32 l20 -34 -27 1 c-26 1 -47 26 -22 26 8 0 6 5 -5 13 -17 13 -17
14 -1 30 20 21 20 21 36 0z m-2721 -7 c0 -3 -4 -8 -10 -11 -5 -3 -10 -1 -10 4
0 6 5 11 10 11 6 0 10 -2 10 -4z m-153 -28 c-3 -8 -6 -5 -6 6 -1 11 2 17 5 13
3 -3 4 -12 1 -19z m1223 -8 c0 -5 -5 -12 -10 -15 -6 -4 -7 -11 -4 -17 4 -6 2
-8 -3 -5 -20 13 -21 43 -2 44 11 1 19 -2 19 -7z m1510 -5 c0 -8 -2 -15 -4 -15
-2 0 -6 7 -10 15 -3 8 -1 15 4 15 6 0 10 -7 10 -15z m75 -5 c10 -11 16 -20 13
-20 -3 0 -13 9 -23 20 -10 11 -16 20 -13 20 3 0 13 -9 23 -20z m-3758 -22 c-3
-7 -5 -2 -5 12 0 14 2 19 5 13 2 -7 2 -19 0 -25z m923 17 c0 -8 -2 -15 -4 -15
-2 0 -6 7 -10 15 -3 8 -1 15 4 15 6 0 10 -7 10 -15z m-970 -15 c0 -11 -4 -20
-10 -20 -5 0 -10 9 -10 20 0 11 5 20 10 20 6 0 10 -9 10 -20z m4023 5 c-3 -9
-8 -14 -10 -11 -3 3 -2 9 2 15 9 16 15 13 8 -4z m-3006 -72 c-3 -10 -5 -4 -5
12 0 17 2 24 5 18 2 -7 2 -21 0 -30z m220 21 c-3 -3 -12 -4 -19 -1 -8 3 -5 6
6 6 11 1 17 -2 13 -5z m-46 -15 c11 -5 17 -14 14 -20 -9 -14 -19 -11 -33 11
-14 23 -10 25 19 9z m2912 -6 c-7 -2 -19 -2 -25 0 -7 3 -2 5 12 5 14 0 19 -2
13 -5z m-1328 -13 c-3 -5 -12 -10 -18 -10 -7 0 -6 4 3 10 19 12 23 12 15 0z
m925 -50 c0 -11 -5 -20 -11 -20 -5 0 -7 5 -4 10 4 6 -14 10 -47 11 -60 0 -40
15 24 17 32 2 38 -1 38 -18z m55 10 c3 -5 0 -10 -7 -11 -7 0 -3 -4 10 -9 14
-6 22 -17 21 -32 0 -23 0 -23 -10 2 -8 20 -12 22 -20 10 -8 -13 -12 -12 -24 4
-8 11 -15 26 -15 33 0 15 36 18 45 3z m55 -19 c0 -11 -4 -22 -9 -25 -11 -7
-23 22 -15 35 9 16 24 10 24 -10z m33 13 c9 -3 13 -13 10 -25 -5 -18 -22 -27
-24 -11 0 4 -2 15 -4 25 -4 19 -3 19 18 11z m-513 -84 c0 -5 -4 -10 -10 -10
-5 0 -10 5 -10 10 0 6 5 10 10 10 6 0 10 -4 10 -10z m-3246 -92 c-2 -15 1 -28
6 -28 6 0 10 -5 10 -11 0 -5 -5 -7 -11 -3 -8 5 -10 -1 -6 -18 5 -18 2 -28 -7
-31 -22 -9 -25 1 -14 40 5 20 8 46 6 58 -3 12 0 22 7 22 7 0 11 -12 9 -29z
m1616 17 c0 -8 -7 -15 -15 -15 -26 0 -18 20 13 29 1 1 2 -6 2 -14z m90 -5 c0
-5 -4 -10 -10 -10 -5 0 -10 5 -10 10 0 6 5 10 10 10 6 0 10 -4 10 -10z m3067
-132 c-3 -8 -6 -5 -6 6 -1 11 2 17 5 13 3 -3 4 -12 1 -19z m-4762 1 c11 -16 1
-19 -13 -3 -7 8 -8 14 -3 14 5 0 13 -5 16 -11z m2535 -59 c28 -35 63 -91 82
-130 7 -14 18 -29 25 -33 7 -4 13 -17 13 -27 0 -10 10 -26 22 -34 12 -9 18
-16 13 -16 -6 0 -1 -7 10 -16 11 -8 19 -18 19 -22 -3 -15 16 -52 27 -52 6 0 9
-7 6 -14 -4 -11 -1 -13 10 -9 11 4 14 2 9 -5 -4 -7 -2 -12 3 -12 6 0 10 -5 9
-12 -2 -7 2 -12 7 -13 6 0 24 -9 40 -21 44 -31 144 -74 184 -80 112 -15 150
-18 287 -18 218 0 411 31 459 74 11 10 36 23 55 29 67 21 94 46 128 114 17 37
32 71 32 77 0 6 5 8 12 4 8 -5 9 -2 5 9 -3 9 0 31 7 49 7 18 17 42 21 53 5 11
7 27 6 34 -2 13 0 13 13 2 9 -7 13 -17 10 -22 -3 -5 5 -9 17 -9 16 0 20 -5 16
-20 -3 -11 -1 -23 4 -26 5 -3 8 0 7 7 -2 7 5 15 15 17 15 3 16 0 7 -22 -5 -14
-6 -26 -1 -26 5 0 11 -8 14 -17 2 -10 8 -27 12 -38 5 -16 5 -17 -4 -5 -9 12
-11 11 -11 -7 0 -13 5 -23 10 -23 14 0 13 -33 -2 -48 -9 -9 -9 -12 1 -12 7 0
10 -4 6 -9 -3 -5 -1 -12 5 -16 7 -4 7 -12 0 -24 -7 -15 -6 -18 8 -17 9 0 17
-6 17 -14 0 -8 -6 -14 -12 -12 -8 1 -13 -8 -13 -24 0 -14 -5 -34 -11 -45 -7
-15 -7 -24 0 -33 8 -10 7 -17 -4 -26 -15 -13 -21 -35 -7 -26 5 3 6 -8 4 -25
-2 -16 1 -36 8 -45 10 -11 10 -18 2 -26 -9 -9 -12 -8 -12 4 0 29 -15 27 -16
-2 -1 -15 -11 -40 -23 -56 -12 -15 -19 -35 -16 -45 9 -26 -5 -68 -20 -63 -7 3
-16 1 -20 -5 -3 -6 -1 -11 4 -11 6 0 11 -7 11 -15 0 -8 -4 -15 -10 -15 -5 0
-7 -6 -4 -14 3 -7 -7 -21 -21 -30 -14 -9 -25 -22 -24 -29 3 -25 -1 -38 -11
-32 -6 3 -10 -4 -11 -17 0 -23 0 -23 -10 2 l-10 25 -19 -25 c-10 -14 -24 -26
-29 -26 -6 -1 -21 -2 -33 -3 -19 -1 -20 -3 -8 -11 17 -11 24 -10 -96 -21 -36
-4 -61 -24 -39 -33 8 -3 15 -11 15 -17 0 -7 -10 -5 -26 6 -14 9 -33 15 -43 13
-9 -3 -25 4 -36 15 -20 20 -20 20 0 13 11 -4 16 -3 11 1 -4 4 -15 8 -24 9 -45
3 -52 5 -52 15 0 6 9 9 20 6 11 -3 20 -1 20 3 0 5 -16 12 -35 16 -35 6 -57 23
-33 25 7 1 2 4 -12 8 -14 4 -25 12 -25 18 0 14 -41 63 -55 64 -5 1 -14 2 -19
3 -16 2 -25 16 -10 16 10 1 9 4 -4 11 -9 6 -15 15 -11 20 3 5 2 9 -3 8 -22 -4
-43 2 -38 11 3 6 -3 10 -15 10 -11 0 -23 6 -26 14 -3 8 -17 17 -31 21 -14 3
-32 13 -40 21 -9 8 -22 13 -29 10 -8 -3 -26 0 -39 6 -20 9 -28 9 -38 -1 -9 -9
-9 -14 2 -20 11 -7 10 -10 -5 -14 -15 -4 -14 -5 6 -7 14 -1 27 -2 30 -3 3 0
13 -8 23 -18 14 -16 14 -19 2 -19 -8 0 -15 -5 -15 -11 0 -5 4 -8 9 -4 5 3 12
1 16 -5 3 -5 0 -10 -8 -10 -7 0 -14 -7 -14 -15 0 -17 31 -30 48 -19 8 4 9 3 5
-4 -4 -7 -2 -12 5 -12 6 0 18 -8 26 -17 8 -10 12 -12 8 -5 -3 6 -1 12 4 12 6
0 11 -5 11 -12 0 -6 2 -9 5 -6 3 3 30 -19 60 -50 48 -47 55 -59 52 -87 -3 -26
-1 -32 11 -27 9 3 13 1 9 -5 -4 -6 -1 -14 5 -16 7 -3 -8 -3 -34 0 -44 5 -48 3
-48 -16 0 -12 -4 -21 -10 -21 -5 0 -10 -7 -10 -15 0 -8 -4 -15 -10 -15 -5 0
-10 -7 -10 -16 0 -8 -4 -12 -10 -9 -12 8 -9 -37 4 -46 13 -10 -3 -29 -19 -22
-8 3 -15 1 -15 -4 0 -18 13 -23 28 -11 22 19 49 19 63 0 13 -15 12 -16 -4 -3
-15 12 -20 12 -30 1 -9 -9 -9 -11 0 -6 14 7 28 -10 14 -18 -5 -3 -14 1 -21 9
-11 13 -14 13 -25 -2 -11 -15 -14 -14 -29 13 l-16 29 6 -36 c5 -34 -12 -69
-35 -69 -4 0 -13 -10 -19 -22 -9 -20 -11 -20 -11 -4 -1 15 -4 16 -16 6 -10 -9
-15 -9 -15 -1 0 6 -3 11 -7 11 -5 0 -8 -15 -8 -32 0 -26 -5 -35 -25 -44 -17
-8 -29 -8 -38 -1 -9 7 -11 6 -6 -7 3 -9 1 -17 -5 -17 -6 -1 -19 -2 -28 -3 -10
-1 -22 -4 -28 -7 -5 -3 -28 -6 -50 -7 -22 -1 -53 -5 -69 -8 -22 -5 -27 -3 -20
7 6 11 4 11 -10 0 -21 -18 -66 -24 -66 -9 0 6 -3 8 -6 5 -4 -3 -16 -2 -27 4
-14 8 -18 8 -13 0 4 -7 -1 -11 -14 -11 -19 0 -20 -1 -5 -24 11 -16 13 -26 6
-31 -6 -3 -11 0 -11 8 0 10 -7 13 -20 10 -12 -3 -20 0 -20 7 0 7 -5 6 -15 -4
-11 -10 -37 -16 -83 -16 -105 -2 -111 -1 -140 14 -26 13 -127 14 -181 1 -18
-5 -22 -3 -18 9 4 9 2 16 -3 16 -6 0 -10 -6 -10 -14 0 -27 -130 -38 -177 -14
-29 14 -30 14 -25 -4 7 -29 -38 -19 -95 22 -26 19 -58 36 -71 37 -22 2 -63 33
-43 33 6 0 11 7 11 15 0 15 20 17 31 2 3 -5 9 -1 13 9 4 10 4 15 0 11 -4 -4
-16 5 -26 20 -17 26 -18 27 -18 6 0 -12 -4 -25 -10 -28 -5 -3 -10 -1 -10 5 0
6 -4 8 -10 5 -6 -3 -7 1 -3 10 5 13 7 14 14 3 6 -9 9 -7 9 10 0 25 -9 28 -30
10 -12 -11 -12 -10 -3 2 6 8 11 28 11 44 0 15 3 31 8 35 5 3 10 11 11 17 2 11
-56 12 -74 1 -6 -4 -18 -4 -26 -1 -11 4 -17 -3 -22 -24 -5 -24 -11 -29 -35
-30 -17 0 -30 3 -30 8 0 5 -7 7 -15 4 -11 -5 -15 1 -15 19 0 14 -6 27 -12 30
-10 3 -10 7 0 20 8 9 11 21 8 26 -4 5 -2 12 4 16 6 4 8 9 6 13 -8 13 59 81 84
84 16 2 24 -2 23 -9 -2 -7 1 -13 6 -13 5 0 12 6 14 13 3 7 6 5 6 -5 1 -11 6
-15 15 -12 8 3 17 0 21 -6 6 -9 9 -9 15 1 6 9 12 9 25 -4 18 -19 41 -22 50 -7
3 6 12 10 18 10 7 0 6 -4 -3 -10 -13 -8 -12 -10 3 -10 9 0 17 6 18 13 0 9 2 9
6 0 2 -7 11 -13 20 -13 12 0 12 2 -1 16 -16 16 -13 34 6 34 5 0 7 -7 4 -16 -5
-13 -1 -15 19 -10 20 5 25 3 26 -11 0 -14 2 -13 9 5 l10 22 20 -20 c11 -11 28
-20 38 -20 10 0 22 -3 26 -7 4 -5 11 -8 14 -8 26 0 90 -30 85 -39 -3 -6 0 -5
8 2 12 11 12 14 -1 22 -12 8 -10 10 9 10 13 0 21 -3 18 -7 -4 -3 3 -13 14 -21
18 -12 23 -12 29 -1 5 7 6 17 3 23 -3 5 -1 6 5 2 5 -3 12 -1 14 5 2 7 9 5 17
-5 12 -14 12 -16 -3 -10 -9 3 -16 1 -16 -5 0 -6 7 -11 15 -11 8 0 15 -4 15
-10 0 -5 7 -10 15 -10 8 0 15 5 15 11 0 5 -5 7 -12 3 -7 -4 -8 -3 -4 4 4 7 14
12 22 12 8 0 12 -4 9 -10 -3 -5 -1 -10 4 -10 6 0 11 7 11 15 0 8 5 15 10 15 6
0 10 -5 10 -11 0 -8 4 -8 14 0 10 8 16 9 21 1 3 -6 11 -7 17 -4 6 4 34 7 64 8
29 1 56 5 60 9 13 12 24 8 18 -8 -8 -21 23 -30 51 -15 13 7 28 9 34 6 7 -5 9
-1 5 9 -5 11 -2 14 10 9 9 -3 16 -1 16 5 0 6 7 8 16 4 13 -5 15 -2 9 15 -4 13
-2 22 4 22 6 0 11 8 12 18 0 11 2 12 6 4 4 -10 8 -8 18 5 13 17 13 17 12 -1
-1 -10 4 -21 11 -23 7 -3 12 4 12 17 0 12 5 18 10 15 6 -3 10 -1 10 5 0 7 7
10 15 6 8 -3 15 -1 15 4 0 5 7 7 15 4 8 -4 15 -1 15 6 0 9 10 11 30 6 23 -4
32 -1 37 10 4 11 13 14 32 9 18 -4 22 -3 12 4 -12 8 -12 12 -2 25 8 9 19 16
26 16 7 0 16 8 20 18 6 15 8 14 21 -8 8 -14 14 -18 13 -10 -4 43 2 62 22 67
13 4 18 11 14 20 -3 11 -1 13 10 9 10 -4 15 1 16 17 1 16 3 17 6 5 2 -9 17
-20 33 -23 20 -4 27 -11 23 -21 -3 -8 -1 -14 4 -14 5 0 9 9 10 20 1 13 -4 20
-17 20 -22 0 -36 18 -32 42 2 9 -6 22 -17 28 -12 6 -21 20 -21 30 0 11 -4 20
-9 20 -5 0 -17 3 -26 6 -13 5 -15 1 -11 -19 2 -14 -1 -28 -7 -31 -9 -5 -9 -7
0 -12 8 -4 7 -16 -6 -45 -21 -46 -36 -63 -28 -31 6 27 0 28 -29 1 -12 -11 -30
-22 -40 -24 -11 -2 -20 -4 -21 -4 -2 -1 -5 0 -6 2 -2 1 -11 -4 -19 -11 -13
-10 -17 -10 -20 0 -4 10 -12 10 -40 1 -26 -7 -39 -8 -47 0 -6 6 -24 12 -40 13
-15 1 -38 7 -50 13 -17 10 -21 9 -21 -4 0 -9 -4 -14 -9 -10 -5 3 -12 -4 -16
-14 -3 -11 -12 -18 -20 -15 -7 3 -16 1 -20 -5 -8 -15 -82 -14 -87 0 -3 9 -10
9 -26 0 -18 -10 -22 -9 -22 4 0 18 -4 19 -30 3 -17 -11 -22 -10 -30 2 -5 8
-12 12 -15 8 -4 -3 -15 1 -25 10 -32 27 -120 72 -120 61 0 -6 -4 -7 -10 -4 -5
3 -12 -6 -16 -20 -3 -13 -10 -23 -15 -20 -4 3 -13 -4 -19 -15 -6 -11 -17 -20
-25 -20 -7 0 -15 -5 -17 -10 -2 -6 -18 -12 -35 -14 -18 -3 -37 -7 -43 -11 -5
-3 -10 1 -10 9 0 10 -9 16 -22 17 -42 1 -69 9 -84 24 -9 8 -21 15 -29 15 -8 0
-11 7 -8 20 3 13 -1 22 -11 26 -11 4 -15 13 -10 26 4 14 2 18 -5 14 -12 -8
-14 4 -5 28 3 9 12 16 19 16 7 0 16 7 19 16 9 25 7 54 -5 54 -5 0 -7 -4 -4
-10 3 -5 0 -10 -8 -10 -16 0 -54 -39 -48 -49 2 -3 -6 -11 -18 -17 -12 -6 -22
-14 -22 -18 3 -21 -1 -26 -20 -26 -11 0 -18 -4 -15 -9 4 -5 -2 -7 -13 -4 -10
3 -22 0 -25 -6 -4 -5 -14 -7 -22 -4 -10 4 -17 -2 -21 -15 -3 -12 -14 -24 -25
-28 -16 -5 -18 -8 -7 -15 11 -7 9 -9 -7 -9 -12 0 -24 -7 -28 -15 -3 -8 -15
-15 -26 -15 -11 0 -20 -7 -20 -15 0 -8 -5 -15 -11 -15 -5 0 -7 -5 -3 -11 4 -8
-1 -9 -17 -5 -13 3 -18 3 -11 0 6 -3 10 -10 6 -15 -3 -5 2 -9 10 -9 23 0 20
-18 -4 -25 -12 -4 -28 -1 -37 7 -13 10 -17 10 -20 1 -3 -7 -14 -13 -24 -13
-13 0 -18 -4 -13 -12 5 -8 2 -9 -10 -5 -14 6 -17 3 -12 -10 4 -9 1 -20 -6 -25
-9 -5 -6 -8 10 -8 12 0 22 -4 22 -10 0 -14 -47 -13 -56 1 -4 8 -9 8 -17 0 -14
-14 -87 -15 -87 -1 0 6 -4 10 -10 10 -5 0 -7 -7 -3 -16 5 -13 2 -15 -18 -9
-13 4 -27 12 -30 17 -3 5 -13 6 -22 3 -9 -4 -24 2 -36 14 -12 12 -26 21 -31
21 -5 0 -10 9 -10 20 0 11 -7 20 -15 20 -8 0 -15 -5 -15 -10 0 -15 -49 22 -50
36 0 7 -8 15 -17 18 -15 6 -15 8 -3 16 13 8 12 10 -2 10 -14 0 -18 9 -18 40 0
37 -7 45 -32 41 -5 0 -8 3 -8 9 0 5 7 10 16 10 13 0 14 3 4 14 -6 8 -18 12
-26 9 -15 -5 -38 41 -30 61 2 6 5 2 5 -8 1 -16 4 -17 13 -8 9 9 9 15 1 23 -8
8 -7 18 2 36 8 14 10 33 7 42 -6 13 -7 12 -10 -6 -2 -13 -7 -23 -12 -23 -11 0
-20 54 -9 58 23 9 -15 31 -44 26 -18 -2 -25 -1 -17 3 20 9 39 35 34 48 -8 19
23 49 52 51 57 3 62 4 68 20 4 10 2 13 -6 8 -7 -4 -8 -3 -4 4 11 17 46 15 46
-3 0 -12 4 -14 19 -5 14 7 22 7 26 0 4 -6 11 -8 16 -5 5 4 9 0 9 -7 0 -10 42
-12 218 -7 120 4 231 9 247 13 17 3 59 8 95 11 36 3 106 15 155 27 50 11 100
21 112 22 11 0 19 4 17 7 -5 9 46 30 56 24 5 -3 11 -1 15 5 4 6 11 8 16 5 5
-3 6 1 3 9 -3 9 -2 16 4 16 5 0 12 10 15 22 4 12 9 19 13 15 7 -6 21 12 41 53
4 8 13 21 20 28 7 7 17 31 23 53 8 30 15 39 26 35 8 -3 13 -2 10 3 -8 13 22
107 39 121 8 7 15 20 15 29 0 34 53 120 79 129 41 14 93 -3 121 -38z m1533 30
c-3 -12 -8 -19 -11 -16 -5 6 5 36 12 36 2 0 2 -9 -1 -20z m-4093 -6 c0 -8 -4
-12 -10 -9 -5 3 -10 10 -10 16 0 5 5 9 10 9 6 0 10 -7 10 -16z m1540 -13 c0
-4 -9 -7 -20 -7 -11 0 -20 6 -20 12 0 7 8 10 20 7 11 -3 20 -8 20 -12z m2381
-47 c17 -42 17 -48 3 -90 -8 -25 -13 -53 -10 -61 8 -20 -43 -132 -65 -143 -23
-13 -32 -13 -23 1 4 8 -1 9 -16 4 -14 -4 -20 -3 -17 3 4 5 0 42 -9 82 -16 80
-14 137 6 132 8 -2 10 5 6 22 -6 24 13 42 42 37 7 -1 12 4 10 11 -3 17 33 59
45 51 5 -3 17 -25 28 -49z m-261 10 c0 -8 -4 -12 -10 -9 -5 3 -10 10 -10 16 0
5 5 9 10 9 6 0 10 -7 10 -16z m413 1 c-3 -9 -8 -14 -10 -11 -3 3 -2 9 2 15 9
16 15 13 8 -4z m-1143 -29 c0 -6 5 -4 10 4 8 12 10 12 10 -5 1 -18 1 -19 11
-2 14 23 25 22 34 -5 l8 -23 4 25 5 25 13 -30 c7 -17 14 -24 14 -17 1 7 6 10
12 6 8 -4 9 1 5 17 -7 22 -6 22 11 -3 15 -25 43 -42 29 -19 -4 5 -3 16 0 25 5
12 10 13 26 5 11 -6 22 -8 25 -5 4 3 12 1 20 -5 10 -9 13 -8 13 2 0 10 3 10
12 1 9 -9 8 -15 -8 -27 -22 -17 -15 -19 20 -5 17 6 35 6 52 -1 22 -8 25 -7 16
3 -8 10 1 13 43 13 41 1 52 -2 47 -13 -4 -11 1 -10 21 3 29 18 49 13 40 -11
-4 -11 7 -8 41 10 40 21 50 23 78 13 18 -7 39 -18 46 -25 8 -7 18 -10 23 -7 5
4 9 -1 9 -9 0 -9 -4 -16 -10 -16 -5 0 -10 -5 -10 -11 0 -5 5 -7 10 -4 6 3 10
1 10 -4 0 -6 5 -11 10 -11 6 0 10 10 10 23 1 20 2 20 11 4 6 -9 14 -15 18 -12
12 7 34 -22 39 -48 2 -12 6 -50 9 -84 4 -56 3 -63 -14 -64 -17 -1 -17 -2 0 -6
18 -5 18 -5 0 -19 -10 -7 -25 -14 -35 -14 -9 0 -18 -4 -20 -9 -1 -5 -25 -12
-53 -15 -27 -3 -68 -10 -90 -16 -22 -5 -105 -9 -185 -9 -125 1 -169 2 -272 9
-10 1 -18 7 -18 15 0 7 -7 16 -16 19 -14 5 -15 4 -4 -9 11 -13 9 -15 -16 -11
-39 5 -65 16 -59 26 3 5 -3 15 -13 22 -26 19 -97 108 -116 146 -22 44 -13 41
15 -5 34 -57 99 -133 114 -133 7 0 18 -7 25 -15 16 -19 27 -19 27 -1 0 8 -6
12 -15 8 -12 -4 -14 0 -10 16 4 12 2 20 -2 17 -12 -8 -33 33 -26 51 3 8 2 14
-3 14 -4 0 -8 6 -8 13 -1 6 -10 38 -22 71 -11 32 -18 63 -15 68 4 6 1 14 -6
18 -18 11 -1 33 21 27 24 -6 24 2 2 19 -16 12 -16 12 5 7 12 -3 22 -10 22 -17z
m1189 -16 l16 -24 -27 19 c-15 11 -28 24 -28 28 0 15 23 1 39 -23z m-4099 -10
c0 -5 -2 -10 -4 -10 -3 0 -8 5 -11 10 -3 6 -1 10 4 10 6 0 11 -4 11 -10z
m2740 -25 c0 -5 -5 -3 -10 5 -5 8 -10 20 -10 25 0 6 5 3 10 -5 5 -8 10 -19 10
-25z m-759 -4 c0 10 2 11 6 2 2 -7 11 -13 18 -13 7 0 16 6 18 13 3 6 6 2 6
-10 1 -13 6 -22 13 -20 16 3 17 -56 1 -101 -7 -21 -13 -45 -13 -54 0 -10 -5
-18 -11 -18 -6 0 -8 -7 -5 -15 3 -9 -1 -18 -9 -21 -8 -4 -12 -10 -9 -15 3 -5
-1 -9 -9 -9 -8 0 -17 -11 -19 -24 -5 -24 5 -28 30 -13 6 5 12 4 12 -2 0 -6 -9
-15 -20 -21 -11 -6 -20 -7 -20 -3 0 4 -5 2 -11 -4 -6 -6 -18 -9 -27 -6 -8 4
-13 2 -9 -3 3 -5 -2 -10 -11 -11 -26 -2 -82 -12 -101 -17 -67 -21 -424 -29
-467 -11 -10 4 -27 7 -36 6 -10 -1 -18 3 -18 8 0 6 7 11 16 11 9 0 14 6 11 13
-2 6 -10 11 -16 9 -6 -1 -11 4 -11 12 0 8 -6 17 -12 20 -7 3 -2 3 11 0 16 -4
21 -3 17 5 -4 6 -13 11 -21 11 -12 0 -12 5 0 33 7 17 20 33 29 35 9 2 17 13
17 25 1 17 2 18 6 5 5 -22 22 -23 29 -3 4 8 15 15 26 15 16 0 18 3 9 14 -9 11
-8 15 5 20 9 3 20 4 25 0 5 -3 9 3 9 13 0 15 2 16 10 3 8 -12 10 -12 16 3 4
10 17 17 34 17 19 0 29 6 33 20 3 12 14 20 26 20 24 0 27 -10 9 -28 -6 -6 -9
-15 -5 -18 11 -11 37 17 38 40 0 21 0 21 9 -1 9 -23 30 -32 30 -13 0 6 -4 10
-10 10 -5 0 -10 4 -10 9 0 6 9 9 20 8 15 -1 19 -6 14 -22 -5 -18 -4 -18 11 3
9 12 21 20 26 16 5 -3 16 0 24 6 8 6 23 9 35 5 12 -4 20 -2 20 5 0 6 5 8 11 4
6 -3 15 0 20 7 7 11 9 10 9 -4 0 -14 5 -17 23 -12 19 5 20 4 4 -5 -9 -6 -22
-8 -27 -5 -11 7 -14 -8 -4 -18 10 -10 54 24 55 42 0 10 2 11 6 4 6 -16 43 -17
43 -2 0 5 -4 7 -10 4 -5 -3 -10 -1 -10 5 0 7 6 10 14 7 8 -3 22 0 32 8 13 9
23 10 31 3 9 -8 13 -7 14 3z m2587 -56 c-14 -31 -23 -25 -14 10 4 14 11 23 16
20 6 -3 5 -16 -2 -30z m-4625 -25 c-3 -11 -7 -20 -9 -20 -2 0 -4 9 -4 20 0 11
4 20 9 20 5 0 7 -9 4 -20z m1421 1 c4 -5 -3 -7 -14 -4 -23 6 -26 13 -6 13 8 0
17 -4 20 -9z m86 -5 c0 -3 -4 -8 -10 -11 -5 -3 -10 -1 -10 4 0 6 5 11 10 11 6
0 10 -2 10 -4z m-60 -36 c0 -5 -2 -10 -4 -10 -3 0 -8 5 -11 10 -3 6 -1 10 4
10 6 0 11 -4 11 -10z m3173 -98 c-3 -18 -9 -35 -14 -38 -5 -3 -7 -9 -4 -13 2
-5 -7 -13 -20 -19 -14 -7 -25 -8 -25 -3 0 5 5 11 12 13 6 2 12 13 13 24 1 10
7 29 13 41 7 12 13 41 13 65 l1 43 9 -40 c4 -22 5 -55 2 -73z m-4400 20 c4
-42 -10 -72 -34 -72 -12 0 -11 18 2 80 13 59 26 55 32 -8z m937 48 c0 -5 -4
-10 -10 -10 -5 0 -10 5 -10 10 0 6 5 10 10 10 6 0 10 -4 10 -10z m-24 -22 c4
-6 3 -8 -3 -5 -12 8 -26 -20 -17 -34 3 -5 10 -6 16 -3 7 5 9 1 5 -9 -3 -9 -2
-16 3 -14 5 1 27 -17 48 -40 28 -31 35 -44 25 -47 -8 -3 -24 1 -37 9 -12 8
-26 12 -31 8 -4 -5 -5 -3 -2 3 4 6 -7 36 -23 65 -31 56 -37 74 -21 64 5 -3 12
-1 16 5 8 13 12 13 21 -2z m-1035 -25 c-12 -20 -14 -14 -5 12 4 9 9 14 11 11
3 -2 0 -13 -6 -23z m1074 17 c3 -5 -1 -10 -9 -10 -9 0 -16 5 -16 10 0 6 4 10
9 10 6 0 13 -4 16 -10z m9 -29 c3 -5 0 -11 -8 -14 -15 -6 -26 1 -26 15 0 11
27 10 34 -1z m-1051 -46 c-18 -34 -20 -35 -34 -19 -9 11 -9 15 -1 10 7 -4 15
0 19 11 8 20 26 43 31 38 2 -2 -5 -20 -15 -40z m-158 15 c3 -5 2 -10 -4 -10
-5 0 -13 5 -16 10 -3 6 -2 10 4 10 5 0 13 -4 16 -10z m97 -12 c-9 -9 -15 -9
-24 1 -11 10 -10 11 5 6 10 -5 17 -2 17 6 0 7 3 9 7 6 4 -4 1 -13 -5 -19z
m4557 -53 c-12 -24 -26 -42 -31 -39 -4 3 -8 -2 -8 -11 0 -9 4 -13 10 -10 6 3
7 -1 4 -9 -3 -9 -10 -13 -15 -10 -5 3 -6 -2 -3 -10 7 -19 -7 -21 -24 -4 -7 7
-12 9 -12 4 0 -4 7 -14 15 -22 22 -23 18 -34 -12 -34 -22 0 -25 2 -13 10 11 7
6 9 -19 8 -20 -2 -36 2 -38 10 -3 6 0 12 7 12 6 0 8 -4 5 -10 -4 -6 1 -7 11
-3 11 4 13 8 6 11 -16 5 -15 23 1 21 29 -3 54 16 85 64 17 29 32 59 32 68 0
22 14 34 18 15 2 -9 -7 -36 -19 -61z m-4272 18 c-3 -10 -5 -4 -5 12 0 17 2 24
5 18 2 -7 2 -21 0 -30z m-207 12 c0 -8 -4 -15 -10 -15 -5 0 -7 7 -4 15 4 8 8
15 10 15 2 0 4 -7 4 -15z m110 -5 c0 -5 -2 -10 -4 -10 -3 0 -8 5 -11 10 -3 6
-1 10 4 10 6 0 11 -4 11 -10z m740 -10 c0 -5 -2 -10 -4 -10 -3 0 -8 5 -11 10
-3 6 -1 10 4 10 6 0 11 -4 11 -10z m27 -31 c-1 -36 -3 -38 -14 -22 -9 11 -10
19 -3 21 5 2 10 12 10 23 0 10 2 19 4 19 3 0 4 -18 3 -41z m1078 32 c3 -5 0
-13 -6 -17 -7 -4 -9 -3 -5 4 3 5 0 13 -6 15 -9 4 -10 6 -1 6 6 1 14 -3 18 -8z
m-1035 -28 c8 -16 14 -32 14 -38 1 -5 6 -10 13 -10 20 0 23 -11 3 -12 -13 -1
-22 6 -26 22 -3 13 -11 22 -17 21 -7 -2 -9 -1 -5 1 5 3 3 13 -2 24 -6 10 -7
19 -2 19 5 0 15 -12 22 -27z m3460 7 c0 -5 -5 -10 -11 -10 -5 0 -7 5 -4 10 3
6 8 10 11 10 2 0 4 -4 4 -10z m-3517 -59 c6 -9 2 -8 -11 3 -12 11 -22 29 -21
40 0 19 1 19 10 -3 5 -14 15 -32 22 -40z m-639 17 c3 -16 2 -28 -3 -28 -11 0
-22 40 -15 52 8 12 10 9 18 -24z m590 5 c-10 -40 -14 -41 -14 -5 0 18 5 32 10
32 6 0 8 -11 4 -27z m3525 -10 c-6 -16 -10 -29 -9 -31 0 -1 -3 -9 -8 -18 -7
-13 -11 -11 -28 7 -10 12 -13 19 -6 15 8 -5 12 0 12 14 0 12 5 18 10 15 6 -3
13 1 16 9 3 9 10 16 15 16 5 0 4 -12 -2 -27z m-3309 -64 c0 -18 -33 -5 -36 13
-2 15 1 16 17 8 10 -6 19 -15 19 -21z m-170 -16 c0 -13 -3 -13 -15 -3 -8 7
-15 16 -15 21 0 5 7 6 15 3 8 -4 15 -13 15 -21z m3374 -88 c-4 -8 -8 -15 -10
-15 -2 0 -4 7 -4 15 0 8 4 15 10 15 5 0 7 -7 4 -15z m-3944 -5 c0 -5 -2 -10
-4 -10 -3 0 -8 5 -11 10 -3 6 -1 10 4 10 6 0 11 -4 11 -10z m3744 -144 c-3 -9
-10 -16 -15 -16 -5 0 -4 9 3 20 14 22 21 20 12 -4z m193 -118 c-3 -8 -6 -5 -6
6 -1 11 2 17 5 13 3 -3 4 -12 1 -19z m-308 -115 c-1 -17 -3 -21 -6 -10 -2 9
-9 17 -14 17 -5 0 -9 5 -9 10 0 6 7 10 15 10 10 0 15 -9 14 -27z m-36 -30 c-3
-7 -6 -13 -8 -13 -2 0 -5 6 -8 13 -3 8 1 14 8 14 7 0 11 -6 8 -14z m-523 -23
c0 -5 -2 -10 -4 -10 -3 0 -8 5 -11 10 -3 6 -1 10 4 10 6 0 11 -4 11 -10z m360
0 c0 -5 -2 -10 -4 -10 -3 0 -8 5 -11 10 -3 6 -1 10 4 10 6 0 11 -4 11 -10z
m-164 -21 c6 -5 13 -7 16 -4 3 3 18 -2 34 -10 l29 -15 -45 6 c-33 4 -41 3 -30
-5 13 -10 13 -11 0 -10 -8 1 -26 5 -40 9 l-25 8 24 1 23 1 -23 19 -24 20 25
-6 c14 -3 30 -10 36 -14z m-2081 -18 c-3 -6 -14 -11 -23 -11 -13 0 -13 2 4 14
21 15 30 14 19 -3z m2672 -13 c-3 -8 -6 -5 -6 6 -1 11 2 17 5 13 3 -3 4 -12 1
-19z m-3696 -2 c5 3 9 -4 9 -15 0 -11 -4 -23 -10 -26 -5 -3 -10 -3 -10 2 0 4
-3 19 -5 33 -3 14 -3 19 1 12 3 -6 10 -10 15 -6z m1453 5 c3 -5 -1 -11 -9 -14
-9 -4 -12 -1 -8 9 6 16 10 17 17 5z m1706 -15 c0 -2 -9 -6 -20 -9 -11 -3 -18
-1 -14 4 5 9 34 13 34 5z m-50 -10 c0 -11 -19 -15 -25 -6 -3 5 1 10 9 10 9 0
16 -2 16 -4z m-2986 -120 c1 -5 -11 -10 -26 -10 -15 -1 -25 0 -23 3 2 2 -2 13
-10 25 -18 24 -19 50 -4 78 10 18 13 15 37 -33 14 -30 26 -58 26 -63z m3046
104 c0 -5 -3 -10 -7 -10 -5 0 -19 -3 -33 -6 l-25 -6 25 15 c31 18 40 20 40 7z
m-3140 -24 c0 -2 -8 -10 -17 -17 -16 -13 -17 -12 -4 4 13 16 21 21 21 13z
m2784 -61 c-4 -8 -11 -12 -16 -9 -6 4 -5 10 3 15 19 12 19 11 13 -6z m-1779
-14 c3 -5 2 -12 -3 -15 -5 -3 -9 1 -9 9 0 17 3 19 12 6z m2102 -286 c25 -41
26 -48 11 -96 -12 -35 -13 -49 -4 -53 6 -3 4 -5 -4 -5 -31 2 -39 -2 -44 -23
-2 -13 -4 -6 -2 15 1 20 -1 37 -5 37 -4 0 -11 -17 -17 -37 -5 -21 -10 -30 -11
-20 -1 9 -5 17 -10 17 -16 0 -31 -27 -25 -44 4 -10 1 -16 -8 -16 -17 0 -19
-80 -3 -92 7 -5 7 -10 0 -15 -12 -9 -13 -33 -2 -50 6 -9 3 -11 -7 -7 -11 4
-16 0 -16 -15 0 -12 -5 -21 -12 -21 -6 0 -4 -6 6 -13 17 -12 16 -14 -7 -37
-14 -13 -23 -30 -20 -37 3 -7 0 -13 -6 -13 -6 0 -11 -10 -11 -22 -1 -23 -1
-23 -17 -3 -14 18 -15 18 -9 1 4 -11 -2 -32 -14 -53 -27 -46 -25 -54 4 -20 26
30 41 36 32 11 -3 -8 1 -26 10 -40 15 -22 15 -24 0 -24 -9 0 -16 7 -16 15 0 8
-4 15 -10 15 -5 0 -10 -4 -10 -9 0 -5 -3 -17 -6 -25 -4 -11 -2 -15 7 -11 10 4
14 -5 14 -32 0 -23 -5 -38 -15 -41 -8 -3 -21 -13 -28 -24 -7 -10 -19 -18 -26
-18 -9 0 -11 -9 -8 -27 4 -20 7 -23 10 -10 2 9 8 17 13 17 19 0 8 -18 -31 -48
-21 -18 -37 -38 -34 -45 2 -7 -11 -28 -31 -47 -19 -19 -35 -29 -35 -22 0 20
-17 13 -23 -9 -3 -12 -10 -18 -15 -15 -5 3 -12 -3 -15 -14 -3 -11 -17 -24 -31
-30 -14 -5 -26 -16 -26 -25 0 -8 -6 -14 -12 -12 -7 1 -12 -3 -11 -9 1 -7 -10
-15 -25 -19 -15 -4 -30 -12 -34 -18 -6 -9 -8 -9 -8 1 0 6 -5 12 -11 12 -6 0
-9 -6 -6 -14 8 -20 -4 -28 -20 -15 -10 9 -17 7 -30 -8 -10 -10 -15 -14 -10 -7
5 7 0 14 -13 17 -13 3 -20 0 -20 -9 0 -17 -20 -19 -20 -1 -1 6 -8 0 -16 -15
-14 -28 -47 -37 -59 -18 -9 15 -25 12 -25 -5 0 -8 -7 -15 -15 -15 -8 0 -15 -4
-15 -10 0 -5 -4 -10 -10 -10 -5 0 -10 8 -10 18 0 11 -16 27 -41 40 -29 16 -38
18 -29 7 11 -13 11 -18 0 -28 -10 -9 -14 -9 -17 1 -5 13 -73 46 -80 38 -2 -2
3 -11 12 -20 9 -9 12 -16 7 -16 -6 0 -18 -3 -27 -6 -9 -4 -15 -3 -14 2 1 5 1
16 0 24 -1 12 -4 11 -12 -4 -9 -15 -13 -16 -20 -5 -7 12 -9 11 -9 -1 0 -11 -2
-12 -8 -3 -5 8 -12 9 -22 2 -13 -8 -13 -10 0 -19 13 -8 12 -10 -2 -10 -10 0
-18 8 -19 18 0 14 -2 14 -9 -3 -8 -18 -9 -18 -10 5 -2 16 -4 19 -7 9 -3 -13
-16 -16 -58 -15 -30 0 -55 5 -55 10 0 5 -7 2 -16 -5 -13 -11 -17 -10 -25 4 -6
9 -15 17 -20 17 -6 0 -7 -4 -4 -10 3 -5 1 -10 -4 -10 -6 0 -11 5 -11 10 0 18
-20 11 -21 -7 -1 -16 -2 -15 -6 1 -4 15 -7 16 -15 5 -8 -12 -10 -12 -15 0 -5
11 -7 11 -15 0 -7 -11 -9 -9 -5 7 6 29 -17 58 -43 51 -13 -3 -20 0 -20 9 0 8
-7 14 -15 14 -8 0 -15 6 -15 14 0 7 -13 19 -30 26 -16 7 -30 16 -30 21 0 5
-11 15 -25 21 -14 6 -25 17 -25 24 0 6 -6 14 -14 17 -8 3 -17 19 -21 36 -3 17
-12 29 -18 28 -7 -1 -11 4 -9 11 1 6 -4 12 -12 12 -7 0 -16 9 -19 20 -3 11 0
20 6 20 6 0 2 7 -9 15 -19 14 -18 14 4 15 12 0 22 5 22 10 0 6 -9 10 -19 10
-11 0 -26 7 -35 15 -8 9 -18 16 -21 15 -21 -1 -25 3 -25 26 0 21 -3 24 -14 15
-10 -9 -17 -7 -27 6 -9 11 -10 14 -1 9 6 -4 12 -2 12 3 0 6 -9 11 -20 11 -11
0 -23 7 -27 16 -3 8 -12 13 -19 10 -10 -4 -14 3 -14 24 0 19 -5 30 -14 30 -12
0 -28 22 -30 42 -2 13 -46 39 -55 34 -5 -3 -12 1 -15 10 -5 13 -1 15 19 12 33
-7 33 15 0 30 -14 6 -25 16 -25 22 0 5 -8 10 -17 11 -14 0 -13 2 5 9 25 11 29
28 7 36 -8 4 -15 11 -15 18 0 6 -11 16 -24 22 -19 9 -23 9 -19 -1 2 -7 0 -16
-6 -20 -7 -3 -11 2 -11 14 0 15 -4 19 -17 14 -13 -5 -15 -2 -10 11 4 10 3 15
-3 11 -6 -3 -10 1 -10 9 0 9 -4 16 -10 16 -5 0 -7 -8 -4 -17 5 -16 4 -16 -6 0
-7 10 -10 27 -7 38 6 21 -18 27 -27 7 -3 -7 -4 -1 -3 14 3 17 -1 29 -10 32 -8
3 -11 11 -8 17 4 6 -3 21 -15 34 -20 21 -21 28 -11 56 6 17 8 36 4 42 -3 6 -1
7 5 3 7 -4 12 -13 12 -20 0 -18 33 -15 42 4 5 12 7 11 7 -3 1 -10 5 -16 9 -13
13 8 11 -28 -2 -36 -7 -5 -4 -8 6 -8 10 0 22 -9 28 -20 6 -11 19 -20 30 -20
10 0 21 -6 23 -12 4 -10 8 -9 16 2 7 10 11 11 11 3 0 -7 7 -10 15 -7 10 4 15
0 15 -11 0 -9 5 -13 10 -10 6 3 10 -4 10 -17 0 -17 3 -19 9 -9 7 10 13 11 30
2 14 -8 21 -8 21 -1 0 20 19 10 22 -12 2 -13 9 -22 15 -21 18 4 65 -47 59 -63
-3 -7 0 -16 6 -20 7 -4 8 -26 4 -60 -3 -30 -2 -54 3 -54 4 0 11 -27 15 -60 4
-33 13 -66 21 -74 20 -19 19 -26 -2 -26 -15 0 -14 -2 4 -15 12 -8 28 -12 37
-9 9 3 16 1 16 -5 0 -6 5 -11 11 -11 16 0 39 -26 39 -44 0 -9 -7 -15 -17 -13
-38 5 -22 -19 21 -32 36 -12 46 -19 46 -37 0 -27 24 -48 49 -41 14 3 18 1 14
-9 -7 -18 4 -18 22 0 8 7 11 17 7 21 -4 4 4 4 18 -1 14 -4 35 -8 47 -9 11 0
19 -4 15 -9 -3 -5 4 -7 16 -4 12 3 29 0 39 -8 21 -16 57 -19 48 -4 -3 6 5 10
19 10 14 0 28 -4 31 -10 3 -5 11 -10 16 -10 6 0 8 4 5 9 -10 16 113 5 132 -12
9 -8 35 -18 57 -22 30 -5 36 -4 25 4 -8 6 -23 11 -32 11 -12 0 -15 5 -11 17 4
11 8 12 11 5 2 -7 8 -12 13 -12 4 0 6 7 3 15 -4 8 -2 15 4 15 6 0 12 -6 15
-12 3 -10 7 -10 20 1 10 7 17 10 17 5 0 -5 4 -3 9 4 9 15 71 25 71 12 0 -6 5
-10 11 -10 5 0 8 4 5 9 -3 5 1 12 10 15 8 3 12 2 9 -3 -3 -6 8 -9 25 -9 17 1
33 5 36 10 3 5 13 3 22 -4 12 -10 16 -10 19 0 3 6 11 12 19 12 9 0 12 -5 8
-12 -5 -10 -3 -10 7 0 12 11 12 14 0 21 -9 6 -10 11 -2 15 6 4 11 3 11 -2 0
-6 20 -9 45 -8 25 0 45 4 45 9 0 4 7 7 15 7 9 0 12 6 9 15 -4 10 0 15 15 15
12 0 21 5 21 11 0 6 9 9 20 6 12 -3 20 0 20 8 0 20 28 38 62 39 17 1 33 7 36
14 3 9 -3 11 -24 6 -18 -5 -25 -3 -20 4 3 6 0 13 -6 15 -7 3 -1 6 15 6 20 1
27 6 27 21 0 12 -7 20 -17 20 -15 0 -15 2 -4 9 8 5 20 7 28 4 7 -3 13 -1 13 5
0 6 -6 13 -12 15 -8 3 -6 6 4 6 12 1 15 6 11 18 -5 12 -2 15 10 10 13 -5 17 0
17 22 0 16 6 34 14 40 21 18 26 50 9 66 -9 9 -12 23 -8 36 6 17 9 19 17 8 7
-10 8 -4 4 19 -3 18 -2 31 3 27 5 -3 7 4 4 15 -6 24 0 25 21 4 14 -14 16 -14
16 0 0 8 -8 19 -17 25 -16 9 -16 11 -1 28 9 10 17 23 18 28 1 6 8 9 16 7 8 -2
14 5 14 17 0 11 5 23 10 26 6 4 7 11 4 17 -5 7 -2 8 5 4 8 -5 14 0 18 13 3 11
10 18 15 15 5 -3 16 2 24 12 9 11 13 14 10 7 -4 -6 -2 -14 4 -18 10 -6 15 9
10 30 -1 5 1 7 5 3 4 -4 15 0 23 9 11 10 17 12 20 4 6 -18 30 -12 37 10 4 12
12 18 21 15 11 -4 13 1 7 22 -6 24 -5 26 10 13 15 -12 17 -11 17 3 0 10 5 26
10 36 8 16 15 18 36 10 19 -8 26 -6 31 6 8 20 45 14 60 -11z m-2794 -70 c-3
-9 -8 -14 -10 -11 -3 3 -2 9 2 15 9 16 15 13 8 -4z m2208 -12 c7 -19 7 -29 0
-31 -6 -2 -11 -12 -11 -22 0 -23 -35 -44 -61 -37 -10 3 -19 1 -19 -5 0 -6 -6
-8 -14 -5 -9 4 -16 -3 -20 -19 -7 -25 -40 -44 -86 -47 -14 -2 -25 -7 -26 -12
-3 -37 -44 -63 -103 -68 -12 -1 -21 -7 -21 -13 0 -11 -44 -24 -140 -39 -19 -3
-36 -10 -38 -15 -2 -5 -10 -6 -18 -3 -8 3 -14 -1 -14 -11 0 -9 6 -16 13 -16 8
0 7 -3 -3 -10 -11 -7 -20 -3 -35 13 -19 22 -82 54 -97 50 -12 -4 -88 26 -103
40 -15 16 -2 37 23 37 9 0 12 6 8 16 -3 9 -6 23 -6 32 -1 12 -5 10 -14 -8 -18
-32 -77 -42 -124 -21 -24 11 -35 24 -43 54 -11 42 -6 55 28 61 11 3 31 10 43
18 19 11 23 11 28 -1 4 -11 6 -11 13 0 6 10 9 11 9 2 0 -7 6 -13 14 -13 7 0
21 -10 29 -22 13 -19 16 -20 16 -6 1 31 28 46 73 42 24 -2 66 -6 93 -9 28 -2
57 -5 65 -6 8 0 59 11 114 27 93 26 99 27 111 10 12 -16 15 -15 38 8 41 41
120 51 141 18 8 -14 46 -3 46 13 0 13 21 20 63 24 11 0 22 -10 28 -26z m-2142
-144 c-17 -10 -24 4 -14 29 6 16 7 16 17 -2 8 -14 7 -21 -3 -27z m2031 -73 c0
-3 -4 -8 -10 -11 -5 -3 -10 -1 -10 4 0 6 5 11 10 11 6 0 10 -2 10 -4z m-66
-76 c16 0 27 -11 40 -40 10 -22 22 -38 27 -35 5 4 9 4 9 1 0 -14 -20 -14 -34
0 -14 14 -19 14 -48 -3 -18 -10 -41 -24 -50 -31 -9 -8 -40 -15 -68 -16 -50 -3
-51 -2 -67 33 -12 27 -17 31 -20 18 -3 -9 -9 -15 -14 -12 -13 9 8 45 26 45 8
0 15 -6 15 -12 0 -9 3 -8 10 2 5 8 13 15 17 15 4 1 19 5 32 9 14 5 27 4 34 -3
14 -14 27 -14 27 -1 0 15 34 52 38 40 2 -5 14 -10 26 -10z m13 14 c-3 -3 -12
-4 -19 -1 -8 3 -5 6 6 6 11 1 17 -2 13 -5z m30 -9 c0 -8 -4 -12 -9 -9 -4 3 -8
9 -8 15 0 5 4 9 8 9 5 0 9 -7 9 -15z m-487 -93 c-28 -5 -31 -1 -23 28 l6 23
20 -24 c19 -24 19 -24 -3 -27z m197 26 c-3 -8 -6 -5 -6 6 -1 11 2 17 5 13 3
-3 4 -12 1 -19z m422 0 c1 6 6 12 12 12 7 0 9 -10 7 -25 -3 -14 -1 -25 3 -25
5 0 9 -4 9 -10 0 -21 -31 -9 -40 16 -13 33 -13 69 0 39 5 -11 9 -14 9 -7z
m-758 -2 c-17 -20 1 -28 34 -16 36 14 45 13 45 -5 0 -8 5 -15 10 -15 18 0 10
-29 -9 -35 -27 -8 -105 2 -109 15 -2 5 -10 10 -17 10 -14 0 -27 25 -18 34 4 3
17 6 30 6 13 0 23 5 23 10 0 6 5 10 11 10 8 0 8 -4 0 -14z m730 -12 c13 -32
10 -39 -7 -18 -15 19 -15 19 -10 -1 3 -11 1 -27 -4 -35 -5 -8 -10 -11 -10 -7
0 4 -9 3 -19 -3 -16 -8 -21 -6 -27 12 -4 13 -2 24 5 26 6 2 11 12 11 22 0 33
49 36 61 4z m-1226 6 c3 -5 1 -10 -4 -10 -6 0 -11 5 -11 10 0 6 2 10 4 10 3 0
8 -4 11 -10z m742 -32 c-3 -7 -5 -2 -5 12 0 14 2 19 5 13 2 -7 2 -19 0 -25z
m603 22 c8 -5 11 -10 5 -10 -5 0 -17 5 -25 10 -8 5 -10 10 -5 10 6 0 17 -5 25
-10z m-10 -24 c0 -2 -7 -9 -15 -16 -13 -11 -14 -10 -9 4 5 14 24 23 24 12z
m-197 -19 c3 -8 1 -20 -4 -28 -6 -10 -9 -7 -9 14 0 29 5 35 13 14z m-23 -27
c0 -5 -2 -10 -4 -10 -3 0 -8 5 -11 10 -3 6 -1 10 4 10 6 0 11 -4 11 -10z
m-1270 -70 c0 -5 -4 -10 -10 -10 -5 0 -10 5 -10 10 0 6 5 10 10 10 6 0 10 -4
10 -10z m1440 -60 c0 -5 -5 -10 -11 -10 -5 0 -7 5 -4 10 3 6 8 10 11 10 2 0 4
-4 4 -10z m-1230 -160 c0 -5 -2 -10 -4 -10 -3 0 -8 5 -11 10 -3 6 -1 10 4 10
6 0 11 -4 11 -10z m255 -10 c3 -5 1 -10 -4 -10 -6 0 -11 5 -11 10 0 6 2 10 4
10 3 0 8 -4 11 -10z m622 -382 c-3 -8 -6 -5 -6 6 -1 11 2 17 5 13 3 -3 4 -12
1 -19z m533 -618 c0 -5 -4 -10 -10 -10 -5 0 -10 5 -10 10 0 6 5 10 10 10 6 0
10 -4 10 -10z m-20 -34 c0 -3 -4 -8 -10 -11 -5 -3 -10 -1 -10 4 0 6 5 11 10
11 6 0 10 -2 10 -4z m-212 -41 c17 -2 32 1 32 6 0 5 10 8 23 8 17 -1 18 -2 4
-6 -9 -2 -15 -8 -12 -13 2 -4 -14 -10 -37 -14 -35 -6 -45 -3 -62 15 -21 21
-21 22 -1 14 11 -4 35 -9 53 -10z m-138 -19 c0 -2 -7 -7 -16 -10 -8 -3 -12 -2
-9 4 6 10 25 14 25 6z m157 -32 c-3 -3 -12 -4 -19 -1 -8 3 -5 6 6 6 11 1 17
-2 13 -5z"/>
<path d="M6040 7526 c0 -2 8 -10 18 -17 15 -13 16 -12 3 4 -13 16 -21 21 -21
13z"/>
<path d="M6170 7423 c0 -5 9 -18 20 -28 11 -10 20 -14 20 -8 0 5 -9 18 -20 28
-11 10 -20 14 -20 8z"/>
<path d="M1870 7530 c-12 -8 -10 -10 8 -10 13 0 20 4 17 10 -7 12 -6 12 -25 0z"/>
<path d="M6313 7143 c1 -18 5 -33 9 -33 10 0 9 19 -2 45 -7 16 -9 14 -7 -12z"/>
<path d="M3336 7072 c-3 -6 -1 -14 5 -17 14 -9 20 -2 10 14 -6 8 -11 9 -15 3z"/>
<path d="M3160 6980 c5 -10 16 -22 23 -26 9 -6 9 -5 0 8 -7 8 -10 17 -7 20 2
3 -2 8 -11 12 -13 4 -14 2 -5 -14z"/>
<path d="M3755 6730 c-3 -5 -1 -10 4 -10 6 0 11 5 11 10 0 6 -2 10 -4 10 -3 0
-8 -4 -11 -10z"/>
<path d="M3724 6693 c10 -10 80 -33 85 -28 2 3 -2 5 -10 5 -12 0 -11 2 1 11
12 8 10 9 -9 4 -16 -5 -21 -4 -17 4 5 7 -4 11 -25 11 -18 0 -29 -3 -25 -7z"/>
<path d="M2988 6618 c6 -6 18 -8 28 -6 14 3 12 5 -9 10 -19 3 -25 2 -19 -4z"/>
<path d="M4250 6615 c0 -8 4 -15 10 -15 5 0 7 7 4 15 -4 8 -8 15 -10 15 -2 0
-4 -7 -4 -15z"/>
<path d="M3227 6569 c7 -7 15 -10 18 -7 3 3 -2 9 -12 12 -14 6 -15 5 -6 -5z"/>
<path d="M3557 6563 c-3 -4 6 -22 19 -38 l25 -30 -12 30 c-16 38 -25 49 -32
38z"/>
<path d="M3627 6540 c18 -11 55 -31 83 -45 27 -14 50 -32 50 -40 0 -13 3 -13
20 -3 l20 13 -20 9 c-11 5 -20 13 -20 18 0 5 -5 6 -10 3 -6 -4 -40 10 -76 29
-69 38 -101 49 -47 16z"/>
<path d="M3382 6474 c10 -10 20 -16 22 -13 3 3 -5 11 -17 18 -21 13 -21 12 -5
-5z"/>
<path d="M3818 6458 c5 -5 16 -8 23 -6 8 3 3 7 -10 11 -17 4 -21 3 -13 -5z"/>
<path d="M3868 6443 c6 -2 18 -2 25 0 6 3 1 5 -13 5 -14 0 -19 -2 -12 -5z"/>
<path d="M4195 6440 c-19 -8 -19 -9 3 -9 12 -1 22 4 22 9 0 6 -1 10 -2 9 -2 0
-12 -4 -23 -9z"/>
<path d="M3470 6315 c0 -5 5 -17 10 -25 5 -8 10 -10 10 -5 0 6 -5 17 -10 25
-5 8 -10 11 -10 5z"/>
<path d="M2830 6281 c0 -6 5 -13 10 -16 6 -3 10 1 10 9 0 9 -4 16 -10 16 -5 0
-10 -4 -10 -9z"/>
<path d="M4470 6286 c0 -2 8 -10 18 -17 15 -13 16 -12 3 4 -13 16 -21 21 -21
13z"/>
<path d="M2796 6242 c-2 -4 -1 -14 5 -22 7 -12 9 -10 9 8 0 23 -5 28 -14 14z"/>
<path d="M3530 6210 c11 -16 26 -33 32 -36 7 -4 -1 9 -16 29 -34 44 -46 50
-16 7z"/>
<path d="M3605 6120 c21 -22 41 -40 44 -40 3 0 -13 18 -34 40 -21 22 -41 40
-44 40 -3 0 13 -18 34 -40z"/>
<path d="M2856 6085 c-3 -8 -1 -15 4 -15 13 0 22 18 11 24 -5 3 -11 -1 -15 -9z"/>
<path d="M3685 6050 c10 -11 20 -20 23 -20 3 0 -3 9 -13 20 -10 11 -20 20 -23
20 -3 0 3 -9 13 -20z"/>
<path d="M2991 6043 c-1 -12 -9 -24 -18 -26 -11 -3 -7 -5 10 -6 15 0 27 -5 27
-11 0 -5 10 -10 23 -9 20 0 20 1 3 8 -10 4 -24 20 -31 37 -12 25 -13 26 -14 7z"/>
<path d="M3248 6023 c7 -3 16 -2 19 1 4 3 -2 6 -13 5 -11 0 -14 -3 -6 -6z"/>
<path d="M2995 5970 c-3 -5 -1 -10 4 -10 6 0 11 5 11 10 0 6 -2 10 -4 10 -3 0
-8 -4 -11 -10z"/>
<path d="M3645 5946 c10 -14 19 -26 22 -26 7 0 -17 39 -28 46 -6 3 -3 -5 6
-20z"/>
<path d="M3010 5900 c0 -6 7 -10 15 -10 8 0 15 2 15 4 0 2 -7 6 -15 10 -8 3
-15 1 -15 -4z"/>
<path d="M2950 5790 c-9 -6 -10 -10 -3 -10 6 0 15 5 18 10 8 12 4 12 -15 0z"/>
<path d="M3000 5790 c-8 -5 -10 -10 -5 -10 6 0 17 5 25 10 8 5 11 10 5 10 -5
0 -17 -5 -25 -10z"/>
<path d="M2705 5780 c-8 -13 5 -13 25 0 13 8 13 10 -2 10 -9 0 -20 -4 -23 -10z"/>
<path d="M2885 5740 l-20 -9 20 0 c11 0 27 4 35 9 13 9 13 10 0 9 -8 0 -24 -4
-35 -9z"/>
<path d="M2840 5719 c0 -5 5 -7 10 -4 6 3 10 8 10 11 0 2 -4 4 -10 4 -5 0 -10
-5 -10 -11z"/>
<path d="M4013 5640 c0 -30 2 -43 4 -27 2 15 2 39 0 55 -2 15 -4 2 -4 -28z"/>
<path d="M4536 6423 c-6 -14 -5 -15 5 -6 7 7 10 15 7 18 -3 3 -9 -2 -12 -12z"/>
<path d="M4814 6109 c-4 -7 -3 -9 4 -5 6 3 13 2 17 -4 3 -5 16 -10 28 -10 24
0 13 14 -20 24 -12 4 -24 2 -29 -5z"/>
<path d="M4825 6300 c-3 -5 -5 -10 -3 -11 33 -8 38 -7 27 7 -14 17 -16 17 -24
4z"/>
<path d="M4986 6215 c4 -8 8 -15 10 -15 2 0 4 7 4 15 0 8 -4 15 -10 15 -5 0
-7 -7 -4 -15z"/>
<path d="M4946 6102 c-3 -5 1 -9 9 -9 8 0 12 4 9 9 -3 4 -7 8 -9 8 -2 0 -6 -4
-9 -8z"/>
<path d="M4980 6051 c0 -5 5 -13 10 -16 6 -3 10 -2 10 4 0 5 -4 13 -10 16 -5
3 -10 2 -10 -4z"/>
<path d="M5117 5997 c-2 -6 5 -26 16 -44 21 -36 35 -46 17 -12 -8 14 -8 24 -1
33 7 8 5 15 -9 24 -14 9 -19 9 -23 -1z"/>
<path d="M4991 5983 c7 -10 14 -19 15 -21 1 -1 7 5 15 15 12 15 12 16 -3 10
-10 -3 -18 -2 -18 3 0 6 -5 10 -11 10 -8 0 -7 -6 2 -17z"/>
<path d="M5500 5807 c0 -14 5 -29 10 -32 7 -4 8 3 4 22 -9 38 -14 42 -14 10z"/>
<path d="M5634 5084 c3 -9 6 -21 6 -27 0 -7 4 -7 9 2 10 16 4 41 -11 41 -6 0
-7 -7 -4 -16z"/>
<path d="M5735 4851 c-3 -5 -1 -12 5 -16 5 -3 10 1 10 9 0 18 -6 21 -15 7z"/>
<path d="M4900 4705 c0 -8 4 -15 10 -15 5 0 7 7 4 15 -4 8 -8 15 -10 15 -2 0
-4 -7 -4 -15z"/>
<path d="M4513 4645 c-8 -22 6 -33 17 -15 13 20 12 30 0 30 -6 0 -13 -7 -17
-15z"/>
<path d="M3688 4633 c-21 -5 -24 -23 -4 -23 9 0 12 -7 9 -20 -6 -24 -23 -27
-23 -4 0 8 -5 12 -10 9 -6 -4 -8 -11 -5 -16 4 -5 2 -9 -4 -9 -5 0 -11 8 -14
18 -2 9 -4 2 -4 -15 0 -18 4 -33 9 -33 4 0 8 4 8 9 0 6 9 9 19 8 11 0 17 -6
14 -14 -3 -7 0 -13 6 -13 6 0 11 11 11 25 0 14 5 25 10 25 12 0 14 47 3 53 -5
2 -16 2 -25 0z"/>
<path d="M5669 4614 c-5 -15 -7 -29 -5 -32 5 -4 10 6 22 46 7 23 -7 12 -17
-14z"/>
<path d="M3753 4605 c-3 -9 -3 -18 -1 -21 3 -3 8 4 11 16 6 23 -1 27 -10 5z"/>
<path d="M3780 4594 c0 -8 5 -12 10 -9 6 4 8 11 5 16 -9 14 -15 11 -15 -7z"/>
<path d="M3901 4554 c0 -11 3 -14 6 -6 3 7 2 16 -1 19 -3 4 -6 -2 -5 -13z"/>
<path d="M3801 4544 c0 -11 3 -14 6 -6 3 7 2 16 -1 19 -3 4 -6 -2 -5 -13z"/>
<path d="M3856 4519 c-3 -17 -6 -37 -6 -43 1 -17 29 37 30 57 0 29 -17 19 -24
-14z"/>
<path d="M4730 4535 c7 -9 15 -13 17 -11 7 7 -7 26 -19 26 -6 0 -6 -6 2 -15z"/>
<path d="M4710 4516 c0 -9 5 -16 10 -16 6 0 10 4 10 9 0 6 -4 13 -10 16 -5 3
-10 -1 -10 -9z"/>
<path d="M3661 4494 c0 -11 3 -14 6 -6 3 7 2 16 -1 19 -3 4 -6 -2 -5 -13z"/>
<path d="M5670 4499 c0 -5 5 -7 10 -4 6 3 10 8 10 11 0 2 -4 4 -10 4 -5 0 -10
-5 -10 -11z"/>
<path d="M4786 4465 c4 -8 10 -15 15 -15 5 0 9 7 9 15 0 8 -7 15 -15 15 -9 0
-12 -6 -9 -15z"/>
<path d="M3458 4413 c6 -2 18 -2 25 0 6 3 1 5 -13 5 -14 0 -19 -2 -12 -5z"/>
<path d="M4827 4379 c7 -7 15 -10 18 -7 3 3 -2 9 -12 12 -14 6 -15 5 -6 -5z"/>
<path d="M4808 4313 c7 -3 16 -2 19 1 4 3 -2 6 -13 5 -11 0 -14 -3 -6 -6z"/>
<path d="M4956 4305 c4 -8 8 -15 10 -15 2 0 4 7 4 15 0 8 -4 15 -10 15 -5 0
-7 -7 -4 -15z"/>
<path d="M4756 4285 c4 -8 8 -15 10 -15 2 0 4 7 4 15 0 8 -4 15 -10 15 -5 0
-7 -7 -4 -15z"/>
<path d="M4816 4291 c-3 -4 6 -6 19 -3 14 2 25 6 25 8 0 8 -39 4 -44 -5z"/>
<path d="M4838 4263 c7 -3 16 -2 19 1 4 3 -2 6 -13 5 -11 0 -14 -3 -6 -6z"/>
<path d="M4645 4240 c-3 -5 -1 -10 4 -10 6 0 11 5 11 10 0 6 -2 10 -4 10 -3 0
-8 -4 -11 -10z"/>
<path d="M4826 4242 c-2 -4 4 -9 15 -9 11 -1 17 2 14 8 -7 11 -22 12 -29 1z"/>
<path d="M2870 4162 c0 -12 19 -26 26 -19 2 2 -2 10 -11 17 -9 8 -15 8 -15 2z"/>
<path d="M3685 4090 c3 -5 14 -10 23 -10 15 0 15 2 2 10 -20 13 -33 13 -25 0z"/>
<path d="M3470 4064 c0 -6 7 -14 15 -18 10 -3 15 1 15 13 0 10 -7 18 -15 18
-8 0 -15 -6 -15 -13z"/>
<path d="M3708 4063 c7 -3 16 -2 19 1 4 3 -2 6 -13 5 -11 0 -14 -3 -6 -6z"/>
<path d="M3480 3963 c0 -15 19 -37 26 -31 3 4 -1 14 -10 23 -9 9 -16 13 -16 8z"/>
<path d="M4881 3954 c0 -11 3 -14 6 -6 3 7 2 16 -1 19 -3 4 -6 -2 -5 -13z"/>
<path d="M3460 3926 c0 -2 7 -7 16 -10 8 -3 12 -2 9 4 -6 10 -25 14 -25 6z"/>
<path d="M3581 3854 c0 -11 3 -14 6 -6 3 7 2 16 -1 19 -3 4 -6 -2 -5 -13z"/>
<path d="M3557 3854 c-8 -9 31 -54 47 -54 6 1 2 9 -10 18 -11 10 -23 23 -25
30 -2 7 -8 10 -12 6z"/>
<path d="M3490 3816 c0 -9 5 -16 10 -16 6 0 10 4 10 9 0 6 -4 13 -10 16 -5 3
-10 -1 -10 -9z"/>
<path d="M3525 3819 c-4 -6 -5 -12 -2 -15 2 -3 7 2 10 11 7 17 1 20 -8 4z"/>
<path d="M5430 5122 c0 -10 41 -35 47 -28 9 8 -17 36 -33 36 -8 0 -14 -3 -14
-8z"/>
<path d="M4910 5180 c0 -13 5 -18 15 -14 8 4 15 10 15 14 0 4 -7 10 -15 14
-10 4 -15 -1 -15 -14z"/>
<path d="M4952 5180 c0 -14 2 -19 5 -12 2 6 2 18 0 25 -3 6 -5 1 -5 -13z"/>
<path d="M5160 5176 c0 -8 -6 -17 -12 -19 -10 -4 -9 -8 2 -16 22 -16 33 -13
26 5 -4 11 -2 15 8 11 10 -4 13 -1 10 8 -8 19 -34 27 -34 11z"/>
<path d="M4745 5160 c3 -5 8 -10 11 -10 2 0 4 5 4 10 0 6 -5 10 -11 10 -5 0
-7 -4 -4 -10z"/>
<path d="M5030 5145 c0 -8 5 -15 10 -15 6 0 10 7 10 15 0 8 -4 15 -10 15 -5 0
-10 -7 -10 -15z"/>
<path d="M4598 4963 c7 -3 16 -2 19 1 4 3 -2 6 -13 5 -11 0 -14 -3 -6 -6z"/>
<path d="M3319 5093 c-23 -5 -31 -40 -12 -48 9 -3 21 -1 28 5 6 5 15 7 18 3 4
-3 7 1 7 9 0 20 -21 35 -41 31z"/>
<path d="M2970 4822 c0 -10 33 -22 60 -22 13 1 13 2 0 9 -27 16 -60 22 -60 13z"/>
<path d="M2730 4900 c6 -11 13 -20 16 -20 2 0 0 9 -6 20 -6 11 -13 20 -16 20
-2 0 0 -9 6 -20z"/>
<path d="M5270 3730 c0 -5 5 -10 11 -10 5 0 7 5 4 10 -3 6 -8 10 -11 10 -2 0
-4 -4 -4 -10z"/>
<path d="M5198 3713 c7 -3 16 -2 19 1 4 3 -2 6 -13 5 -11 0 -14 -3 -6 -6z"/>
<path d="M5187 3669 c6 -6 10 -17 9 -23 -2 -6 -1 -8 1 -3 3 4 9 5 14 1 5 -3 9
0 9 5 0 6 -5 11 -11 11 -5 0 -7 5 -4 10 3 6 -2 10 -11 10 -13 0 -15 -3 -7 -11z"/>
<path d="M5155 3630 c-3 -5 -1 -10 4 -10 6 0 11 5 11 10 0 6 -2 10 -4 10 -3 0
-8 -4 -11 -10z"/>
<path d="M5060 3610 c0 -5 5 -10 11 -10 5 0 7 5 4 10 -3 6 -8 10 -11 10 -2 0
-4 -4 -4 -10z"/>
<path d="M5195 3600 c3 -5 12 -7 20 -3 21 7 19 13 -6 13 -11 0 -18 -4 -14 -10z"/>
<path d="M5171 3584 c0 -11 3 -14 6 -6 3 7 2 16 -1 19 -3 4 -6 -2 -5 -13z"/>
<path d="M3212 3473 c-8 -14 -9 -24 -2 -28 12 -7 24 18 18 37 -3 8 -9 5 -16
-9z"/>
<path d="M4907 3460 c-3 -11 -1 -20 4 -20 5 0 9 9 9 20 0 11 -2 20 -4 20 -2 0
-6 -9 -9 -20z"/>
<path d="M3235 3440 c-3 -6 1 -7 9 -4 18 7 21 14 7 14 -6 0 -13 -4 -16 -10z"/>
<path d="M3190 3390 c0 -5 6 -10 14 -10 8 0 18 5 21 10 3 6 -3 10 -14 10 -12
0 -21 -4 -21 -10z"/>
<path d="M5040 3265 c-10 -12 -10 -15 3 -15 19 0 31 16 18 24 -5 3 -14 -1 -21
-9z"/>
<path d="M5030 3040 c0 -5 5 -10 11 -10 5 0 7 5 4 10 -3 6 -8 10 -11 10 -2 0
-4 -4 -4 -10z"/>
<path d="M3500 3020 c0 -5 5 -10 10 -10 6 0 10 -7 10 -17 0 -9 3 -14 6 -10 8
8 -5 47 -17 47 -5 0 -9 -4 -9 -10z"/>
<path d="M4700 2980 c0 -18 3 -19 20 -8 14 9 16 14 7 20 -20 13 -27 9 -27 -12z"/>
<path d="M4973 2925 c1 -25 4 -40 5 -35 2 6 9 7 14 3 8 -4 9 2 5 18 -4 13 -7
32 -7 42 0 9 -4 17 -9 17 -5 0 -9 -20 -8 -45z"/>
<path d="M3730 2850 c0 -5 5 -10 10 -10 6 0 10 5 10 10 0 6 -4 10 -10 10 -5 0
-10 -4 -10 -10z"/>
<path d="M4015 2829 c-10 -15 3 -25 16 -12 7 7 7 13 1 17 -6 3 -14 1 -17 -5z"/>
<path d="M4218 2823 c6 -2 18 -2 25 0 6 3 1 5 -13 5 -14 0 -19 -2 -12 -5z"/>
<path d="M4300 2816 c0 -2 7 -7 16 -10 8 -3 12 -2 9 4 -6 10 -25 14 -25 6z"/>
<path d="M3635 2790 c3 -5 8 -10 11 -10 2 0 4 5 4 10 0 6 -5 10 -11 10 -5 0
-7 -4 -4 -10z"/>
<path d="M4871 2754 c0 -11 3 -14 6 -6 3 7 2 16 -1 19 -3 4 -6 -2 -5 -13z"/>
<path d="M3675 2739 c-4 -6 -5 -12 -2 -15 2 -3 7 2 10 11 7 17 1 20 -8 4z"/>
<path d="M4591 2624 c0 -11 3 -14 6 -6 3 7 2 16 -1 19 -3 4 -6 -2 -5 -13z"/>
<path d="M3888 2573 c6 -2 18 -2 25 0 6 3 1 5 -13 5 -14 0 -19 -2 -12 -5z"/>
<path d="M3970 2562 c0 -4 16 -8 35 -8 21 0 30 3 22 8 -16 10 -57 10 -57 0z"/>
<path d="M4420 3500 c0 -5 5 -10 11 -10 5 0 7 5 4 10 -3 6 -8 10 -11 10 -2 0
-4 -4 -4 -10z"/>
<path d="M4180 3464 c0 -5 7 -19 15 -30 8 -10 15 -14 15 -8 0 5 -7 19 -15 30
-8 10 -15 14 -15 8z"/>
<path d="M4425 3320 c3 -5 8 -10 11 -10 2 0 4 5 4 10 0 6 -5 10 -11 10 -5 0
-7 -4 -4 -10z"/>
<path d="M4646 3263 c-6 -14 -5 -15 5 -6 7 7 10 15 7 18 -3 3 -9 -2 -12 -12z"/>
<path d="M1975 7970 c-3 -5 -1 -10 4 -10 6 0 11 5 11 10 0 6 -2 10 -4 10 -3 0
-8 -4 -11 -10z"/>
<path d="M6071 7710 c0 -8 4 -22 9 -30 12 -18 12 -2 0 25 -6 13 -9 15 -9 5z"/>
<path d="M6400 6904 c0 -6 7 -19 16 -30 14 -18 14 -18 3 6 -14 31 -19 36 -19
24z"/>
<path d="M6482 6750 c7 -11 17 -20 22 -20 5 0 1 9 -9 20 -10 11 -20 20 -22 20
-2 0 2 -9 9 -20z"/>
<path d="M1018 6673 c7 -3 16 -2 19 1 4 3 -2 6 -13 5 -11 0 -14 -3 -6 -6z"/>
<path d="M925 6660 l-40 -7 35 -1 c19 0 46 4 60 8 32 10 2 10 -55 0z"/>
<path d="M1315 6609 c-4 -6 -5 -12 -2 -15 2 -3 7 2 10 11 7 17 1 20 -8 4z"/>
<path d="M6511 6464 c0 -11 3 -14 6 -6 3 7 2 16 -1 19 -3 4 -6 -2 -5 -13z"/>
<path d="M6471 6385 c0 -5 8 -37 19 -70 11 -33 17 -44 13 -25 -6 38 -31 111
-32 95z"/>
<path d="M1145 6350 c-3 -5 -1 -10 4 -10 6 0 11 5 11 10 0 6 -2 10 -4 10 -3 0
-8 -4 -11 -10z"/>
<path d="M1440 6345 c0 -5 5 -17 10 -25 5 -8 10 -10 10 -5 0 6 -5 17 -10 25
-5 8 -10 11 -10 5z"/>
<path d="M1220 6299 c0 -5 5 -7 10 -4 6 3 10 8 10 11 0 2 -4 4 -10 4 -5 0 -10
-5 -10 -11z"/>
<path d="M1210 6270 c0 -5 5 -10 10 -10 6 0 10 5 10 10 0 6 -4 10 -10 10 -5 0
-10 -4 -10 -10z"/>
<path d="M6511 6242 c-1 -7 4 -23 11 -35 6 -12 15 -35 19 -52 6 -27 7 -27 7
-5 1 26 -36 115 -37 92z"/>
<path d="M1472 5815 c0 -16 2 -22 5 -12 2 9 2 23 0 30 -3 6 -5 -1 -5 -18z"/>
<path d="M1446 5781 c-4 -29 -5 -56 -1 -59 3 -3 5 6 6 19 l1 24 8 -25 c6 -20
8 -21 8 -5 1 11 -3 38 -7 60 l-7 40 -8 -54z"/>
<path d="M6411 5823 c-1 -6 -4 -20 -7 -30 -5 -17 -5 -17 6 0 6 10 9 23 6 30
-3 9 -5 9 -5 0z"/>
<path d="M6418 5778 c-7 -16 7 -46 17 -37 3 4 2 16 -3 29 -7 18 -10 20 -14 8z"/>
<path d="M6416 5703 c-4 -9 -4 -14 0 -10 4 4 14 1 23 -6 14 -11 15 -10 1 8 -8
11 -15 21 -16 23 -1 2 -5 -5 -8 -15z"/>
<path d="M1500 5685 c0 -37 15 -48 28 -20 14 31 15 46 2 25 -9 -13 -11 -13
-20 0 -8 12 -10 12 -10 -5z"/>
<path d="M6390 5606 c0 -2 8 -10 18 -17 15 -13 16 -12 3 4 -13 16 -21 21 -21
13z"/>
<path d="M1504 5536 c-3 -8 -4 -29 -2 -48 3 -29 4 -27 8 15 5 48 3 58 -6 33z"/>
<path d="M6490 5495 c0 -5 5 -17 10 -25 5 -8 10 -10 10 -5 0 6 -5 17 -10 25
-5 8 -10 11 -10 5z"/>
<path d="M1396 5041 c-19 -7 -18 -8 4 -14 13 -3 26 -4 29 -2 2 3 -2 5 -10 5
-11 0 -11 2 1 10 18 11 3 12 -24 1z"/>
<path d="M1518 4793 c6 -2 18 -2 25 0 6 3 1 5 -13 5 -14 0 -19 -2 -12 -5z"/>
<path d="M1715 4690 c3 -5 8 -10 11 -10 2 0 4 5 4 10 0 6 -5 10 -11 10 -5 0
-7 -4 -4 -10z"/>
<path d="M6116 4603 c-6 -14 -5 -15 5 -6 7 7 10 15 7 18 -3 3 -9 -2 -12 -12z"/>
<path d="M1820 4525 c0 -5 5 -17 10 -25 5 -8 10 -10 10 -5 0 6 -5 17 -10 25
-5 8 -10 11 -10 5z"/>
<path d="M5981 4194 c0 -11 3 -14 6 -6 3 7 2 16 -1 19 -3 4 -6 -2 -5 -13z"/>
<path d="M2126 4047 c3 -10 9 -15 12 -12 3 3 0 11 -7 18 -10 9 -11 8 -5 -6z"/>
<path d="M2271 3614 c0 -11 3 -14 6 -6 3 7 2 16 -1 19 -3 4 -6 -2 -5 -13z"/>
<path d="M2421 3555 c0 -5 8 -26 19 -45 11 -19 19 -30 19 -25 0 6 -8 26 -19
45 -11 19 -19 31 -19 25z"/>
<path d="M2461 3454 c0 -11 3 -14 6 -6 3 7 2 16 -1 19 -3 4 -6 -2 -5 -13z"/>
<path d="M2485 3450 c3 -5 8 -10 11 -10 2 0 4 5 4 10 0 6 -5 10 -11 10 -5 0
-7 -4 -4 -10z"/>
<path d="M2629 2873 c-36 -38 -87 -104 -113 -148 -26 -44 -52 -87 -57 -95 -5
-8 -14 -27 -20 -42 -6 -16 -15 -25 -20 -22 -5 3 -8 2 -7 -3 4 -15 -83 -154
-140 -222 -66 -78 -67 -79 -161 -162 -93 -81 -132 -110 -143 -103 -4 3 -11 -2
-14 -10 -3 -9 -12 -16 -19 -16 -12 0 -265 -157 -400 -249 -38 -26 -92 -60
-120 -76 -27 -15 -52 -31 -55 -35 -3 -4 -23 -17 -45 -29 -22 -12 -47 -25 -55
-30 -78 -48 -208 -125 -265 -156 -38 -20 -88 -47 -110 -60 -22 -12 -76 -41
-120 -65 -44 -24 -105 -60 -135 -80 -30 -20 -77 -50 -105 -66 -27 -15 -56 -34
-62 -40 -7 -7 -39 -27 -70 -45 -32 -18 -102 -60 -156 -93 -53 -34 -105 -65
-115 -71 -10 -5 -41 -25 -70 -44 l-52 -33 0 -439 0 -439 2045 0 c1126 0 2045
4 2045 9 0 4 -42 93 -94 197 -51 104 -96 199 -100 210 -4 12 -38 77 -78 145
-102 179 -189 342 -184 347 3 2 12 -9 22 -25 10 -15 44 -62 74 -103 31 -41 96
-139 144 -218 115 -187 196 -294 241 -321 43 -25 45 -25 45 -6 0 8 -4 15 -10
15 -5 0 -7 6 -4 14 3 7 -2 16 -10 19 -9 4 -16 15 -16 26 0 10 -7 21 -15 25 -8
3 -15 16 -15 28 0 19 -2 20 -10 8 -8 -12 -10 -11 -10 6 0 11 -16 38 -36 59
-46 50 -108 129 -218 275 -47 63 -102 133 -121 155 -100 116 -165 200 -174
229 l-11 31 19 -24 c17 -22 49 -22 35 0 -3 5 -9 7 -13 5 -4 -3 -8 5 -9 17 -3
31 -48 117 -57 109 -4 -4 -6 -1 -3 7 2 7 -42 84 -99 170 -108 165 -121 183
-260 381 -212 301 -360 550 -419 708 -42 109 -41 197 2 410 4 18 2 32 -3 32
-5 0 -39 -30 -74 -67z m879 -1738 c-3 -3 -9 2 -12 12 -6 14 -5 15 5 6 7 -7 10
-15 7 -18z"/>
<path d="M5532 2504 c3 -11 26 -86 51 -169 25 -82 67 -231 92 -330 26 -99 53
-192 61 -207 8 -15 47 -71 87 -125 40 -54 84 -116 97 -138 12 -22 46 -76 75
-120 29 -44 84 -143 123 -220 64 -128 71 -151 91 -265 60 -340 55 -326 209
-705 l89 -220 746 -3 747 -2 0 814 0 814 -27 34 c-65 77 -82 92 -161 139 -89
52 -152 71 -292 89 -137 17 -396 82 -690 175 -255 81 -447 134 -545 150 -22 4
-92 22 -155 41 -63 18 -180 47 -259 64 l-143 30 -82 76 c-93 87 -122 107 -114
78z"/>
<path d="M4357 1869 c7 -7 15 -10 18 -7 3 3 -2 9 -12 12 -14 6 -15 5 -6 -5z"/>
<path d="M4995 1617 c-38 -18 -82 -47 -98 -64 -16 -18 -45 -37 -65 -42 -21 -5
-52 -13 -70 -18 -32 -8 -36 -14 -78 -123 -24 -63 -44 -119 -44 -123 0 -5 -6
-23 -14 -40 -7 -18 -19 -45 -26 -62 -13 -31 -62 -174 -106 -308 l-25 -78 48
-43 c26 -24 51 -40 54 -35 3 6 19 -6 36 -26 22 -25 49 -41 94 -56 35 -12 80
-33 99 -48 19 -15 48 -35 64 -45 28 -18 29 -18 22 0 -7 17 -6 17 12 -1 11 -11
18 -23 16 -27 -6 -10 31 -19 50 -12 9 3 13 11 9 18 -3 6 3 3 15 -8 12 -10 19
-23 15 -29 -3 -5 -1 -7 5 -3 6 3 14 1 17 -4 4 -6 17 -15 29 -20 19 -7 25 -23
39 -97 10 -48 26 -117 37 -153 14 -48 15 -60 5 -46 -8 11 -15 25 -15 30 0 6
-5 4 -10 -4 -5 -8 -7 -23 -4 -32 3 -10 1 -18 -5 -18 -6 0 -11 8 -11 19 0 13
-7 19 -26 19 -15 0 -30 6 -35 13 -4 7 -11 10 -16 6 -4 -5 -1 -12 6 -16 11 -7
11 -19 2 -60 -18 -84 -18 -84 42 -77 28 3 58 6 65 7 6 1 12 13 12 25 0 24 17
41 28 29 4 -4 1 -10 -5 -12 -7 -3 -13 -9 -13 -14 0 -4 7 -6 16 -2 10 4 17 -1
21 -16 5 -21 8 -21 294 -21 159 0 289 2 289 5 0 3 -14 33 -31 67 -59 116 -199
558 -199 628 0 25 -9 65 -20 89 l-20 43 24 29 24 28 15 -22 c8 -12 49 -58 92
-102 56 -58 86 -100 110 -152 24 -51 39 -73 52 -73 16 0 18 10 18 97 0 62 4
98 12 100 7 3 8 16 1 46 -9 43 -18 64 -58 132 -13 22 -37 65 -53 95 -33 60
-59 101 -110 170 -57 79 -122 165 -133 177 -29 31 -182 158 -219 182 -22 14
-42 28 -45 31 -7 7 -43 29 -60 37 -8 4 -17 9 -20 12 -12 13 -51 31 -67 30 -10
0 -49 -15 -88 -32z m-35 -57 c0 -19 -18 -19 -23 -1 -3 14 -1 18 9 14 8 -3 14
-9 14 -13z m860 -732 c0 -5 -4 -8 -10 -8 -5 0 -10 10 -10 23 0 18 2 19 10 7 5
-8 10 -18 10 -22z m-3 -40 c-3 -8 -6 -5 -6 6 -1 11 2 17 5 13 3 -3 4 -12 1
-19z m-747 -678 c0 -5 -2 -10 -4 -10 -3 0 -8 5 -11 10 -3 6 -1 10 4 10 6 0 11
-4 11 -10z m60 -68 c0 -4 -9 -8 -20 -9 -11 -1 -18 2 -15 8 7 11 35 12 35 1z"/>
<path d="M4590 574 c0 -56 22 -148 46 -195 25 -51 44 -70 44 -44 0 15 -78 256
-86 264 -2 2 -4 -9 -4 -25z"/>
<path d="M4976 455 c-9 -26 -7 -32 5 -12 6 10 9 21 6 23 -2 3 -7 -2 -11 -11z"/>
</g>
</svg>
