<svg xmlns="http://www.w3.org/2000/svg" width="1066.667" height="1066.667" viewBox="0 0 800 800"><path d="M214 2.8c-1.9 1.6-5.1 3.7-7 4.8-1.9 1-3.7 2-4 2.2-.2.2.2.7 1 1.2 1.1.7.3 1-2.8 1-3.6 0-4.4-.4-5.2-2.4-.5-1.3-.6-3.4-.3-4.6.4-1.5.2-2.1-.5-1.6-.6.3-1.4 2.1-1.7 3.9-.4 1.7-1.4 3.9-2.1 4.8-.9 1-1.3 3.2-1.1 5.7.2 2.2 0 3.9-.4 3.6-.4-.2-1.3 1.1-2 3s-1.6 3.3-2 3c-.4-.2-1 .4-1.3 1.3-.3 1-1.9 2.4-3.5 3.1-4 1.8-11.8 11.9-17.6 22.8-2.6 4.9-5.1 9.1-5.6 9.2-.5.2-.7.7-.4 1.2.4.7-3.2 10.2-5.5 14.3-.7 1.1-.7 2.4-.2 3.3.7 1.2 1.2.5 2.1-3.1 1.3-5.4 1.7-5.4 2.4-.5.3 1.9.8 5.1 1.1 7 .4 1.9.4 2.9 0 2.2-1.1-2.3-2.1-1.2-1.6 2 .3 2 0 3.5-.9 4.2-.8.6-2.5 3.5-3.8 6.4-1.6 3.3-4.2 6.7-7 9-2.5 2-5.8 4.7-7.2 6-4 3.5-11.9 7.8-22.3 12.2-2.7 1.1-4.7 2.3-4.3 2.6.3.3 3.4-.6 6.8-2 3.5-1.4 6.5-2.4 6.6-2.2.6.5-14.7 10-18.4 11.5-1.8.7-3 1.7-2.7 2.3.3.5 4.4-1.2 9-3.7 4.7-2.5 9-4.3 9.6-3.9s.8.3.5-.3c-.7-1.1 2-3.9 2.9-3 .3.2 1.5-.5 2.8-1.7 5.8-5.6 15.6-13.1 15.6-12.1 0 1.1-9.6 13.1-18.9 23.7-1.8 2.1-2.9 3.8-2.3 3.8.5 0 2.7-2.1 4.8-4.8 5.3-6.5 8.7-9.8 9.7-9.4.5.1.6-.2.3-.6-.3-.5.3-1.7 1.3-2.6 1.4-1.3 2.1-1.4 2.7-.5.5.8.3 1-.6.4-1-.6-1.2-.4-.7.9.4.9.3 1.5-.2 1.1-.5-.3-2.1 2.7-3.6 6.5-1.5 3.9-3.5 7.5-4.5 8-1.8 1-2.6 2.6-3.4 6.7-.2 1-1.4 4.2-2.5 7.1-1.2 2.9-2.1 5.5-2.1 5.7 0 .7 3.4-.8 4.8-2.2 1.9-1.8 2.9-1.6 3.5.7.5 2 2.7 2.9 2.7 1.1 0-1.3 7.9-5.3 9.1-4.6.5.3.6-.1.3-.9-.8-2.2 1.3-2 2.5.1.6 1.1 1.1 1.3 1.1.5s.5-1 1.2-.6c.8.5.9.2.5-.9-.3-1-.2-1.7.3-1.7s.7-.7.4-1.5c-.4-.8-.2-1.5.3-1.5s1 1.8 1.2 4.1c.1 3-.1 3.9-1 3.3-.9-.5-1-.2-.6 1 .8 2-1.9 12.2-3.4 13.2-.6.3-3.1 1-5.7 1.4l-4.7.9 5.8-.2c3.1-.1 5.7.2 5.7.6s-.7 2.2-1.6 3.9c-.9 1.6-1.1 2.7-.5 2.4 1.5-.9 1.5 6.9 0 9.6-.8 1.5-.8 1.9 0 1.4 1.2-.8 1.6 4.7 1.4 16.9-.1 5.6 0 6.3.6 3.2 1.1-5.3 2.5-6 1.8-.9-.3 2.4-.1 4 .4 3.6.5-.3 1 1.2 1.1 3.3s.2 4.5.3 5.3c.1 1.8 2.4 5.9 2.5 4.5 0-.6.5-.3 1 .5.9 1.3 1 1.3 1.1 0 0-1 .3-.8.9.5.8 1.8.9 1.8 1-.5l.2-2.5.8 2.5c1.2 3.6 1.2 6.2 0 5.5-.6-.4-.7-1.1-.4-1.7.4-.7.2-.8-.4-.4-1.2.7-.5 3.6.9 3.6 2 0 .7 3.8-2.1 6.5-1.6 1.6-2.8 3.1-2.5 3.3.2.2 1.5-.9 2.9-2.4l2.6-2.9-.6 4.5c-.4 2.5-1.1 6.5-1.6 9s-.9 5.3-.9 6.2c0 2.8-2.6 2.1-3.8-1-1-2.6-1-2.6-.7.8.2 1.9 1.1 5.5 1.9 7.9.9 2.5 1.3 4.9 1 5.4-.3.6-.1.7.5.3.7-.4 1.2-.2 1.2.3 0 .6-.4 1.1-.8 1.1-.5 0-1.7.7-2.8 1.6-1 .8-1.4 1.3-.7.9 2.1-1 6 .6 7.1 3 .9 2 .9 2.3-.4 1.8-1.2-.4-1.4.1-.9 2.5.6 3.9-2.5 6.3-5.2 4-1.5-1.2-1.5-1.1-.2.9.8 1.3 1.7 2.3 2.1 2.3.5 0 .8.6.8 1.4 0 2-7.1 4.7-8.8 3.4-.7-.6-1.5-.8-1.9-.4-.3.3 0 .6.7.6s1.1.3.7.6c-1.2 1.2 1.7 3.3 3.1 2.2 1.7-1.5 1.5 0-.3 1.8-.8.9-1.5 1.1-1.5.5s-.7-1.1-1.6-1.1c-1.4 0-1.4.1 0 1.6 1.8 1.7 2.2 3.9.6 2.9-.6-.4-.7.1-.3 1.1.5 1.5.7 1.5 1.5 0 .5-.9 1.4-1.6 1.9-1.6.6 0 .7.5.4 1.1-.4.5.1 1.8 1.2 2.7 2.1 1.9 2.8 4.2 1.3 4.2-.5 0-1 .7-1 1.5 0 1.7 2.5 2 3.5.5.3-.6 1.5-1 2.6-1s1.7.4 1.4 1c-.3.5.1 1 .9 1s1.8.5 2.2 1.2c.5.7.3.8-.6.3-1-.6-1.2-.4-.7.9.4 1.1-.6 3-3.1 5.9-3.8 4.4-2.7 3.7 4.6-2.7 2.8-2.4 5-3.5 6-3.1.8.3 1.9 0 2.3-.6.4-.7.7.5.7 2.6s.6 4.2 1.4 4.6c1.1.7 1 1.1-.2 1.9-1.3.8-1.3 1.1-.1 2.2 1 1 1.2 1 .7 0-.4-.6-.2-1.2.3-1.2.6 0 1.1.7 1.1 1.6 0 2.9 5 11.9 9 16.3 4.8 5.1 6.6 5 2.1-.2-1.7-1.9-3.1-4.3-3.1-5.3 0-1.4-.3-1.5-.8-.6-.6.9-1.4 0-2.7-2.8-1.6-3.6-1.7-4.3-.4-5.1 1.2-.7 1.1-.9-.3-.9-2 0-2.6-1.6-3.2-8.8-.4-4.3-.2-5.6 1.4-7.2 3.4-3.4 8.4-2.3 7.4 1.6-.4 1.5-.2 2.4.5 2.4.6 0 1.1.8 1.1 1.9 0 1 .7 2.4 1.5 3.1 1.6 1.3 2.1 3.5.6 2.5-.5-.3-1.2-.1-1.6.5-.3.5.1 1 .9 1 1 0 1.3.6.9 1.7s-.3 1.4.5.9c.7-.4 1.4.4 1.8 2.1.3 1.5 2.2 7.2 4.1 12.6 2 5.4 3.3 10.1 2.9 10.4-.3.3.2 1.2 1.2 1.9 1.5 1.2 1.5 1.5.2 2.4s-1.3 1 0 1c.8 0 2.8 2.7 4.4 6 1.5 3.3 4.7 7.9 7.1 10.3 3.9 4 4.2 4.9 4.4 9.8 0 3 .5 5.5 1 5.7s.7 1.3.5 2.5-.2 1.7.2 1c.7-1.6 3.4-.5 3.4 1.6 0 .9.5 2.3 1.1 3.1.8 1.1.9.8.5-1.5l-.6-3 2 2.4c1.9 2.3 3.2 2.8 8.1 3.3 1.7.2 2.3 3.4.8 4.3-1.5 1-1 2.5.6 1.9 1-.4 1.5 0 1.5 1.5 0 1.2-.4 2.1-.9 2.1-1.1 0-2.4 6.7-1.6 8.1.5.6 1.2.6 2.3-.3 1.3-1.1 1.5-1 1 1-.4 1.2-.2 2.2.3 2.2s.9.8 1 1.7c0 1.1.3 1.3.6.5 1.1-2.7 2.3.2 2.3 5.4 0 3.1.4 5.4 1.1 5.4.6 0 .8.9.4 2-.3 1.1-.2 2 .4 2 .5 0 1.1.6 1.4 1.2.2.7.3.5.2-.4-.2-1 .1-2.1.6-2.4s.9-1.3.8-2.2c0-1.4-.2-1.3-.9.3-.8 1.9-.9 1.9-.9-.3-.1-3.3 2.3-2.3 2.7 1.1.2 1.5.8 2.7 1.3 2.7 1.2 0 1.1-1.7-.2-4.2-.6-1.1-.7-2.3-.3-2.7 1.3-.9 1.4-4.5.2-5.2-.7-.4-.7-.9.1-1.3.6-.4 1.5.3 2 1.7.6 1.4 1.5 2.7 2.1 2.9.7.2.9 1.4.5 3.1-.4 1.5-1 2.5-1.4 2.2-.5-.2-.8 2.5-.8 6.1 0 3.7.4 5.9.9 5.2.4-.7.8-2.2.8-3.3.1-1.9.1-1.9 1.4-.3 1.7 2.3 2.6 2.3 2.6-.1 0-3.7 1.6-3 1.7.7.1 2-.4 4-1 4.4-.9.6-.9.8.1.8.6 0 1.2.5 1.2 1 0 .7-.6.7-2 0-2.3-1.2-2.6-.5-.6 1.5 1.1 1.1 1.8 1.1 4.1-.1 4-2 4.8-1.8 4 1.3-.6 2.4-.5 2.5 1.1 1.2 1.6-1.2 1.7-1.2 1.1.3-.4 1.1-.2 1.7.5 1.5.7-.1 1.4.6 1.6 1.5.3 1.4-.3 1.8-2.5 1.8-2.4.1-2.6.2-1 1.1 1.3.7 2.2.7 3.1 0 1.6-1.3 4.2 1.1 3.1 2.9-.3.5 0 1 .7 1 2.1 0 7.5 9.1 8.3 14 2 12.5 8.4 32.9 13.5 43q11.1 21.9 28.5 34.5c6.8 4.8 25.7 14.5 45 23 7.2 3.1 18.2 7.9 24.5 10.7s18.9 8.9 27.9 13.5c14.1 7.3 16.8 8.4 18.4 7.3 1.1-.6 1.6-.7 1.3-.2-.3.6.5.9 1.9.8 1.4 0 2.5-.2 2.5-.3 0 0-1.5-1-3.2-2.2-2.1-1.3-2.7-2.1-1.6-2.1.9 0 2.7 1.2 4 2.7 1.9 2.3 3 2.8 6.3 2.6 4.4-.2 16.7 3.6 15.9 4.9-.3.4.2.8 1 .8.9 0 1.6.5 1.6 1 0 1.2-4.9.3-6.4-1.1-1.3-1.2-5.9-1.1-5.1 0 1 1.7-1.1 2-3.9.6-1.4-.8-3.4-1.1-4.3-.8-1.1.4-1.4.3-.9-.5.8-1.3-1.6-2.6-3.5-2-1.4.5 5.7 5.1 7.7 5.1.8 0 1.4.3 1.4.7 0 1.1 5.1 3.1 6.2 2.4.6-.4.8-.2.5.3-.9 1.5 2.4 2.6 3.7 1.3.8-.8.7-1.4-.4-2-1.3-.8-1.3-1 .2-1 .9 0 2.5-.3 3.5-.6 1.6-.5 1.6-.4-.1 1s-1.7 1.6-.4 1.6c.9 0 2-.5 2.3-1 .4-.6 1.1-.7 1.7-.4 1.1.7-2.8 4.3-4.7 4.4-.5 0-.3-.5.5-1.1 1-.7 1.1-.9.2-.7-.8.2-1.4.7-1.5 1.1-.2.9 16.6 8.7 18.7 8.7.7 0 4.1-1.8 7.5-4.1 4.4-2.9 6.8-3.9 8.4-3.5 1.9.4 3.1-.5 6.7-5.2 2.5-3.1 6.2-7.5 8.2-9.7 2.1-2.3 5.6-8.2 7.9-13.1 3-6.3 4.4-8.3 4.7-6.9.7 3.1 6.8-12.8 10.6-27.8 4.5-17.7 7.2-34.4 6.7-41.5-.2-2-3.2-1.4-3.8.8-.6 2.3-2.3 2.7-2.3.6 0-.8-.5-2.7-1.1-4.3-1.3-3-1.4-8.3-.4-18 .6-5.7 1.1-6.7 7.3-14.5 18-22.3 32.3-49.4 39.2-74.2 1.5-5.6 3.1-12 3.5-14.3.4-2.4 1.1-4.5 1.6-4.9.5-.3.9-1.3.9-2.2s1-2.8 2.1-4.2 1.7-1.8 1.3-1c-.5 1.2-.4 1.2.5.4 1-.9 1-1.7.1-3.4-1-1.8-.9-2.1.1-1.5.9.6 1.1.3.6-.8-.3-1-.3-1.7.2-1.7 1.3 0 3-4.7 2.5-7.1-.4-2.2-.4-2.3.6-.4.9 1.8 1 1.7.6-.8-.2-1.5.1-3 .5-3.3.9-.5 1.3 1.4 1 5.1-.2 1.7 0 1.7.8.5.6-.8 1.1-4.7 1.1-8.5v-7l3.8-2.4c2-1.2 5.2-4.2 7-6.5 3.7-5 4.3-7.3 1.3-5.4-1.1.7-1.8 1.6-1.5 2s-.3.5-1.2.1c-1.6-.6-1.5-.8.4-1.6 2.6-1.2 2.9-3.5.5-3.3q-1.8.15-1.5-1.8c.2-1.1-.1-1.5-.8-1.1s-.9 1.8-.6 3.1c.5 1.7.2 2.4-.8 2.4-.8 0-1.7.7-2 1.6-.9 2.4-.7 2.8.8 1.5 1-.9 1.6-.8 2.6.4 1.1 1.3.9 1.5-1.3 1.5-1.4 0-2.8.6-3.1 1.2-.5 1-.7 1-1.2 0-.3-.6-1.2-1.2-1.9-1.2s-1.6-.8-2-1.8c-.5-1.4-.4-1.5.6-.5 2.3 2.3 3.4 1.4 3.4-2.7 0-3.7 0-3.8-1.2-1.7s-1.3 2-.7-.8c.4-1.7 1.1-4.1 1.6-5.4.5-1.5.5-2.8-.2-3.5-.5-.5-.9-2.1-.9-3.6.1-2 .2-2.1.6-.5.9 3.6 2.3 4.1 2.3.7V325l3.7 2c2.1 1.1 4.3 2 5 2s1.5 1.6 1.9 3.5c.7 3.9 1.9 4.6 2.7 1.5.3-1.1.1-2-.4-2s-.9-.5-.9-1.1.6-.9 1.3-.6c1 .4 2.5-2.7 5.2-10.1 2.1-5.9 4.2-11.2 4.5-11.7.4-.6 1.5-3.5 2.5-6.5s2.1-6 2.5-6.5c.4-.6 1.1-2.5 1.5-4.3.3-1.7 1-3.2 1.4-3.2.3 0 1.5-2.8 2.4-6.3 2-6.7 4.6-12.8 6.1-13.9 1.2-.8 1.3-7 .1-11.8-.5-2.4-.4-3.2.3-2.5.5.5 1.2 1.9 1.5 3 .4 1.9.5 1.8.6-.2 0-1.2-.6-2.8-1.4-3.6s-1.1-1.7-.8-2.1c.9-.8 3.3 1.4 3.3 3 0 .7.5 1.6 1.2 2q1.05.75.3-.6c-.5-.8-.1-1.8 1-2.7 1.4-.9 1.5-1.3.4-1.3-.8 0-2.5-1-3.9-2.1s-1.9-1.8-1.2-1.4c.8.4.2-1.1-1.3-3.3-2-3-2.4-4.5-1.7-5.9.5-1 .7-2.5.5-3.3s.6.3 1.8 2.5 2.2 4.8 2.3 5.8c.1.9.5 1.7.9 1.7.4-.1 1.7.9 2.8 2.2 2 2.2 2 2.2 0-1.2-4.4-7.3-7.2-14.4-6.7-16.6.3-1.2-.1-4.1-1-6.5-1.6-4.7-1.1-10.5.7-7.8 1 1.3.5-1.2-.8-4.9-.3-.6 0-1.2.6-1.2s1.1-.5 1.1-1.1c0-.5-.5-.7-1.1-.4-.7.5-.9-3.2-.8-11.9.2-6.9.6-12.1 1-11.4s.9.4 1.2-.8.5-.7.6 1.3c0 1.7.4 3.4.9 3.7.4.2.6-1.4.4-3.6-.3-2.2.1-4.5.7-5.1.8-.8 1.1-.6 1.1.8 0 1 .2 1.6.5 1.3 1-.9-1.8-10.7-2.8-10.1-.7.4-.8-.1-.3-1.2.3-1 0-3.9-.8-6.4-.9-2.5-1.4-5.5-1.1-6.6.2-1.1.4-2.2.4-2.4.1-.2.9.3 1.8 1 1.7 1.3 1.7 1.3 0-1.3-.9-1.5-1.7-3.8-1.7-5 0-1.7.2-2 .9-.9.5.8.7 2.1.4 3-.2.9.3.5 1.2-.9 1.2-2 1.5-2.1 1.1-.5-.8 3 .7 8.8 2.4 9.3 1.2.4 1.3.2.4-.9-.7-.8-1.5-3-1.8-4.9-.6-2.8-.5-3.2.4-2 1 1.3 1.1 1.2.6-.3-.3-1-.6-2.3-.6-2.8s-.7-.9-1.5-.9c-1.6 0-1.7-.1-1.9-4.2-.1-2 .1-2.4 1-1.7.8.7 1.4.6 1.7-.3q.6-1.35.6.3c.1.9.8 2.2 1.6 2.9 1.8 1.5 2-.1.3-1.9-1.1-1-.9-1.1.7-.6 1.1.3.4-.3-1.5-1.3-1.9-1.1-3.6-2.8-3.7-3.9-.2-1-.6-3.3-.9-5.1-.8-4.2.7-4.1 3 .3 1.1 1.9 2.1 3.4 2.2 3.2.2-.2-.3-2.6-1-5.4-.8-2.9-1.2-5.4-.9-5.7.3-.2-.5-.9-1.6-1.5-1.1-.7-2.8-2.5-3.7-4.2-.8-1.7-1.1-2.8-.4-2.4.6.4 1.5 1.7 2 2.9.4 1.3 1.5 2.3 2.4 2.3q1.65 0 .6-1.2c-.5-.7-.6-1.6-.2-2 .4-.5.2-.5-.4-.2-.6.4-1.6-.5-2.3-1.9-.6-1.4-1.4-2.3-1.9-2.1-.4.3-.8-5-.9-11.7s-.7-15.1-1.4-18.6c-.6-3.6-1.3-7.2-1.4-8s-.7-2.6-1.2-4-1.8-4.8-2.8-7.7c-2.5-7-10.2-18.1-15.3-21.9-2.2-1.8-3.8-3.5-3.4-4 .4-.4.2-.4-.4-.1-.6.4-3.3-1.3-6-3.8-2.6-2.5-4.1-4.5-3.3-4.5.9-.1.4-.9-1.3-2.4-2.3-2-2.5-2.6-1.3-3.6.8-.6 1.9-.9 2.5-.5 1.3.8 1.3-.1 0-2.6-.6-1-.8-1.9-.6-1.9.3 0 3.8 2.5 7.7 5.5 10.1 7.8 10.6 6.8.7-1.2-9.7-7.9-18.7-13.5-20.1-12.6-.5.3-1.9-.5-2.9-1.8-1.1-1.3-1.6-1.7-1.2-.9s.3 1.2-.1.7c-.5-.4-1-2.4-1.2-4.5L586 .5l2 2.5 2.1 2.5-1.2-2.6C588.1 1 587 .2 585.3.2c-1.4 0-2 .3-1.5.7.7.4.7 1.2.3 2-.7 1-1 .9-1.6-.8l-.6-2.1H401.3C259.1 0 220.4.3 219.1 1.3c-1.2.9-1.3.9-.7-.1 1.2-2.1-.8-1.3-4.4 1.6m2.5 3.1c-.3.6-1.1 1.1-1.6 1.1s-.4-.6.3-1.4c1.4-1.6 2.4-1.3 1.3.3m-4.9 2.6c-1.1.8-2.2 1.2-2.5.9-.6-.6 1.9-2.4 3.4-2.4.6.1.1.7-.9 1.5m383.8 7.9c1.3 1.2 3 2.2 3.7 2.4.8.1.6-.4-.5-1.3-2.6-2-1.5-2.8 1.2-.9 3.1 2.2 2.7 2.9-1.7 3.1-3.5.2-4 0-4.6-2.4-.3-1.5-.9-2.3-1.3-1.7-1.1 1.4-3.2 1.5-2.6.1.7-2 3.1-1.7 5.8.7m-391 .4c.2.4.1 1.4-.4 2.2-.7 1.1-1.1 1.1-2.4.1-.9-.7-1.3-1.7-1-2.2.7-1.1 3.1-1.2 3.8-.1m-3.4 4.3c0 .5-.4.9-.8.9-.5 0-.9-.7-.9-1.5s.4-1.2.9-.9c.4.3.8.9.8 1.5m396.7 2.1c.2 1.6 0 1.6-2.3.2-2.9-2-2.9-1.9-.1-1.9 1.5 0 2.4.6 2.4 1.7m3.8-.2c-.3.5-1 1-1.6 1-.5 0-.9-.5-.9-1 0-.6.7-1 1.6-1 .8 0 1.2.4.9 1m-375.8 4.2c-.3.8-.6.5-.6-.6-.1-1.1.2-1.7.5-1.3.3.3.4 1.2.1 1.9m-13.1 2.5c-1 1-1.9-.5-1-1.8.6-1.1.8-1.1 1.2 0 .2.7.1 1.5-.2 1.8m-23.2 3.7c-1 .8-2.1 1.2-2.3 1-.3-.2.4-1.1 1.5-1.8 1-.8 2.1-1.2 2.3-1 .3.2-.4 1.1-1.5 1.8M183 33c0 1.5-3.3 5-4.8 5-.7 0-1.1.4-.8.8.3.5-.1.9-.9.9-2 0-2-.1 1.6-4.2 3.1-3.5 4.9-4.4 4.9-2.5m414.1 4.1 2.4 2-3-1.7c-3.9-2.4-4-2.4-2.8-2.4.6 0 2.1.9 3.4 2.1m1.7 4.9c2.3 1.6 4.5 3 4.8 3 .9 0 8 6.3 7.6 6.8-.4.4 4.5 4.3 5.5 4.3.4 0 1.6.8 2.6 1.7 2.3 2.1 4.2 5.3 2.8 5-.5-.2-.9 0-1 .4-.1.5.2.8.6.7 1.3-.1 2.2 3.5 2.2 9l.1 5.4-2.4-2.2c-2.9-2.7-5.6-8.1-6.1-11.9-.1-1.5-.8-2.6-1.4-2.5-.6.2-1.1-.6-1.1-1.8s-.8-2.3-1.8-2.6c-1-.2-2.6-1.7-3.7-3.3s-3-3.3-4.2-3.9c-1.3-.6-2.2-1.5-2.1-2.1.2-.5-1.7-2.7-4.2-4.9-5.3-4.7-4.1-5.4 1.8-1.1m7.2.1c1.7 1.3 1.8 1.7.5 1-3.3-1.7-5.1-3.1-4-3.1.6 0 2.1 1 3.5 2.1M191.2 45c-.2 1.8-1.3 3.5-2.6 4.2-1.1.6-2.4 1.6-2.8 2.2s-.6-.1-.4-1.6c.2-2.2 4.6-7.8 6-7.8.1 0 .1 1.4-.2 3M173 45c-.6 1.1-1.3 2-1.6 2-.2 0 0-.9.6-2s1.3-2 1.6-2c.2 0 0 .9-.6 2m427.1 1.7c1.3 1.6 1.2 1.7-.3.4-1-.7-1.8-1.5-1.8-1.7 0-.8.8-.3 2.1 1.3m-406.8.8c-.3.9-.8 1.4-1 1.1-.3-.3-.2-.9.2-1.5.9-1.6 1.5-1.3.8.4M169 48.9c-.5 1.1-1.5 2.3-2.2 2.7-.7.5-.8.2-.3-.7 2.1-3.7 4.4-5.5 2.5-2m22 1.6c0 .2-1 .9-2.2 1.5-2.2 1.1-2.2 1-.4-.4 2.1-1.7 2.6-1.9 2.6-1.1m416 5.7c0 .6-.6.5-1.5-.2-.8-.7-1.5-1.4-1.5-1.6s.7-.1 1.5.2c.8.4 1.5 1.1 1.5 1.6m3.9 4c3.8 6.2 4.4 7.2 3.5 6.3-2.3-2.3-6.4-8.5-5.7-8.5.5 0 1.4 1 2.2 2.2m18.5 2.4c.3.8.2 1.2-.4.9s-1-1-1-1.6c0-1.4.7-1.1 1.4.7m-468.6 5.8c-.6 1.4-1.6 2.6-2.1 2.6-1.4 0 .1 1.3 1.8 1.6.7.1 1.6-.5 2-1.4.5-1.3.8-1.2 2.1.7 1.3 1.8 1.3 2.5.3 3.7-1.2 1.4-1.4 1.4-2-.3-.7-1.6-.8-1.6-.8-.1-.1 1-.5 1.8-1.1 1.8-.5 0-.7-.7-.4-1.5.5-1.1.2-1.3-.9-.9-.9.3-1.8 1.3-2 2.2-.2 1-.2.2 0-1.6q.45-3.45-.6-2.7c-.7.4-.7-.2.1-1.9.6-1.4 1.5-2.6 2-2.6.4 0 .7-.3.7-.8-.1-.4-.1-1.6 0-2.7.1-1.8.3-1.8 1.1-.3.7 1.1.6 2.5-.2 4.2M627 73.2c0 .5-.4.8-1 .8-.5 0-1-1-1-2.3 0-1.8.2-1.9 1-.7.5.8 1 1.8 1 2.2m-.3 3.3c-.4.8-.2 1.7.3 2 1.5.9 1.2 4.2-.5 4.9-1.3.5-1.7 0-1.4-2 0-.4-.5-1.1-1.3-1.5-.8-.5-.9-.9-.2-.9s1.4-.9 1.7-2 .8-2 1.2-2 .5.7.2 1.5m-465.1 7c-.6 1.8-3.6.9-3.6-1.1s3.4-3.7 3.8-1.8c.2.8.1 2.2-.2 2.9m461.2-1c-.3.3-.9-.2-1.2-1.2-.6-1.4-.5-1.5.5-.6.7.7 1 1.5.7 1.8m11.6 8c.4 3.7.3 4.2-.3 2-.8-2.9-.9-2.9-1.1-.5-.1 1.4-.2 3.2-.1 4 .2 1.3.1 1.3-.8 0-.5-.8-.7-1.8-.5-2.2.3-.4-.3-2.1-1.2-3.7-1.5-2.5-1.5-3.3-.4-6.1l1.3-3.2 1.3 2.3c.6 1.3 1.5 4.7 1.8 7.4m-330.7-5.3c-.3.8-.6.5-.6-.6-.1-1.1.2-1.7.5-1.3.3.3.4 1.2.1 1.9m21.3 9.1c0 1.2-2.5-1.4-3.8-4-.7-1.2-1.2-2.8-1.2-3.5 0-1.3 4.9 6.1 5 7.5m2.9-6.9c1 .6 1.2.5.7-.2-.4-.7-.2-1.2.5-1.2.6 0 .9.8.7 1.8-.3 1 .1 2.7.8 3.7.8 1 1.4 1.4 1.4.9 0-.6-.4-1.4-.9-2-.5-.5-.5-1.8-.1-2.9.7-1.9.7-1.9 1.5.4.4 1.3 2 3.5 3.6 4.9 2.4 1.9 2.8 2.9 2.4 5.5-.7 3.6-1.3 4.7-2.6 4.7-.6 0-.7-.5-.4-1 .4-.6.3-1-.2-.9-2.4.4-3.6-.6-6.7-5.4-5.3-8.3-5.6-11.3-.7-8.3M626 88.5c0 1.4-.4 2.5-1 2.5-1.1 0-1.4-3.3-.3-4.3 1.1-1.1 1.3-.8 1.3 1.8m-316.8 4.7c-.6.6-.8 1.7-.5 2.4.4 1 0 1.2-1.3.7s-1.5-.3-.9.7c.6.9.4 1.1-.4.6-.9-.6-1-2.1-.6-5 1-5.7 1.6-6.3 3.2-3.1 1 1.8 1.1 3.1.5 3.7m9.4-.7c.4.8 1.1 1.2 1.7.8s.8 0 .4 1c-.3.9-.2 1.6.2 1.4 1.2-.3 10.9 14.7 11.7 18.1.4 1.5 1.3 3.3 2.2 3.9 2.7 2.2-1.4 2.8-4.6.7-1.5-1-2.9-1.9-3.2-1.9-1.5-.2-5.1-2.7-4.6-3.2.3-.4 1.4.1 2.3.9 1.2 1.1 2.5 1.3 3.8.8 1.7-.7 1.7-.9.3-.9-1-.1-2.6-.8-3.7-1.8-1.1-.9-3-1.7-4.4-1.9-2.8-.3-9.7-7-9.6-9.3 0-1 .2-1.2.6-.3.2.6.9 1 1.3.7.5-.3.7-1.2.4-2-.4-.8-1.1-1.2-1.7-.8q-.9.45-.3-.6c.6-.8 1.2-.9 2-.2 1 .8 1.1.3.8-2-.6-4.1 3.1-6.9 4.4-3.4m313.9 7.9c1 2.8 2 5.7 2.3 6.5.4 1 .1 1.2-.9.7-.8-.4-.6-.1.4.7.9.8 1.7 2 1.6 2.8 0 1-.2 1.1-.6.1-.2-.6-.9-1.2-1.4-1.2-.6 0-.7.6-.3 1.2.4.7.4 1 0 .6-.4-.3-.8-1-.8-1.5 0-.4-.4-1.6-1-2.6-.6-1.2-.6-2.3.1-3.1.8-.9.7-1.3-.4-1.3-.8 0-1.2.4-.9.9.3.4 0 .8-.6.8-.7 0-1-.7-.7-1.5.7-1.6-1.6-6.7-2.7-6-.3.3-.2-.1.4-.7 1.3-1.5 1.3-4.1 0-3.3-.6.4-.7-.1-.3-1.1.5-1.4.8-1.4 2.3.6.9 1.2 2.5 4.6 3.5 7.4M346 95c1 0 2.5 1.1 3.4 2.5s3.7 4.4 6.1 6.6c2.5 2.3 4.5 4.7 4.5 5.3 0 .7 1.6 1.8 3.5 2.5 3.3 1.2 4.8 3.1 2.4 3.1-1.7 0-12.3-7.7-17.5-12.8-1.3-1.2-2.8-2.2-3.4-2.2-.5 0-1-.9-1-2.1 0-1.1-.4-1.8-.9-1.5-.5.4-.7-.4-.3-1.6.3-1.2.7-1.7 1-1 .2.6 1.2 1.2 2.2 1.2m-68.1 2.6c.4-.3.8.1.8.9 0 2-2.6 1.9-3.3 0-.4-.8-1-1.3-1.4-1-.5.3-.7-.3-.5-1.2.2-1 .4-2 .4-2.3.1-.2.8.6 1.7 1.8.8 1.2 1.9 2 2.3 1.8m75.4 1.1c-.4 1-.2 1.4.4 1 1.1-.7 7.7 6.3 6.8 7.1-.9.9-8.8-7.6-8.1-8.7 1.1-1.7 1.6-1.3.9.6m-4.3 6.7c0 .1-.9.2-2 .2-1 0-1.7-.2-1.5-.4s-.5-1.3-1.6-2.5c-3.2-3.5-2.1-3.9 1.6-.6 1.9 1.8 3.5 3.3 3.5 3.3m-13.8-1.5c1.1 1.1 1.9 2.4 1.7 2.9s-1.4-.4-2.7-2c-2.7-3.2-2.1-3.7 1-.9m9.2 2.1c1.4 2.2 2.2 4 1.7 4-.6 0-1.3-.4-1.6-1-.7-1.2-4.5-3.3-4.5-2.5 0 .2 1.8 1.7 4 3.1 2.2 1.5 3.7 3.1 3.3 3.7-.3.6-.1.7.5.3.6-.3 1.6.3 2.2 1.4.8 1.6.8 2.2-.4 2.6-1.6.6-6.6-2.3-6.6-3.9 0-.6-.3-.7-.7-.4-.7.8-3.3-1.1-3.3-2.5 0-.5.6-.6 1.3-.1 2.5 1.6 4.2 1.2 1.9-.5-2.6-2-4-8.2-1.8-8.2.7 0 2.5 1.8 4 4m12.8 5.7c2 1.8 1.3 4.3-1.3 4.3-1.7 0-9.9-7.5-9.9-9.2 0-1 9 2.9 11.2 4.9m9.8-1.5c0 .5-.6.6-1.2.1-.7-.4-1.7-.8-2.2-.8s-1-.8-1.2-1.7c-.2-1.6 0-1.6 2.2-.1 1.3.8 2.4 2 2.4 2.5m4.1-2.5c1.3 1.6 1.2 1.7-.3.4-1-.7-1.8-1.5-1.8-1.7 0-.8.8-.3 2.1 1.3m-209.4 3.5c-.3.8-.6.5-.6-.6-.1-1.1.2-1.7.5-1.3.3.3.4 1.2.1 1.9m129.6 1c.6 2.2 0 2.3-1.9.4-1.8-1.8-1.8-2.3 0-2.3.8 0 1.7.9 1.9 1.9m79.2-1.3c-.3.5.5 1.7 1.7 2.5 2.5 1.8 1.7 2.2-1.1.6-2.5-1.3-3.5-4-1.5-4 .8 0 1.3.4.9.9m-87.8 2.3c-.3.8-.6.5-.6-.6-.1-1.1.2-1.7.5-1.3.3.3.4 1.2.1 1.9m11.8-.2c-.4.6-.1 1.9.6 2.8 1.2 1.6 1.2 1.6-.5 0-1.6-1.4-1.5-3.8 0-3.8.3 0 .2.5-.1 1M160 117.2c-1.8 1.7-1.9 2.2-.8 3.6 1.2 1.5 1.1 1.6-.4.4s-1.6-1-1.1 2.2q.6 3.6-.6 3.6c-1.9 0-1.2-5.9 1.1-9.4 1.3-1.9 2.6-3.2 3.1-2.9s-.1 1.4-1.3 2.5m201-2.2c0 .5-.4 1-1 1-.5 0-1-.5-1-1 0-.6.5-1 1-1 .6 0 1 .4 1 1m-211 1.6c0 .8-.4 1.3-.9 1-.4-.3-1.6 1.1-2.5 3.2-1.6 3.7-2 4.4-6.5 11.5-3.3 5.3-2 5.7 1.4.5 3.7-5.6 4.4-3.4.9 3.1-1.9 3.8-3.2 5.1-4.8 5.1-2-.1-2-.1.4-1.5 2.2-1.3 1.6-2.1-1.3-1.6-1 .1 4.6-10.9 8.9-17.7 3.6-5.5 4.4-6.2 4.4-3.6m142.4.9c.8.8 1.9 1.5 2.5 1.5.5 0 1.3.5 1.6 1.1.4.5-1 .3-3-.5-2.1-.9-3.9-1.6-4.1-1.6s-.4-.5-.4-1c0-1.5 1.6-1.2 3.4.5m-21.4.5c0 .5.7 1 1.6 1 1 0 1.4.6 1.1 1.4-.4 1.1-.1 1.3 1.1.9 1.4-.6 1.5-.4.5.9-.7.8-1 1.8-.6 2.1.3.4.1 1.3-.6 2-.6.8-.8 2.3-.4 3.2.4 1.3.3 1.6-.6 1.1-.6-.4-1.1-1.5-1-2.4.3-3-.1-4.3-1-3.8-.5.3-1.1-.1-1.5-.9-.3-.8 0-1.5.7-1.6q1.35 0 0-.6c-1.5-.6-1.7-4.3-.3-4.3.6 0 1 .4 1 1m89.7-.4c-.3.3-1.2.4-1.9.1-.8-.3-.5-.6.6-.6 1.1-.1 1.7.2 1.3.5m-9.2 1.4c-1.7.7-1.6.9 1 1l3 .1-2.5 1.4-2.5 1.4 2.5.1c1.8 0 2.1.3 1.2 1.2s-1.9.5-4.2-1.7c-2.7-2.6-2.9-3-1.3-3.7 2.6-1 5.2-.9 2.8.2m-41 2.1c-.3.5 0 .6.8.4.7-.3 2.1.3 3.1 1.4 1.8 2 1.8 2-.5 1.6-4.4-.8-7-2.7-5.8-4.2 1.2-1.4 3.3-.8 2.4.8m61.9-.9c1.9-.1 7.6 2.4 7.6 3.3 0 .3-.9.5-2.1.5-1.1 0-1.7-.5-1.4-1 .3-.6-.1-1-1-1s-1.3.5-1 1.1c.4.6-.4.9-2.2.7-1.5-.2-3-.8-3.3-1.4-.3-.7-1.3-.8-2.5-.3-1.7.6-1.7.8-.2.8.9.1 1.7.5 1.7 1.1 0 1.5-3.6 1.2-5-.5-.9-1-.9-1.5-.1-1.5.6 0 1.1-.7 1.1-1.6 0-1.2.6-1.4 3.3-.8 1.7.4 4.1.7 5.1.6m15.6 0c0 1.1-2.2 1-3.9-.1-1-.7-.7-.9 1.2-.8 1.5.1 2.7.5 2.7.9m-61 1.3c1.4.8 2.1 1.4 1.5 1.4-.5 0-2.1-.6-3.5-1.4s-2-1.4-1.5-1.4c.6 0 2.1.6 3.5 1.4m-37.2 6.8c.8 3.2.8 3.2-4.1 4.9-2.7 1-5.3 1.5-5.8 1.2-1.1-.6-1.2-3.4-.1-3.4.4 0 1.6-1.3 2.6-2.8 1.1-1.5 1.6-2.4 1.1-2-.4.4-1.6-.2-2.6-1.4-2.4-2.7-2.4-3.1.1-1.8 1.9 1 2.4.6 2.1-1.3-.4-2.5 6 3.9 6.7 6.6m55.9-5.7c.7 2.1-2.5 2.3-4.3.2-1.8-1.9-1.8-2 1-1.6 1.6.1 3.1.8 3.3 1.4m15.3-1.2c0 .3-.4.8-1 1.1-.5.3-1 .1-1-.4 0-.6.5-1.1 1-1.1.6 0 1 .2 1 .4m-2.5 3.4c-.3.3-1.1 0-1.8-.7-.9-1-.8-1.1.6-.5 1 .3 1.5.9 1.2 1.2m-77.5 2.8c0 .7-.7 1.7-1.6 2.2-1.1.6-1.5 1.7-1.1 3.1.8 3.1-.9 2.5-2.3-.8-1.2-3.1-.5-7.5 1.1-6.6.5.4.9.1.9-.6 0-.8.4-.8 1.5.1.8.7 1.5 1.8 1.5 2.6m82.6-1.4c1 1.2 1.4 1.8.7 1.5-.6-.4-1.5-.2-1.9.4-.4.8-.3.9.4.5s1.2-.2 1.2.4.5.8 1.2.4c.8-.5.9-.2.5.9-.4 1-.2 1.6.5 1.4.6-.1 1.2.3 1.5 1s-.3.9-1.6.6c-1.2-.3-2.1-.9-2.1-1.4s-.8-.9-1.8-.9c-2.1 0-6.2-2.7-6.2-4.2 0-.6 1.3-.8 3-.6 2.3.3 3 .1 2.6-.9-.8-1.9-.2-1.6 2 .9m8.9-1.3c.3.5-.3 1.1-1.2 1.3-1.5.3-1.4.5.5 1 1.2.3 2 .2 1.7-.2-.9-1.5 1.3-2.1 5-1.4 2.9.5 3.3.9 2.4 2s-.6 1.4 1.6 1.4c2.3 0 2.5.3 1.6 1.4-1 1.2-.8 1.4 1.3 1.2 2.6-.3 5 1.4 8.8 6.2 1.5 1.8 1.5 2.2.3 2.2-.8 0-1.5-.5-1.5-1.1 0-.8-.4-.8-1.4 0-1.4 1.2-2.9 1-14.4-2.2-6.1-1.7-6.2-1.7-6.6-4.9-.1-1.3-.6-2.9-1-3.6-.9-1.5-.1-4.2 1.3-4.2.5 0 1.2.4 1.6.9m21 1.3c.7.8.5.9-.8.4-1-.3-2.7-.6-3.8-.6-1 0-1.9-.4-1.9-.9 0-1.2 5.2-.3 6.5 1.1m-242.4 1.5c-.4.9-.6 2.4-.4 3.4.3 1.1 0 1.9-.6 1.9-1.2 0-1.6-6.2-.5-7.3 1.2-1.2 2.4.4 1.5 2m183.9-2.3c0 .9-3 1.4-3.5.6-.4-.6.3-1 1.4-1 1.2 0 2.1.2 2.1.4m-40.4 4.5c-1.7 1.6-3.6.7-3.6-1.9 0-1.6.3-1.7 2.5-.7 2 1 2.2 1.4 1.1 2.6m58.1-1.3c-.7.7-3.7-.7-3.7-1.7 0-.6.9-.5 2.1.1 1.1.7 1.9 1.4 1.6 1.6m15.3-1c0 .8-.4 1.2-1 .9-.5-.3-1-1-1-1.6 0-.5.5-.9 1-.9.6 0 1 .7 1 1.6m24.5 0c1.3.5 1.4.8.3 1.5-1.9 1.2-2.5 1.1-3.2-.6-.6-1.6.3-1.9 2.9-.9m-63 2.4c-.4.6.6.7 2.7.3 1.8-.3 3-.2 2.6.2-.9 1 1.4 3.5 2.6 2.7.5-.3.6 0 .3.5-.7 1.2-7.4 0-10.9-1.8-2.2-1.2-1.5-2.9 1.3-2.9 1.1 0 1.7.4 1.4 1m19.1-.2c1.1.7 2.7 4.2 1.9 4.2-.7 0-4.5-3.9-4.5-4.5 0-.7 1.3-.6 2.6.3m69.1 19.6c5.4 5.1 6.1 6.2 5.2 8-.9 1.9-.9 1.9.4.4 1.3-1.7 1.5-1.7 3.3.3 2.1 2.4 7.4 5.4 8.9 5.1.6-.1 3 1.6 5.5 3.8 2.4 2.1 4.6 3.7 4.9 3.5.2-.3-.9-1.5-2.4-2.7-2.6-2-2.6-2.2-.9-2.9 1.4-.6 1.5-.8.3-.8-.8-.1-2.6-1.2-3.8-2.5-1.3-1.3-3.4-2.7-4.7-3-1.3-.4-2.4-1.4-2.4-2.2 0-1.4.2-1.5 1.8-.3 1.5 1.3 1.6 1.2.3-.4-.9-1.2-2.1-1.5-3.5-1.1-1.2.4-1.8.3-1.4-.1.3-.3-1.1-2.2-3.3-4.2-2.1-1.9-3.7-3.8-3.5-4.2.3-.4.1-1.3-.3-2-.5-.8-.8.1-.7 2.2 0 1.9.3 3.5.6 3.4s1.6.8 3 2c1.3 1.3 1.9 2.3 1.2 2.3-.6 0-1.7-.9-2.5-2s-1.6-1.8-1.9-1.5c-.8.8-19-18.4-18.4-19.4.4-.5-.2-1.2-1.1-1.4-1-.3-.6-.4.9-.4 1.5.1 2.6.6 2.5 1.2-.1.5.3.9 1 .8.6-.2 3.7 2.5 6.7 6 3.1 3.4 5.6 5.7 5.6 5 0-.6-.4-1.5-1-1.8-1.9-1.2-7.1-9.5-6.5-10.5.4-.6 1.6-.3 3.1.6 1.8 1.2 2.4 1.3 2.4.3 0-.8.6-.5 1.6.7.8 1 1.2 1.3.8.5-.5-1-.3-1.2.7-.5 1.4.8 1.9 1 3.8 1.3.5 0 1.2.9 1.4 1.8.3 1.1.5.7.6-1 .1-2.5.3-2.7 2.1-1.7 1.1.6 1.7 1.6 1.4 2.2-.4.6-.3.8.3.5 1.2-.8 4 2.2 7.8 8.5 1.6 2.6 3.2 4.5 3.5 4.3s.6.8.7 2.3c0 1.4.8 2.9 1.7 3.4s1.3 1.5.9 2.5-.2 1.4.5 1c1.2-.8 3.8 2.6 7.2 9.3 2.2 4.3 5.6 7.8 7.2 7.3.4-.2.5.3.2 1.1s0 1.7.7 2.2c.8.5 1 .3.4-.6-.5-.9-.4-1.1.4-.6.6.4 1 1.5.9 2.4-.2.9.2 1.6.9 1.5 1.2-.3 11.9 11.5 11.1 12.2-.2.3-2.6-2-5.2-5-2.6-3.1-5.1-5.3-5.6-5-.7.4-6.1-3.3-8-5.6-.3-.3-1.4-.9-2.5-1.3-1.2-.4-.4.7 1.9 2.8 2.1 2 4.2 3.6 4.6 3.6s2.7 1.8 5.1 4 4.7 4 5 4c.4 0 .9.6 1.2 1.4.4 1 0 1.4-1.3 1.1s-1.7.1-1.3 1.1c.9 2.3-2.8 3-4.5.8-1.4-1.9-1.5-1.9-.7.1.4 1.1.8 2.8.9 3.7 0 1 .4 1.8.9 1.8.4 0 .6.4.2 1-.7 1.1-3.5.1-5.5-2-.8-.9-1.1-1-.6-.2 1.1 1.6-1.1 3.5-3.2 2.7-1.3-.5-2.4.2-6.4 4-2 1.9-2.1 1.9-1.4.1.6-1.7.5-1.7-1.1-.5-.9.8-2.5 2.2-3.5 3.1-1 1-2.2 1.8-2.8 1.8-.5 0-1 .7-1 1.5s-.8 1.5-1.7 1.5c-1.7.1-1.7.1 0 1.4 2 1.5 2.3 3 .4 2.3-1.5-.6-2.1 3-.6 3.8.5.4.7 1.1.3 1.6-.3.5-1 .7-1.5.4-.5-.4-1.6.1-2.5 1-1.2 1.1-2.6 1.4-4.8 1-2.7-.5-2.9-.4-1.1.6 1.1.7 2.1 1.3 2.3 1.4.7.6-1.9 5.5-2.9 5.5-.6 0-.9-.6-.6-1.3.4-1-.2-1.3-1.9-.9-2 .4-2.1.6-.9 1.8.7.8 2.2 1.4 3.2 1.5 1.2.1 1 .3-.7.8-1.5.4-2.4 1.4-2.4 2.4.1 1.1-.6 1.7-1.9 1.7-1.1 0-1.7.3-1.4.6 1.4 1.4-1.6 4.4-5.4 5.4-4.8 1.3-19 .3-20.1-1.4-.4-.6-.8-.7-.8-.1-.1.5-.5 0-1-1.2-.5-1.3-1.5-2.1-2.2-1.9-.7.1-1 .1-.5-.1.4-.3.4-1 0-1.6s0-.8 1.1-.4c1.4.6 1.5.3.6-1.3-.9-1.7-4.1-2.6-7.2-2.1-1.1.1-.5-2.1.8-3.5.6-.7 1.9-1.4 3-1.6 1.7-.3 1.7-.4.2-1-1-.4-2.4-.1-3.2.7-1.3 1.3-1.5 1.1-2.1-1.6-.4-1.9-1.2-2.9-2-2.5-1.6.6-4.5-2.4-4.5-4.6 0-1.2-.6-1.5-2.2-1-1.4.3-1.9.1-1.4-.6.5-.8.2-1-.8-.6s-1.6.1-1.6-.9c0-.8-.8-2.1-1.7-2.8-1.5-1.2-1.6-1.2-1.1.8s.4 2.1-1.3 1.2c-1.1-.5-1.7-1.4-1.4-2 .4-.5-.1-.9-1.1-.9-1.3 0-1.4-.3-.5-1.3.8-1.1.5-1.6-1.4-2.5-1.4-.6-2.5-1.8-2.5-2.6 0-1-.7-1.2-2.2-.8s-1.9.2-1.3-.7c.5-1-.2-1.1-2.9-.7-2.2.4-3.6.2-3.6-.4 0-.7-.8-.6-2.2.1-1.7.9-2.3.9-2.6 0-.2-.6-.8-.9-1.3-.6-.5.4-.6 0-.3-.8s0-1.8-.7-2.3c-.8-.4-1-.3-.5.4.4.7.1 1.2-.8 1.2-.8 0-1.7.6-1.9 1.2-.7 1.8-2.5-.8-2.2-3.1.1-.9 0-1.1-.2-.4-.5 1.4-7.4 1.3-8.5-.2-.4-.6-.8-.2-.8.7 0 1-.5 1.8-1.1 1.8-.5 0-.7-.5-.4-1.1.5-.7-.7-.8-3.5-.4-2.5.4-4 .2-3.6-.3.3-.5-.6-.7-2-.4-2.2.4-2.5.9-1.9 3.1.3 1.4.2 2.1-.2 1.5-1.4-1.9-4.3-2.5-4.9-.9-.4.8-1 1.5-1.5 1.5-.4 0-.6-.7-.3-1.5.7-1.7-.4-1.9-4-.5-1.6.6-2.6 1.7-2.6 2.9 0 1.1-.6 2.2-1.2 2.4-.7.3-.1.6 1.4.6 2.2.1 2.9.7 3.6 3.3.9 3.5.6 5.8-.9 5.8-.5 0-.9.5-.9 1 0 .7.6.7 1.9 0 2.9-1.5 5.9-1.2 7 .7.8 1.5 1.2 1.6 3.8.3 1.5-.8 3.1-1.6 3.6-1.8.4-.2.7.5.7 1.5s.4 1.4.8.8c1.2-1.7 4.2-1.7 4.2 0 0 1.3 1.2 1.9 3.3 1.6.4 0 .7.9.7 2.1 0 2.1 0 2.1 1.5.2 1.2-1.6 1.4-1.7 1.5-.2 0 1 1.4 2 3.8 2.6 2.6.7 3 1 1.4 1.1-1.3.1-2.1.5-1.7 1 .3.6-3.7 1-9.7 1.1-5.7 0-15.4.3-21.7.5-7.3.3-11.9.1-12.7-.6-.8-.6-1.9-.9-2.6-.6-.8.4-.7.6.5.6 3.8.2 1.4 2.2-2.5 2.1-2.4 0-5.5.1-7 .4-1.6.2-2.8 0-2.8-.6s.7-.8 1.5-.5c.8.4 1.7.2 2-.3.4-.6.1-1-.5-1-.7 0-1-.6-.7-1.3.4-1-.3-1.2-2.4-.9-1.6.2-3.5-.1-4.3-.7-1-.8-1.6-.9-2.1-.1-.3.5-1.1 1-1.7 1s-.6-.6.2-1.5c1.1-1.4 1-1.4-1.4-.6-2.5 1-3.9-.2-1.3-1.2.7-.3.5-.6-.5-.6-1-.1-1.8-.6-1.8-1.1 0-.6.6-1 1.3-.9.6.1 2.5-.3 4-.9 1.6-.7 3.6-1.2 4.6-1.2 1.2 0 2-.9 2.3-2.5.3-1.4.1-2.5-.3-2.5-.5 0-.9-.7-.9-1.6 0-.8.5-1.2 1-.9 1.4.9 1.3-.8-.2-2.3-.7-.7-.9-1.2-.5-1.2s.3-.9-.3-2c-.8-1.4-.8-2 0-2 .7 0 .9-1.2.6-3-.4-3 .7-4.9 1.9-3.1.3.6 1.2.8 2.1.4 1.1-.4 1.2-.9.3-1.9-.9-1.1-.9-1.4 0-1.4.7 0 .9-.5.5-1.1-.3-.6-.7-2.8-.8-4.9-.2-3.2 0-3.6 1.2-2.4 1.9 2 2.9 1.7 3.5-.9.6-2.1.6-2.1-.8-.3-1.3 1.7-1.5 1.8-1.5.3 0-.9-.5-1.7-1.1-1.7s-.9-.8-.7-1.7c.2-1-.5-2.6-1.5-3.6-1.4-1.4-1.5-2.2-.7-3.8.6-1.1 1.6-1.6 2.2-1.3.8.5.9.1.4-1.2-.5-1-.9-2.4-.9-3.1 0-.6-.7-.9-1.6-.5-.9.3-1.3.2-.9-.3.4-.4.1-1.4-.7-2.2-2.1-2.1-1.8-3.2.6-2.6 1.3.4 1.7.8.9 1.3s-.4.9.9 1.3c1.2.3 1.9.1 1.5-.4-.3-.5.2-.6 1-.3.9.3 1.4.9 1.1 1.3-.6 1 2.3 5.1 3.6 5.1.6 0 .7-.6.3-1.3s-.3-.9.2-.4.9 1.2.9 1.5c0 .4 1.5 2.7 3.3 5.1 1.7 2.4 3.2 5.1 3.2 5.9 0 .9.3 1.2.7.8.4-.3 2.2.8 4.2 2.6 3.2 3 3.1 2.9-.9-2.2-2.4-3-3.7-4.9-3-4.3 1.8 1.6 3.4 1.7 2.4.1-.4-.7-.3-.8.5-.4.6.4.9 1.1.7 1.5-.7 1 .5 2.4 3.4 4l2.5 1.4-2.1-2.4c-1.2-1.3-2.7-3.4-3.3-4.7-.7-1.3-1.7-2-2.4-1.5-.7.4-.7 0 .2-1 .9-1.2 1-1.7.2-1.7-.7 0-1-.4-.6-1 .3-.5 1.3-.6 2.3-.3.9.3 0-.9-2-2.6-2.5-2.2-3.5-3.7-3.1-4.8s.2-1.4-.5-.9c-.8.5-1 .2-.6-.8.3-.9 1.1-1.3 1.8-.9.6.4.5-.1-.3-1-.7-.9-1.8-1.4-2.4-1-.5.3-.7.1-.4-.4.4-.6 0-1.6-.9-2.3-.8-.7-1.3-1.9-1-2.7s-.2-1.3-1.3-1.3c-2 0-3.1-1.9-3.1-5 0-1.2-.6-1.7-1.8-1.3-1.3.3-2.4-.8-4.1-3.8s-2-4.1-.9-3.7c1 .4 1.4-.1 1.4-1.6-.1-1.4.4-2 1.6-1.8.9.1 1.9-.2 2.3-.8.3-.5 1.9-1 3.5-1s3.2-.5 3.5-1.1c.5-.7 1.5-.5 3.1.5 1.7 1.2 2.2 1.3 1.8.3-.9-2.5 5.8-3.8 13.9-2.8.4.1.7.9.8 1.8 0 1.2.2 1.4.6.5.4-1 .9-.7 1.7.9 1.4 2.9 7.3 6.2 8.2 4.7.5-.7.2-.8-.7-.4-.8.4-.5 0 .5-.8 1.7-1.4 1.8-1.6.3-1.6-.9 0-1.7-.5-1.7-1 0-.6.6-1 1.3-1 .8 0 .7-.4-.3-1-1.1-.8-.7-.9 1.5-.4 3.3.7 5.8 2.4 3.5 2.4-.7 0-1 .3-.7.6.4.4 1.4.1 2.4-.7.9-.8 1.4-.9 1-.3-.4.7 0 1.7.7 2.3 1.2 1 1.3.9.9-.7-.3-1.2.1-1.9 1.1-1.9.8 0 1.3.4 1.1.8-.3.4 1 1 2.9 1.3 2.9.6 3.5 1.1 4.1 4.2.3 1.9.9 4.3 1.2 5.2.4 1.2-.2 1-2.3-.8-2.7-2.4-2.7-2.3.4 1.3 2 2.4 3.2 4.8 3.2 6.7 0 4.2 0 4.3 1.3 5.9.7.8 1.7 2.6 2.4 4 1.1 2.3 1.1 2.1.6-1.9-.3-2.5-1-4.8-1.5-5.1s-.3-.9.6-1.2c.9-.4 1.6-1.2 1.5-1.9 0-.9-.2-1-.5-.1-.6 1.3-3.4.6-3.4-.9 0-.5.6-.6 1.3-.1.7.4.5-.4-.5-1.8-.9-1.4-1.8-5-2-8l-.3-5.4h4c2.2 0 4.3.4 4.7 1 .5.6.8.5.8-.3 0-.7.4-1.1.9-.8.5.4 2 .2 3.3-.3l2.3-1h-2.2c-1.3-.1-2.3-.5-2.3-1 0-1.2 7.4-.1 7.8 1.1.2.4.8.6 1.2.3.5-.3 2.7.2 5 1.1 2.8 1.1 4.5 2.6 5.5 4.8l1.4 3.1-.6-3.4c-.6-3.2-.5-3.3 1.6-2.2 1.1.7 2.1.9 2.1.7 0-.3-1.2-1.2-2.7-2-2.4-1.3-2.5-1.5-.8-1.5 1.1-.1 4.1.6 6.7 1.4 2.6.7 7.6 1.5 11.2 1.7 3.5.2 6.2.6 6 1s.5.9 1.6 1.3c1.1.3 2 1.1 2 1.6 0 .6.5.7 1.1.4 1.3-.8.6-3-.9-3.1-2.3-.3-2.4-.4-1.2-1.9 1-1.2.7-1.5-1.3-2-3.2-.9-6.1-4-5.1-5.6.4-.7.3-1-.2-.6-.6.3-1.6.2-2.4-.4-1.1-.6-.7-.9 1.5-.9 1.7 0 3.7-.5 4.5-1 1.2-.7 2.9.6 8 6.3 3.6 3.9 9.3 9.9 12.7 13.1m-7.3-17.8c.3.8.2 1.2-.4.9s-1-1-1-1.6c0-1.4.7-1.1 1.4.7m228.6 1.7c0 .5-.4.5-1 .2-.5-.3-1-1.4-1-2.3 0-1.5.2-1.5 1-.2.5.8 1 1.9 1 2.3m-294.7-.5c-.2.7 0 1.1.5 1 1.2-.2 4.2 1.4 4.2 2.3 0 .5-.7.9-1.5.9s-1.5-.4-1.5-.8-1.2-.8-2.7-.7c-2.1 0-2.8-.5-2.9-2.1s.4-2.1 2-2c1.2.1 2 .7 1.9 1.4m13.2 0c-.3.3-1.1 0-1.8-.7-.9-1-.8-1.1.6-.5 1 .3 1.5.9 1.2 1.2m-38.5 3.9c0 1.3-.2 1.3-1.7.2-1.1-1-1.4-1-.9-.2.4.7.5 1.3.2 1.3s-1-.8-1.5-1.9c-.9-1.6-.7-1.7 1.4-1.3 1.4.2 2.5 1.1 2.5 1.9m121.7 1.6c1.6-.6 2.8 3.6 1.4 5-1.1 1.1-1.6-.1-1.2-3.2.2-.7-.2-1-.8-.7-.5.4-1.5-.4-2.1-1.6-.9-1.9-.9-2.1.2-.7.7.9 1.8 1.4 2.5 1.2m-292 2.6c-1.3 1.6-2.8 2.7-3.1 2.4-.3-.4-.6 0-.6.8s-1.6 3.1-3.5 5.1-3.5 4.3-3.6 5c0 .9-.2 1-.5.1-.3-.7-1.2-.9-2-.6-.7.3-1.1 1-.7 1.7.3.6.3.8-.2.4-.4-.4-2.2 0-3.9.9-2.5 1.3-2.9 1.3-2.1.2.6-.8.2-.6-.8.4-1 1.1-2 1.8-2.2 1.5-.8-.8 3.7-8.9 5.6-9.9 1.1-.5 1.9-1.5 1.9-2.2 0-.8-.4-.7-1.1.3s-.9 1.1-.7.2c.2-.8.6-1.2.8-1.1.3.1 2.4-.8 4.7-2 5-2.5 6-2.6 4.2-.5-1.9 2.3 5.3-2.1 7.6-4.6 2.8-3.1 3-1.4.2 1.9m304.6-2.7c1 0 1.5.4 1.1 1-.4.7-.2.8.5.4 1.4-.9 9.4 4.8 8.3 5.9-.4.5-.2.5.4.2.7-.4 1.8.1 2.5 1 1 1.2 1 1.4.2.9-.7-.4-1.3-.5-1.3-.1 0 .8 5.2 8.5 5.7 8.5.3 0-.2-1.1-1.1-2.5-.9-1.3-1.6-2.8-1.6-3.2s.9.5 1.9 2.1c1.1 1.7 1.8 3.4 1.5 3.8-.3.5.6 2.2 2 3.9 1.5 1.7 2.4 3.5 2 4-.8 1.3-9-5.7-19.1-16-7.9-8.1-10.5-12.2-6.5-10.6.9.4 2.5.7 3.5.7m10.2 3.8c.3.5.1 1-.4 1-.6 0-1.1-.5-1.1-1 0-.6.2-1 .4-1 .3 0 .8.4 1.1 1M151 144c0 .5-.4 1-1 1-.5 0-.9.3-.9.7.3 2-.2 2.7-1 1.4-.6-.9-.5-1.9.2-2.7 1.4-1.6 2.7-1.8 2.7-.4m294.3.3c.3.8-.1 1.4-.8 1.4s-1.1-.6-.8-1.4c.3-.7.6-1.3.8-1.3s.5.6.8 1.3m5.5 4.5c.9 2.2 1 2.3.6.3-.4-1.6-.2-2.1.5-1.7.6.4 1.1 1.4 1.1 2.1 0 .8 1.8 2.7 4 4.1 2.2 1.5 3.7 3.1 3.3 3.7-.3.5-.2.7.4.4.5-.4 2.3.7 3.8 2.3s3.2 2.7 3.7 2.4c1.2-.7 9.8 6.5 9.8 8.3 0 .8.4 1.2.9.9.9-.6 3.8 5.2 3.3 6.6-.1.5.3.8.9.8.5 0 1.5 1.3 2 3 .6 1.6 1.5 3 2.1 3 .5 0 .6.4.3 1-.3.5-.2 1 .3 1s.8 1 .7 2.2c-.1 1.3.5 3.4 1.2 4.8 1.4 2.5 1.4 2.5-.2.3-1.7-2.2-1.7-2.2-5.4-.4l-3.7 1.9-2.4-2.6c-1.4-1.4-2.4-2.9-2.2-3.4.1-.5-.1-.7-.6-.4s-2.5-1.4-4.5-3.8c-6.3-7.5-13.6-17.6-12.9-17.6.4 0-.1-.5-1.1-1.1-2.5-1.5-8-13.1-6.6-14 .7-.4.4-.9-.6-1.3-1.1-.4-1.5-1.3-1.2-2.6.3-1.1.1-1.8-.4-1.4-.5.3-.9-.2-.9-1 0-2.3 2.5-.9 3.8 2.2m21-2.5c.7.5 1 1.2.7 1.7-.3.4.2 1 1 1.4.8.3 1.7.1 2-.4.4-.6.1-1-.4-1-.6 0-1.1-.5-1.1-1 0-.6 1.1-.3 2.5.6s2.5 2.1 2.5 2.6c0 .6-.6.5-1.5-.2-.8-.7-1.5-.8-1.5-.4 0 1.1 4.2 3.9 5.3 3.6q.75-.15.3.6c-.3.5.7 2 2.2 3.3l2.7 2.4-2-2.5-2-2.5 2.2 1.9c1.3 1 2 2.2 1.8 2.6-.3.4.6 2 2 3.6 1.3 1.5 2.1 3.2 1.8 3.7-.3.6-.1.7.5.3.7-.4 1.9.7 2.9 2.9 1.7 3.6 1.7 3.7-.2 5.1-1 .8-1.4 1.4-.8 1.4s1.6-.7 2.3-1.5c.9-1.1 1.6-1.2 2.5-.5.6.5 1.6.6 2 .2.5-.4.5-.2.2.4-.4.6.2 1.9 1.3 2.9 2 1.9 2.8 4.1 1 3-.6-.4-.7.1-.3 1.1.4 1.2.3 1.5-.5 1-1.4-.8-1.5-.5-.6 1.8.3.9 1.5 1.6 2.5 1.6s1.9.4 1.9 1c0 .5.6 1 1.3 1 .6-.1 0-1.1-1.4-2.3-1.5-1.2-2.4-2.8-2.2-3.5.3-.9 1.3-.2 2.9 1.9 1.3 1.8 2.1 3.6 1.8 4-.3.5.3 2 1.3 3.5 1.5 2.3.7 2-5.2-2.1-3.9-2.6-8.2-5.7-9.6-6.8-1.4-1.2-.3-.2 2.5 2.3 7.3 6.5 11.9 11.3 13.2 13.5.8 1.5 1.2 1.6 1.9.5.6-.9.4-1.1-.6-.5-.8.5-1.1.5-.7 0 .4-.4.2-1.5-.5-2.4s-.1-.7 1.3.4c8.1 6.3 11 9 11 10.1 0 .6.7 1.5 1.6 1.8.8.3 1.3 1 1 1.5s.1 1.1.9 1.5c1.7.6 2 2.6.4 2.6-.5 0-.7-.5-.4-1 .3-.6.4-1 .1-1s-1.2 1.4-2.1 3c-1.2 2.2-1.3 3.5-.5 4.9.5 1.1 1 2.2 1 2.5 0 1.2-13.6.6-14.9-.7-1.1-1-1.3-1-.7 0 .4.7.4 1.3-.1 1.4-.4 0-4.4.2-8.8.5-6.9.4-21.8 1.8-30.7 2.9-1.6.2-2.8-.1-2.8-.6 0-1 5-6.4 6-6.4.3 0 1.4-.6 2.5-1.3 2-1.3 2-1.3-.1-.7-1.4.4-2.1.1-2.1-1 0-.8.4-1.5.9-1.5s.7-.4.4-.8c-.3-.5.8-.8 2.4-.7 3.3.2 4.5-.4 5.1-2.4.4-1.1.8-1.1 2.1.3 1 .9 1.8 1.2 2 .5.5-1.4 7.8-1.9 7.5-.6-.1.6.3 1.1.8 1.2.6 0 1.7.4 2.5.9.9.6.7.1-.4-1.2-1.1-1.2-1.6-2.5-1.3-2.9.4-.4 1.4.2 2.2 1.3 1.3 1.6 1.4 1.6.9.1-.7-2 1.5-2.4 3.4-.5 1.8 1.8 1.5.2-1.2-5-1.3-2.6-2.1-5.3-1.9-6 .3-.6 0-1.2-.5-1.2-.6 0-2.2-2-3.6-4.5-3.3-5.6-4.4-5.9-1.6-.5 1.1 2.1 2 4.3 2 4.7-.1.4-1.2-1.2-2.4-3.7-1.3-2.5-2.2-4.8-1.9-5.2.2-.4-1.2-3.7-3.2-7.3-3.9-6.9-3.8-7.9.4-4.3 1.4 1.3.6.1-1.9-2.5-2.4-2.6-4-4.7-3.5-4.7.6 0 .3-.6-.5-1.3-2.2-1.7-8-13.2-8-15.7 0-1.2-.4-1.8-1-1.5-1 .6-1.4-.6-1-3.9.1-1-.3-1.5-.8-1.2-.6.4-1.3.2-1.6-.3-.7-1.1 1.3-.9 3.2.2m-195.9 7.8c-1.1.7-.9.9.5.9 1.1 0 1.7.3 1.3.6-1.2 1.2-3.7-.5-3.1-2.1.3-.8 1.1-1.2 1.6-.9.6.4.5 1-.3 1.5m217.7 6.9-.7-2.5 1.4 2.3c.7 1.2 1.6 1.9 2 1.6.4-.4.7.1.7 1.1 0 1.4-.3 1.5-1.5.5-1.9-1.6-1.9-.7.1 3.1.8 1.7 1.3 3.3 1.1 3.6-.6.5-3.8-4.1-6.1-8.6l-1.6-3.5 2.6 2.5 2.6 2.4zm144.7 7c.3 1.1.1 2-.4 2s-.9-.9-.9-2 .2-2 .4-2 .6.9.9 2m-132.8 6c1.6 0 2 1.2.8 2.3-.3.4-1.6-.1-2.7-1-2.1-1.8-2.1-1.8-.2.4 1 1.3 2.3 2 2.9 1.6s.8 0 .4 1c-.4 1.1.4 2.8 2.3 4.7 3.3 3.4 4 5 1.3 2.9-5.8-4.5-8.4-8.5-8.9-13.6l-.4-3.8 1.5 2.7c.9 1.6 2.2 2.8 3 2.8m134.1 3.8c-1.2 1.2-1.8-.8-1-3.5l.8-2.8.4 2.8c.2 1.6.1 3.1-.2 3.5m-130.3 2.3c.4 1.6.3 1.8-.9.8-.7-.6-1.1-1.5-.8-2 .8-1.3 1.1-1.1 1.7 1.2m-357.6 5.1c-.3.8-.6.5-.6-.6-.1-1.1.2-1.7.5-1.3.3.3.4 1.2.1 1.9m359.8 3.8c1 1.1 1.3 2 .7 2s-1.6-.9-2.2-2-.9-2-.7-2 1.2.9 2.2 2m-363.2 3.8c.3 2.4.1 4-.4 3.6-.5-.3-.9-2.4-.9-4.6 0-5.1.5-4.7 1.3 1m365.2 1.8c.9 1.5 1.2 2.3.6 2-1.1-.7-3.5-4.6-2.8-4.6.3 0 1.2 1.2 2.2 2.6M532 197c.5 0 1 .7 1 1.6s.5 1.2 1.3.8c.9-.6.9-.4-.1.8-1.1 1.4-1 1.6.7 1.1 1.2-.3 2.1-.1 2.1.5 0 .5 1.1.9 2.4.9 1.6 0 2.3-.5 2.1-1.6-.1-.9 0-1 .2-.4.3.7.8 1.3 1.2 1.3s.8 1.5.8 3.2c.2 2.9.1 3-.7 1-.5-1.2-1.5-2.2-2.2-2.2-.9 0-.9.3.2 1 2.9 1.8.4 1.7-3.7-.2-5-2.3-9.3-6.4-9.3-8.7 0-1-.3-2.1-.7-2.7-.5-.5.2.1 1.4 1.3 1.2 1.3 2.7 2.3 3.3 2.3m5.7-3.2c.8.5.9 1.3.3 2.2q-1.35 2.1-.9-.6c0-.4-.5-1.1-1.3-1.5-.7-.5-.8-.9-.3-.9.6 0 1.5.4 2.2.8m-386 9.4c-.3.8-.6.5-.6-.6-.1-1.1.2-1.7.5-1.3.3.3.4 1.2.1 1.9m347.2 2.5c1 2.2 1 2.5-.4 1.9-.9-.3-1.9-.6-2.1-.6-.3 0-.3-.4.1-.9.3-.5.1-1.2-.5-1.6-1.5-.9-1.2-2.5.4-1.9.7.3 1.9 1.7 2.5 3.1m39.6 2.2c.6 1 4.4.9 6.2-.2 1.5-1 2.2.4 1.4 2.6-.6 1.7-.8 1.7-2 .3-1.7-2-2.8-2-2.8-.1 0 .8.2 1.3.5 1 .3-.2 1.8.3 3.3 1.2 2.2 1.3 2.9 2.5 2.9 4.8v3l1.3-2.5c.8-1.4 1.9-2.4 2.6-2.2.7.1 1-.2.6-.7-.3-.6-1.2-.8-2-.4-.8.3-1.5.1-1.5-.4 0-1 4-1.5 4.1-.5.5 4.5.5 6.1-.3 8.4s-1.6 2.8-4.3 2.8c-3.5 0-4.8-1.1-6-4.9-.5-1.8-.4-2.2.6-1.6.8.4-.1-.7-1.9-2.4s-2.9-3.1-2.6-3.1c.4 0-.1-1-1.2-2.2-1.3-1.4-1.4-1.9-.4-1.4.8.4.5-.1-.7-1-1.3-.9-2.3-2.1-2.3-2.6 0-1 3.6.7 4.5 2.1m-379.6 8.5c.2 2.5-1.8-1.3-2.3-4.4l-.6-3.5 1.4 3.5c.8 1.9 1.5 3.9 1.5 4.4m-4.9-4.8c0 .8-.5 1.2-1 .9-.6-.4-.8-1.1-.5-1.6.9-1.4 1.5-1.1 1.5.7m119.5-.2s.6 1.2 1.3 2.4c.7 1.3 1.1 2.6.8 2.9s-.8-.1-1.1-.9c-.4-1-1.5-1.3-3-1.1-2 .4-2.3.1-2.2-2.1.2-2.1.6-2.5 2.2-2 1.1.4 2 .7 2 .8m261.8 1c.4 1 .1 1.3-.8.9-.8-.3-1.2-.9-.9-1.4.7-1.2 1.1-1.1 1.7.5m-282.9 4.1c-.4.8-.8 1.5-1 1.5s-.4-.7-.4-1.5.4-1.5 1-1.5c.5 0 .7.7.4 1.5m276.1 2.1.5 2.9-1.4-2.4c-.9-1.6-1.5-2-1.8-1.1-.2.8-.9 1-1.7.5-1-.6-.8-1.1 1-2.1 2.8-1.5 2.9-1.5 3.4 2.2m12.6-1.9c1.3 1.6 1.2 1.7-.3.4-2.3-1.8-2.3-1 .2 3.2l2 3.4-2.7-.1c-2.6-.1-4.7-2.6-2.2-2.6.8 0 .6-.5-.5-1.3-1.7-1.3-1.7-1.4-.1-3 2-2.1 2-2.1 3.6 0m-272.1.7c0 .3-.4.8-1 1.1-.5.3-1 .1-1-.4 0-.6.5-1.1 1-1.1.6 0 1 .2 1 .4m-15.3 2.8c-.3.8-.6.5-.6-.6-.1-1.1.2-1.7.5-1.3.3.3.4 1.2.1 1.9m122.3.8c0 .5-.5 1.2-1 1.5-.6.4-.7 1.1-.4 1.7.4.6.2.8-.3.5-2-1.3-2.1-4.3-.2-4.4 1.1-.1 1.9.2 1.9.7m151 .5c0 .8-.2 1.5-.4 1.5s-.6-.7-1-1.5c-.3-.8-.1-1.5.4-1.5.6 0 1 .7 1 1.5m7.5.5c1 1.1 1.6 2 1.3 2s-1.3-.9-2.3-2-1.6-2-1.3-2 1.3.9 2.3 2m-375.8 2.2c-.3.7-.5.2-.5-1.2s.2-1.9.5-1.3c.2.7.2 1.9 0 2.5m92.3-1.7c0 .8-.2 1.5-.4 1.5s-.6-.7-1-1.5c-.3-.8-.1-1.5.4-1.5.6 0 1 .7 1 1.5m-97 1.5c0 1.1-.4 2-1 2-.5 0-1-.9-1-2s.5-2 1-2c.6 0 1 .9 1 2m402.3-.5c-.3.9-.8 1.4-1 1.1-.3-.3-.2-.9.2-1.5.9-1.6 1.5-1.3.8.4m-300.6 7.2c-.3 1-.5.4-.5-1.2 0-1.7.2-2.4.5-1.8.2.7.2 2.1 0 3m22-2.1c-.3.3-1.2.4-1.9.1-.8-.3-.5-.6.6-.6 1.1-.1 1.7.2 1.3.5m-4.6 1.5c1.1.5 1.7 1.4 1.4 2-.9 1.4-1.9 1.1-3.3-1.1-1.4-2.3-1-2.5 1.9-.9m291.2.6c-.7.2-1.9.2-2.5 0-.7-.3-.2-.5 1.2-.5s1.9.2 1.3.5M431.5 232c-.3.5-1.2 1-1.8 1-.7 0-.6-.4.3-1 1.9-1.2 2.3-1.2 1.5 0m92.5 5c0 1.1-.5 2-1.1 2-.5 0-.7-.5-.4-1 .4-.6-1.4-1-4.7-1.1-6 0-4-1.5 2.4-1.7 3.2-.2 3.8.1 3.8 1.8m5.5-1c.3.5 0 1-.7 1.1-.7 0-.3.4 1 .9 1.4.6 2.2 1.7 2.1 3.2 0 2.3 0 2.3-1-.2-.8-2-1.2-2.2-2-1-.8 1.3-1.2 1.2-2.4-.4-.8-1.1-1.5-2.6-1.5-3.3 0-1.5 3.6-1.8 4.5-.3m5.5 1.9c0 1.1-.4 2.2-.9 2.5-1.1.7-2.3-2.2-1.5-3.5.9-1.6 2.4-1 2.4 1m3.3-1.3c.9.3 1.3 1.3 1 2.5-.5 1.8-2.2 2.7-2.4 1.1 0-.4-.2-1.5-.4-2.5-.4-1.9-.3-1.9 1.8-1.1M487 245c0 .5-.4 1-1 1-.5 0-1-.5-1-1 0-.6.5-1 1-1 .6 0 1 .4 1 1m-324.6 9.2c-.2 1.5.1 2.8.6 2.8.6 0 1 .5 1 1.1 0 .5-.5.7-1.1.3q-1.2-.75-.6 1.8c.5 1.8.2 2.8-.7 3.1-2.2.9-2.5-.1-1.4-4 .5-2 .8-4.6.6-5.8-.3-1.2 0-2.2.7-2.2s1.1 1.2.9 2.9m161.6-1.7c0 .8-.7 1.5-1.5 1.5-2.6 0-1.8-2 1.3-2.9.1-.1.2.6.2 1.4m9 .5c0 .5-.4 1-1 1-.5 0-1-.5-1-1 0-.6.5-1 1-1 .6 0 1 .4 1 1m306.7 13.2c-.3.8-.6.5-.6-.6-.1-1.1.2-1.7.5-1.3.3.3.4 1.2.1 1.9m-476.2-.1c1.1 1.6.1 1.9-1.3.3-.7-.8-.8-1.4-.3-1.4s1.3.5 1.6 1.1M417 272c2.8 3.5 6.3 9.1 8.2 13 .7 1.4 1.8 2.9 2.5 3.3s1.3 1.7 1.3 2.7 1 2.6 2.2 3.4c1.2.9 1.8 1.6 1.3 1.6-.6 0-.1.7 1 1.6 1.1.8 1.9 1.8 1.9 2.2-.3 1.5 1.6 5.2 2.7 5.2.6 0 .9.7.6 1.4-.4 1.1-.1 1.3 1 .9s1.4-.2.9.5c-.4.7-.2 1.2.3 1.2.6 0 1 .5.9 1.2-.2.7.2 1.2.7 1.3.6 0 2.4.9 4 2.1 4.4 3.1 14.4 7.4 18.4 8 11.2 1.5 15 1.8 28.7 1.8 21.8 0 41.1-3.1 45.9-7.4 1.1-1 3.6-2.3 5.5-2.9 6.7-2.1 9.4-4.6 12.8-11.4 1.7-3.7 3.2-7.1 3.2-7.7s.5-.8 1.2-.4c.8.5.9.2.5-.9-.3-.9 0-3.1.7-4.9s1.7-4.2 2.1-5.3c.5-1.1.7-2.7.6-3.4-.2-1.3 0-1.3 1.3-.2.9.7 1.3 1.7 1 2.2s.5.9 1.7.9c1.6 0 2 .5 1.6 2-.3 1.1-.1 2.3.4 2.6s.8 0 .7-.7c-.2-.7.5-1.5 1.5-1.7 1.5-.3 1.6 0 .7 2.2-.5 1.4-.6 2.6-.1 2.6s1.1.8 1.4 1.7c.2 1 .8 2.7 1.2 3.8.5 1.6.5 1.7-.4.5s-1.1-1.1-1.1.7c0 1.3.5 2.3 1 2.3 1.4 0 1.3 3.3-.2 4.8-.9.9-.9 1.2.1 1.2.7 0 1 .4.6.9-.3.5-.1 1.2.5 1.6q1.05.6 0 2.4c-.7 1.5-.6 1.8.8 1.7.9 0 1.7.6 1.7 1.4s-.6 1.4-1.2 1.2c-.8-.1-1.3.8-1.3 2.4 0 1.4-.5 3.4-1.1 4.5-.7 1.5-.7 2.4 0 3.3.8 1 .7 1.7-.4 2.6-1.5 1.3-2.1 3.5-.7 2.6.5-.3.6.8.4 2.5-.2 1.6.1 3.6.8 4.5 1 1.1 1 1.8.2 2.6-.9.9-1.2.8-1.2-.4 0-2.9-1.5-2.7-1.6.2-.1 1.5-1.1 4-2.3 5.6-1.2 1.5-1.9 3.5-1.6 4.5.9 2.6-.5 6.8-2 6.3-.7-.3-1.6-.1-2 .5-.3.6-.1 1.1.4 1.1.6 0 1.1.7 1.1 1.5s-.4 1.5-1 1.5c-.5 0-.7.6-.4 1.4.3.7-.7 2.1-2.1 3s-2.5 2.2-2.4 2.9c.3 2.5-.1 3.8-1.1 3.2-.6-.3-1 .4-1.1 1.7 0 2.3 0 2.3-1-.2l-1-2.5-1.9 2.5c-1 1.4-2.4 2.6-2.9 2.6-.6.1-2.1.2-3.3.3-1.9.1-2 .3-.8 1.1 1.7 1.1 2.4 1-9.6 2.1-3.6.4-6.1 2.4-3.9 3.3.8.3 1.5 1.1 1.5 1.7 0 .7-1 .5-2.6-.6-1.4-.9-3.3-1.5-4.3-1.3-.9.3-2.5-.4-3.6-1.5-2-2-2-2 0-1.3 1.1.4 1.6.3 1.1-.1-.4-.4-1.5-.8-2.4-.9-4.5-.3-5.2-.5-5.2-1.5 0-.6.9-.9 2-.6s2 .1 2-.3c0-.5-1.6-1.2-3.5-1.6-3.5-.6-5.7-2.3-3.3-2.5.7-.1.2-.4-1.2-.8s-2.5-1.2-2.5-1.8c0-1.4-4.1-6.3-5.5-6.4-.5-.1-1.4-.2-1.9-.3-1.6-.2-2.5-1.6-1-1.6 1-.1.9-.4-.4-1.1-.9-.6-1.5-1.5-1.1-2 .3-.5.2-.9-.3-.8-2.2.4-4.3-.2-3.8-1.1.3-.6-.3-1-1.5-1-1.1 0-2.3-.6-2.6-1.4s-1.7-1.7-3.1-2.1c-1.4-.3-3.2-1.3-4-2.1-.9-.8-2.2-1.3-2.9-1-.8.3-2.6 0-3.9-.6-2-.9-2.8-.9-3.8.1-.9.9-.9 1.4.2 2 1.1.7 1 1-.5 1.4s-1.4.5.6.7c1.4.1 2.7.2 3 .3.3 0 1.3.8 2.3 1.8 1.4 1.6 1.4 1.9.2 1.9-.8 0-1.5.5-1.5 1.1 0 .5.4.8.9.4.5-.3 1.2-.1 1.6.5.3.5 0 1-.8 1-.7 0-1.4.7-1.4 1.5 0 1.7 3.1 3 4.8 1.9.8-.4.9-.3.5.4s-.2 1.2.5 1.2c.6 0 1.8.8 2.6 1.7.8 1 1.2 1.2.8.5-.3-.6-.1-1.2.4-1.2.6 0 1.1.5 1.1 1.2 0 .6.2.9.5.6s3 1.9 6 5c4.8 4.7 5.5 5.9 5.2 8.7-.3 2.6-.1 3.2 1.1 2.7.9-.3 1.3-.1.9.5s-.1 1.4.5 1.6c.7.3-.8.3-3.4 0-4.4-.5-4.8-.3-4.8 1.6 0 1.2-.4 2.1-1 2.1-.5 0-1 .7-1 1.5s-.4 1.5-1 1.5c-.5 0-1 .7-1 1.6 0 .8-.4 1.2-1 .9-1.2-.8-.9 3.7.4 4.6 1.3 1-.3 2.9-1.9 2.2-.8-.3-1.5-.1-1.5.4 0 1.8 1.3 2.3 2.8 1.1 2.2-1.9 4.9-1.9 6.3 0 1.3 1.5 1.2 1.6-.4.3-1.5-1.2-2-1.2-3-.1q-1.35 1.35 0 .6c1.4-.7 2.8 1 1.4 1.8-.5.3-1.4-.1-2.1-.9-1.1-1.3-1.4-1.3-2.5.2s-1.4 1.4-2.9-1.3l-1.6-2.9.6 3.6c.5 3.4-1.2 6.9-3.5 6.9-.4 0-1.3 1-1.9 2.2-.9 2-1.1 2-1.1.4-.1-1.5-.4-1.6-1.6-.6-1 .9-1.5.9-1.5.1 0-.6-.3-1.1-.7-1.1-.5 0-.8 1.5-.8 3.2 0 2.6-.5 3.5-2.5 4.4-1.7.8-2.9.8-3.8.1s-1.1-.6-.6.7c.3.9.1 1.7-.5 1.7-.6.1-1.9.2-2.8.3-1 .1-2.2.4-2.8.7-.5.3-2.8.6-5 .7s-5.3.5-6.9.8c-2.2.5-2.7.3-2-.7.6-1.1.4-1.1-1 0-2.1 1.8-6.6 2.4-6.6.9 0-.6-.3-.8-.6-.5-.4.3-1.6.2-2.7-.4-1.4-.8-1.8-.8-1.3 0 .4.7-.1 1.1-1.4 1.1-1.9 0-2 .1-.5 2.4 1.1 1.6 1.3 2.6.6 3.1-.6.3-1.1 0-1.1-.8 0-1-.7-1.3-2-1-1.2.3-2 0-2-.7s-.5-.6-1.5.4c-1.1 1-3.7 1.6-8.3 1.6-10.5.2-11.1.1-14-1.4-2.6-1.3-12.7-1.4-18.1-.1-1.8.5-2.2.3-1.8-.9.4-.9.2-1.6-.3-1.6-.6 0-1 .6-1 1.4 0 2.7-13 3.8-17.7 1.4-2.9-1.4-3-1.4-2.5.4.7 2.9-3.8 1.9-9.5-2.2-2.6-1.9-5.8-3.6-7.1-3.7-2.2-.2-6.3-3.3-4.3-3.3.6 0 1.1-.7 1.1-1.5 0-1.5 2-1.7 3.1-.2.3.5.9.1 1.3-.9s.4-1.5 0-1.1-1.6-.5-2.6-2c-1.7-2.6-1.8-2.7-1.8-.6 0 1.2-.4 2.5-1 2.8-.5.3-1 .1-1-.5s-.4-.8-1-.5-.7-.1-.3-1c.5-1.3.7-1.4 1.4-.3.6.9.9.7.9-1 0-2.5-.9-2.8-3-1-1.2 1.1-1.2 1-.3-.2.6-.8 1.1-2.8 1.1-4.4 0-1.5.3-3.1.8-3.5.5-.3 1-1.1 1.1-1.7.2-1.1-5.6-1.2-7.4-.1-.6.4-1.8.4-2.6.1-1.1-.4-1.7.3-2.2 2.4-.5 2.4-1.1 2.9-3.5 3-1.7 0-3-.3-3-.8s-.7-.7-1.5-.4c-1.1.5-1.5-.1-1.5-1.9 0-1.4-.6-2.7-1.2-3-1-.3-1-.7 0-2 .8-.9 1.1-2.1.8-2.6-.4-.5-.2-1.2.4-1.6s.8-.9.6-1.3c-.8-1.3 5.9-8.1 8.4-8.4 1.6-.2 2.4.2 2.3.9-.2.7.1 1.3.6 1.3s1.2-.6 1.4-1.3c.3-.7.6-.5.6.5q.15 1.65 1.5 1.2c.8-.3 1.7 0 2.1.6.6.9.9.9 1.5-.1.6-.9 1.2-.9 2.5.4 1.8 1.9 4.1 2.2 5 .7.3-.6 1.2-1 1.8-1 .7 0 .6.4-.3 1-1.3.8-1.2 1 .3 1 .9 0 1.7-.6 1.8-1.3q0-1.35.6 0c.2.7 1.1 1.3 2 1.3 1.2 0 1.2-.2-.1-1.6-1.6-1.6-1.3-3.4.6-3.4.5 0 .7.7.4 1.6-.5 1.3-.1 1.5 1.9 1s2.5-.3 2.6 1.1c0 1.4.2 1.3.9-.5l1-2.2 2 2c1.1 1.1 2.8 2 3.8 2s2.2.3 2.6.7c.4.5 1.1.8 1.4.8 2.6 0 9 3 8.5 3.9-.3.6 0 .5.8-.2 1.2-1.1 1.2-1.4-.1-2.2-1.2-.8-1-1 .9-1 1.3 0 2.1.3 1.8.7-.4.3.3 1.3 1.4 2.1 1.8 1.2 2.3 1.2 2.9.1.5-.7.6-1.7.3-2.3-.3-.5-.1-.6.5-.2.5.3 1.2.1 1.4-.5.2-.7.9-.5 1.7.5 1.2 1.4 1.2 1.6-.3 1-.9-.3-1.6-.1-1.6.5s.7 1.1 1.5 1.1 1.5.4 1.5 1c0 .5.7 1 1.5 1s1.5-.5 1.5-1.1c0-.5-.5-.7-1.2-.3s-.8.3-.4-.4 1.4-1.2 2.2-1.2 1.2.4.9 1c-.3.5-.1 1 .4 1 .6 0 1.1-.7 1.1-1.5s.5-1.5 1-1.5c.6 0 1 .5 1 1.1 0 .8.4.8 1.4 0s1.6-.9 2.1-.1c.3.6 1.1.7 1.7.4.6-.4 3.4-.7 6.4-.8 2.9-.1 5.6-.5 6-.9 1.3-1.2 2.4-.8 1.8.8-.8 2.1 2.3 3 5.1 1.5 1.3-.7 2.8-.9 3.4-.6.7.5.9.1.5-.9-.5-1.1-.2-1.4 1-.9.9.3 1.6.1 1.6-.5s.7-.8 1.6-.4c1.3.5 1.5.2.9-1.5-.4-1.3-.2-2.2.4-2.2s1.1-.8 1.2-1.8c0-1.1.2-1.2.6-.4.4 1 .8.8 1.8-.5 1.3-1.7 1.3-1.7 1.2.1-.1 1 .4 2.1 1.1 2.3.7.3 1.2-.4 1.2-1.7 0-1.2.5-1.8 1-1.5.6.3 1 .1 1-.5 0-.7.7-1 1.5-.6.8.3 1.5.1 1.5-.4s.7-.7 1.5-.4c.8.4 1.5.1 1.5-.6q0-1.35 3-.6c2.3.4 3.2.1 3.7-1 .4-1.1 1.3-1.4 3.2-.9 1.8.4 2.2.3 1.2-.4-1.2-.8-1.2-1.2-.2-2.5.8-.9 1.9-1.6 2.6-1.6s1.6-.8 2-1.8c.6-1.5.8-1.4 2.1.8.8 1.4 1.4 1.8 1.3 1-.4-4.3.2-6.2 2.2-6.7 1.3-.4 1.8-1.1 1.4-2-.3-1.1-.1-1.3 1-.9 1 .4 1.5-.1 1.6-1.7s.3-1.7.6-.5c.2.9 1.7 2 3.3 2.3 2 .4 2.7 1.1 2.3 2.1-.3.8-.1 1.4.4 1.4s.9-.9 1-2c.1-1.3-.4-2-1.7-2-2.2 0-3.6-1.8-3.2-4.2.2-.9-.6-2.2-1.7-2.8-1.2-.6-2.1-2-2.1-3 0-1.1-.4-2-.9-2s-1.7-.3-2.6-.6c-1.3-.5-1.5-.1-1.1 1.9.2 1.4-.1 2.8-.7 3.1-.9.5-.9.7 0 1.2.8.4.7 1.6-.6 4.5-2.1 4.6-3.6 6.3-2.8 3.1.6-2.7 0-2.8-2.9-.1-1.2 1.1-3 2.2-4 2.4-1.1.2-2 .4-2.1.4-.2.1-.5 0-.6-.2-.2-.1-1.1.4-1.9 1.1-1.3 1-1.7 1-2 0-.4-1-1.2-1-4-.1-2.6.7-3.9.8-4.7 0-.6-.6-2.4-1.2-4-1.3-1.5-.1-3.8-.7-5-1.3-1.7-1-2.1-.9-2.1.4 0 .9-.4 1.4-.9 1-.5-.3-1.2.4-1.6 1.4-.3 1.1-1.2 1.8-2 1.5-.7-.3-1.6-.1-2 .5-.8 1.5-8.2 1.4-8.7 0-.3-.9-1-.9-2.6 0-1.8 1-2.2.9-2.2-.4 0-1.8-.4-1.9-3-.3-1.7 1.1-2.2 1-3-.2-.5-.8-1.2-1.2-1.5-.8-.4.3-1.5-.1-2.5-1-3.2-2.7-12-7.2-12-6.1 0 .6-.4.7-1 .4-.5-.3-1.2.6-1.6 2-.3 1.3-1 2.3-1.5 2-.4-.3-1.3.4-1.9 1.5s-1.7 2-2.5 2c-.7 0-1.5.5-1.7 1-.2.6-1.8 1.2-3.5 1.4-1.8.3-3.7.7-4.3 1.1-.5.3-1-.1-1-.9 0-1-.9-1.6-2.2-1.7-4.2-.1-6.9-.9-8.4-2.4-.9-.8-2.1-1.5-2.9-1.5s-1.1-.7-.8-2-.1-2.2-1.1-2.6c-1.1-.4-1.5-1.3-1-2.6.4-1.4.2-1.8-.5-1.4-1.2.8-1.4-.4-.5-2.8.3-.9 1.2-1.6 1.9-1.6s1.6-.7 1.9-1.6c.9-2.5.7-5.4-.5-5.4-.5 0-.7.4-.4 1 .3.5 0 1-.8 1-1.6 0-5.4 3.9-4.8 4.9.2.3-.6 1.1-1.8 1.7s-2.2 1.4-2.2 1.8c.3 2.1-.1 2.6-2 2.6-1.1 0-1.8.4-1.5.9.4.5-.2.7-1.3.4-1-.3-2.2 0-2.5.6-.4.5-1.4.7-2.2.4-1-.4-1.7.2-2.1 1.5-.3 1.2-1.4 2.4-2.5 2.8-1.6.5-1.8.8-.7 1.5s.9.9-.7.9c-1.2 0-2.4.7-2.8 1.5-.3.8-1.5 1.5-2.6 1.5s-2 .7-2 1.5-.5 1.5-1.1 1.5c-.5 0-.7.5-.3 1.1.4.8-.1.9-1.7.5-1.3-.3-1.8-.3-1.1 0 .6.3 1 1 .6 1.5-.3.5.2.9 1 .9 2.3 0 2 1.8-.4 2.5-1.2.4-2.8.1-3.7-.7-1.3-1-1.7-1-2-.1-.3.7-1.4 1.3-2.4 1.3-1.3 0-1.8.4-1.3 1.2s.2.9-1 .5c-1.4-.6-1.7-.3-1.2 1 .4.9.1 2-.6 2.5-.9.5-.6.8 1 .8 1.2 0 2.2.4 2.2 1 0 1.4-4.7 1.3-5.6-.1-.4-.8-.9-.8-1.7 0-1.4 1.4-8.7 1.5-8.7.1 0-.6-.4-1-1-1-.5 0-.7.7-.3 1.6.5 1.3.2 1.5-1.8.9-1.3-.4-2.7-1.2-3-1.7s-1.3-.6-2.2-.3c-.9.4-2.4-.2-3.6-1.4s-2.6-2.1-3.1-2.1-1-.9-1-2-.7-2-1.5-2-1.5.5-1.5 1c0 1.5-4.9-2.2-5-3.6 0-.7-.8-1.5-1.7-1.8-1.5-.6-1.5-.8-.3-1.6 1.3-.8 1.2-1-.2-1s-1.8-.9-1.8-4c0-3.7-.7-4.5-3.2-4.1-.5 0-.8-.3-.8-.9 0-.5.7-1 1.6-1 1.3 0 1.4-.3.4-1.4-.6-.8-1.8-1.2-2.6-.9-1.5.5-3.8-4.1-3-6.1.2-.6.5-.2.5.8.1 1.6.4 1.7 1.3.8s.9-1.5.1-2.3-.7-1.8.2-3.6c.8-1.4 1-3.3.7-4.2-.6-1.3-.7-1.2-1 .6-.2 1.3-.7 2.3-1.2 2.3-1.1 0-2-5.4-.9-5.8 2.3-.9-1.5-3.1-4.4-2.6-1.8.2-2.5.1-1.7-.3 2-.9 3.9-3.5 3.4-4.8-.8-1.9 2.3-4.9 5.2-5.1 5.7-.3 6.2-.4 6.8-2 .4-1 .2-1.3-.6-.8-.7.4-.8.3-.4-.4 1.1-1.7 4.6-1.5 4.6.3 0 1.2.4 1.4 1.9.5 1.4-.7 2.2-.7 2.6 0 .4.6 1.1.8 1.6.5.5-.4.9 0 .9.7 0 1 4.2 1.2 21.8.7 12-.4 23.1-.9 24.7-1.3 1.7-.3 5.9-.8 9.5-1.1s10.6-1.5 15.5-2.7c5-1.1 10-2.1 11.2-2.2 1.1 0 1.9-.4 1.7-.7-.5-.9 4.6-3 5.6-2.4.5.3 1.1.1 1.5-.5s1.1-.8 1.6-.5.6-.1.3-.9c-.3-.9-.2-1.6.4-1.6.5 0 1.2-1 1.5-2.2.4-1.2.9-1.9 1.3-1.5.7.6 2.1-1.2 4.1-5.3.4-.8 1.3-2.1 2-2.8s1.7-3.1 2.3-5.3c.8-3 1.5-3.9 2.6-3.5.8.3 1.3.2 1-.3-.8-1.3 2.2-10.7 3.9-12.1.8-.7 1.5-2 1.5-2.9 0-3.4 5.3-12 7.9-12.9 4.1-1.4 9.3.3 12.1 3.8m153.3-3c-.3 1.2-.8 1.9-1.1 1.6-.5-.6.5-3.6 1.2-3.6.2 0 .2.9-.1 2m-409.3.6c0 .8-.4 1.2-1 .9-.5-.3-1-1-1-1.6 0-.5.5-.9 1-.9.6 0 1 .7 1 1.6m154 1.3c0 .4-.9.7-2 .7s-2-.6-2-1.2c0-.7.8-1 2-.7 1.1.3 2 .8 2 1.2m238.1 4.7c1.7 4.2 1.7 4.8.3 9-.8 2.5-1.3 5.3-1 6.1.8 2-4.3 13.2-6.5 14.3-2.3 1.3-3.2 1.3-2.3-.1.4-.8-.1-.9-1.6-.4-1.4.4-2 .3-1.7-.3.4-.5 0-4.2-.9-8.2-1.6-8-1.4-13.7.6-13.2.8.2 1-.5.6-2.2-.6-2.4 1.3-4.2 4.2-3.7.7.1 1.2-.4 1-1.1-.3-1.7 3.3-5.9 4.5-5.1.5.3 1.7 2.5 2.8 4.9m-26.1-1c0 .8-.4 1.2-1 .9-.5-.3-1-1-1-1.6 0-.5.5-.9 1-.9.6 0 1 .7 1 1.6m41.3-.1c-.3.9-.8 1.4-1 1.1-.3-.3-.2-.9.2-1.5.9-1.6 1.5-1.3.8.4M454 277.4c0 .6.5.4 1-.4.8-1.2 1-1.2 1 .5.1 1.8.1 1.9 1.1.2 1.4-2.3 2.5-2.2 3.4.5l.8 2.3.4-2.5.5-2.5 1.3 3c.7 1.7 1.4 2.4 1.4 1.7.1-.7.6-1 1.2-.6.8.4.9-.1.5-1.7-.7-2.2-.6-2.2 1.1.3 1.5 2.5 4.3 4.2 2.9 1.9-.4-.5-.3-1.6 0-2.5.5-1.2 1-1.3 2.6-.5 1.1.6 2.2.8 2.5.5.4-.3 1.2-.1 2 .5 1 .9 1.3.8 1.3-.2s.3-1 1.2-.1.8 1.5-.8 2.7c-2.2 1.7-1.5 1.9 2 .5 1.7-.6 3.5-.6 5.2.1 2.2.8 2.5.7 1.6-.3-.8-1 .1-1.3 4.3-1.3 4.1-.1 5.2.2 4.7 1.3-.4 1.1.1 1 2.1-.3 2.9-1.8 4.9-1.3 4 1.1-.4 1.1.7.8 4.1-1 4-2.1 5-2.3 7.8-1.3 1.8.7 3.9 1.8 4.6 2.5.8.7 1.8 1 2.3.7.5-.4.9.1.9.9 0 .9-.4 1.6-1 1.6-.5 0-1 .5-1 1.1 0 .5.5.7 1 .4.6-.3 1-.1 1 .4 0 .6.5 1.1 1 1.1.6 0 1-1 1-2.3.1-2 .2-2 1.1-.4.6.9 1.4 1.5 1.8 1.2 1.2-.7 3.4 2.2 3.9 4.8.2 1.2.6 5 .9 8.4.4 5.6.3 6.3-1.4 6.4s-1.7.2 0 .6c1.8.5 1.8.5 0 1.9-1 .7-2.5 1.4-3.5 1.4-.9 0-1.8.4-2 .9-.1.5-2.5 1.2-5.3 1.5-2.7.3-6.8 1-9 1.6-2.2.5-10.5.9-18.5.9-12.5-.1-16.9-.2-27.2-.9-1-.1-1.8-.7-1.8-1.5 0-.7-.7-1.6-1.6-1.9-1.4-.5-1.5-.4-.4.9s.9 1.5-1.6 1.1c-3.9-.5-6.5-1.6-5.9-2.6.3-.5-.3-1.5-1.3-2.2-2.6-1.9-9.7-10.8-11.6-14.6-2.2-4.4-1.3-4.1 1.5.5 3.4 5.7 9.9 13.3 11.4 13.3.7 0 1.8.7 2.5 1.5 1.6 1.9 2.7 1.9 2.7.1 0-.8-.6-1.2-1.5-.8-1.2.4-1.4 0-1-1.6.4-1.2.2-2-.2-1.7-1.2.8-3.3-3.3-2.6-5.1.3-.8.2-1.4-.3-1.4-.4 0-.8-.6-.8-1.3-.1-.6-1-3.8-2.2-7.1-1.1-3.2-1.8-6.3-1.5-6.8.4-.6.1-1.4-.6-1.8-1.8-1.1-.1-3.3 2.1-2.7 2.4.6 2.4-.2.2-1.9-1.6-1.2-1.6-1.2.5-.7 1.2.3 2.2 1 2.2 1.7m118.9 1.6 1.6 2.4-2.7-1.9c-1.5-1.1-2.8-2.4-2.8-2.8 0-1.5 2.3-.1 3.9 2.3M163 280c0 .5-.2 1-.4 1-.3 0-.8-.5-1.1-1-.3-.6-.1-1 .4-1 .6 0 1.1.4 1.1 1m274 2.5c0 .5-.5.3-1-.5s-1-2-1-2.5c0-.6.5-.3 1 .5s1 1.9 1 2.5m-75.9.4c0-1 .2-1.1.6-.2.2.7 1.1 1.3 1.8 1.3s1.6-.6 1.8-1.3c.3-.6.6-.2.6 1 .1 1.3.6 2.2 1.3 2 1.6-.3 1.7 5.6.1 10.1-.7 2.1-1.3 4.5-1.3 5.4 0 1-.5 1.8-1.1 1.8s-.8.7-.5 1.5c.3.9-.1 1.8-.9 2.1-.8.4-1.2 1-.9 1.5s-.1.9-.9.9-1.7 1.1-1.9 2.4c-.5 2.4.5 2.8 3 1.3.6-.5 1.2-.4 1.2.2s-.9 1.5-2 2.1-2 .7-2 .3-.5-.2-1.1.4-1.8.9-2.7.6c-.8-.4-1.3-.2-.9.3.3.5-.2 1-1.1 1.1-2.6.2-8.2 1.2-10.1 1.7-6.7 2.1-42.4 2.9-46.7 1.1-1-.4-2.7-.7-3.6-.6-1 .1-1.8-.3-1.8-.8 0-.6.7-1.1 1.6-1.1s1.4-.6 1.1-1.3c-.2-.6-1-1.1-1.6-.9-.6.1-1.1-.4-1.1-1.2s-.6-1.7-1.2-2c-.7-.3-.2-.3 1.1 0 1.6.4 2.1.3 1.7-.5-.4-.6-1.3-1.1-2.1-1.1-1.2 0-1.2-.5 0-3.3.7-1.7 2-3.3 2.9-3.5s1.7-1.3 1.7-2.5c.1-1.7.2-1.8.6-.5.5 2.2 2.2 2.3 2.9.3.4-.8 1.5-1.5 2.6-1.5 1.6 0 1.8-.3.9-1.4s-.8-1.5.5-2c.9-.3 2-.4 2.5 0 .5.3.9-.3.9-1.3 0-1.5.2-1.6 1-.3.8 1.2 1 1.2 1.6-.3.4-1 1.7-1.7 3.4-1.7 1.9 0 2.9-.6 3.3-2 .3-1.2 1.4-2 2.6-2 2.4 0 2.7 1 .9 2.8-.6.6-.9 1.5-.5 1.8 1.1 1.1 3.7-1.7 3.8-4 0-2.1 0-2.1.9.1.9 2.3 3 3.2 3 1.3 0-.6-.4-1-1-1-.5 0-1-.4-1-.9 0-.6.9-.9 2-.8 1.5.1 1.9.6 1.4 2.2-.5 1.8-.4 1.8 1.1-.3.9-1.2 2.1-2 2.6-1.6.5.3 1.6 0 2.4-.6s2.3-.9 3.5-.5 2 .2 2-.5c0-.6.5-.8 1.1-.4.6.3 1.5 0 2-.7.7-1.1.9-1 .9.4s.5 1.7 2.3 1.2c1.9-.5 2-.4.4.5-.9.6-2.2.8-2.7.5-1.1-.7-1.4.8-.4 1.8s5.4-2.4 5.5-4.2c0-1 .2-1.1.6-.4.6 1.6 4.3 1.7 4.3.2 0-.5-.4-.7-1-.4-.5.3-1 .1-1-.5 0-.7.6-1 1.4-.7s2.2 0 3.2-.8c1.3-.9 2.3-1 3.1-.3.9.8 1.3.7 1.4-.3m258.7 5.6c-1.4 3.1-2.3 2.5-1.4-1 .4-1.4 1.1-2.3 1.6-2 .6.3.5 1.6-.2 3M157.3 291c-.3 1.1-.7 2-.9 2s-.4-.9-.4-2 .4-2 .9-2 .7.9.4 2m142.1-.1c.4.5-.3.7-1.4.4-2.3-.6-2.6-1.3-.6-1.3.8 0 1.7.4 2 .9m8.6.5c0 .3-.4.8-1 1.1-.5.3-1 .1-1-.4 0-.6.5-1.1 1-1.1.6 0 1 .2 1 .4m-6 3.6c0 .5-.2 1-.4 1-.3 0-.8-.5-1.1-1-.3-.6-.1-1 .4-1 .6 0 1.1.4 1.1 1m317.3 9.8c-.3 1.8-.9 3.5-1.4 3.8s-.7.9-.4 1.3c.2.5-.7 1.3-2 1.9-1.4.7-2.5.8-2.5.3s.5-1.1 1.2-1.3c.6-.2 1.2-1.3 1.3-2.4.1-1 .7-2.9 1.3-4.1.7-1.2 1.3-4.1 1.3-6.5l.1-4.3.9 4c.4 2.2.5 5.5.2 7.3m-440-2c.4 4.2-1 7.2-3.4 7.2-1.2 0-1.1-1.8.2-8 1.3-5.9 2.6-5.5 3.2.8M273 298c0 .5-.4 1-1 1-.5 0-1-.5-1-1 0-.6.5-1 1-1 .6 0 1 .4 1 1m-2.4 2.2c.4.6.3.8-.3.5-1.2-.8-2.6 2-1.7 3.4.3.5 1 .6 1.6.3.7-.5.9-.1.5.9-.3.9-.2 1.6.3 1.4.5-.1 2.7 1.7 4.8 4 2.8 3.1 3.5 4.4 2.5 4.7-.8.3-2.4-.1-3.7-.9-1.2-.8-2.6-1.2-3.1-.8-.4.5-.5.3-.2-.3.4-.6-.7-3.6-2.3-6.5-3.1-5.6-3.7-7.4-2.1-6.4.5.3 1.2.1 1.6-.5.8-1.3 1.2-1.3 2.1.2m-103.5 2.5c-1.2 2-1.4 1.4-.5-1.2.4-.9.9-1.4 1.1-1.1.3.2 0 1.3-.6 2.3m107.4-1.7c.3.5-.1 1-.9 1-.9 0-1.6-.5-1.6-1 0-.6.4-1 .9-1 .6 0 1.3.4 1.6 1m.9 2.9c.3.5 0 1.1-.8 1.4-1.5.6-2.6-.1-2.6-1.5 0-1.1 2.7-1 3.4.1m-105.1 4.6c-1.8 3.4-2 3.5-3.4 1.9-.9-1.1-.9-1.5-.1-1 .7.4 1.5 0 1.9-1.1.8-2 2.6-4.3 3.1-3.8.2.2-.5 2-1.5 4m-15.8-1.5c.3.5.2 1-.4 1-.5 0-1.3-.5-1.6-1-.3-.6-.2-1 .4-1 .5 0 1.3.4 1.6 1m9.7 1.2c-.9.9-1.5.9-2.4-.1-1.1-1-1-1.1.5-.6 1 .5 1.7.2 1.7-.6 0-.7.3-.9.7-.6.4.4.1 1.3-.5 1.9m455.7 5.3c-1.2 2.4-2.6 4.2-3.1 3.9-.4-.3-.8.2-.8 1.1s.4 1.3 1 1 .7.1.4.9c-.3.9-1 1.3-1.5 1s-.6.2-.3 1c.7 1.9-.7 2.1-2.4.4-.7-.7-1.2-.9-1.2-.4 0 .4.7 1.4 1.5 2.2 2.2 2.3 1.8 3.4-1.2 3.4-2.2 0-2.5-.2-1.3-1 1.1-.7.6-.9-1.9-.8-2 .2-3.6-.2-3.8-1-.3-.6 0-1.2.7-1.2.6 0 .8.4.5 1-.4.6.1.7 1.1.3 1.1-.4 1.3-.8.6-1.1-1.6-.5-1.5-2.3.1-2.1 2.9.3 5.4-1.6 8.5-6.4 1.7-2.9 3.2-5.9 3.2-6.8 0-2.2 1.4-3.4 1.8-1.5.2.9-.7 3.6-1.9 6.1m-427.2-1.8c-.3 1-.5.4-.5-1.2 0-1.7.2-2.4.5-1.8.2.7.2 2.1 0 3m-20.7-1.2c0 .8-.4 1.5-1 1.5-.5 0-.7-.7-.4-1.5.4-.8.8-1.5 1-1.5s.4.7.4 1.5m11 .5c0 .5-.2 1-.4 1-.3 0-.8-.5-1.1-1-.3-.6-.1-1 .4-1 .6 0 1.1.4 1.1 1m74 1c0 .5-.2 1-.4 1-.3 0-.8-.5-1.1-1-.3-.6-.1-1 .4-1 .6 0 1.1.4 1.1 1m2.7 3.1c-.1 3.6-.3 3.8-1.4 2.2-.9-1.1-1-1.9-.3-2.1.5-.2 1-1.2 1-2.3 0-1 .2-1.9.4-1.9.3 0 .4 1.8.3 4.1m107.8-3.2c.3.5 0 1.3-.6 1.7-.7.4-.9.3-.5-.4.3-.5 0-1.3-.6-1.5-.9-.4-1-.6-.1-.6.6-.1 1.4.3 1.8.8M264 314.7c.8 1.6 1.4 3.2 1.4 3.8.1.5.6 1 1.3 1 2 0 2.3 1.1.3 1.2-1.3.1-2.2-.6-2.6-2.2-.3-1.3-1.1-2.2-1.7-2.1-.7.2-.9.1-.5-.1.5-.3.3-1.3-.2-2.4-.6-1-.7-1.9-.2-1.9s1.5 1.2 2.2 2.7m346-.7c0 .5-.5 1-1.1 1-.5 0-.7-.5-.4-1 .3-.6.8-1 1.1-1 .2 0 .4.4.4 1m-351.7 5.9c.6.9.2.8-1.1-.3-1.2-1.1-2.2-2.9-2.1-4 0-1.9.1-1.9 1 .3.5 1.4 1.5 3.2 2.2 4m-63.9-1.7c.3 1.6.2 2.8-.3 2.8-1.1 0-2.2-4-1.5-5.2.8-1.2 1-.9 1.8 2.4m59-.5c-1 4-1.4 4.1-1.4.5 0-1.8.5-3.2 1-3.2.6 0 .8 1.1.4 2.7m352.5 1c-.6 1.6-1 2.9-.9 3.1 0 .1-.3.9-.8 1.8-.7 1.3-1.1 1.1-2.8-.7-1-1.2-1.3-1.9-.6-1.5.8.5 1.2 0 1.2-1.4 0-1.2.5-1.8 1-1.5.6.3 1.3-.1 1.6-.9.3-.9 1-1.6 1.5-1.6s.4 1.2-.2 2.7M275 325.1c0 1.8-3.3.5-3.6-1.3-.2-1.5.1-1.6 1.7-.8 1 .6 1.9 1.5 1.9 2.1m-17 1.6c0 1.3-.3 1.3-1.5.3-.8-.7-1.5-1.6-1.5-2.1s.7-.6 1.5-.3c.8.4 1.5 1.3 1.5 2.1m337.4 8.8c-.4.8-.8 1.5-1 1.5s-.4-.7-.4-1.5.4-1.5 1-1.5c.5 0 .7.7.4 1.5M201 336c0 .5-.2 1-.4 1-.3 0-.8-.5-1.1-1-.3-.6-.1-1 .4-1 .6 0 1.1.4 1.1 1m374.4 14.4c-.3.9-1 1.6-1.5 1.6s-.4-.9.3-2c1.4-2.2 2.1-2 1.2.4m19.3 11.8c-.3.8-.6.5-.6-.6-.1-1.1.2-1.7.5-1.3.3.3.4 1.2.1 1.9m-30.8 11.5c-.1 1.7-.3 2.1-.6 1-.2-.9-.9-1.7-1.4-1.7s-.9-.5-.9-1c0-.6.7-1 1.5-1 1 0 1.5.9 1.4 2.7m-3.6 3c-.3.7-.6 1.3-.8 1.3s-.5-.6-.8-1.3c-.3-.8.1-1.4.8-1.4s1.1.6.8 1.4M508 379c0 .5-.2 1-.4 1-.3 0-.8-.5-1.1-1-.3-.6-.1-1 .4-1 .6 0 1.1.4 1.1 1m36 0c0 .5-.2 1-.4 1-.3 0-.8-.5-1.1-1-.3-.6-.1-1 .4-1 .6 0 1.1.4 1.1 1m-16.4 2.1c.6.5 1.3.7 1.6.4s1.8.2 3.4 1l2.9 1.5-4.5-.6c-3.3-.4-4.1-.3-3 .5 1.3 1 1.3 1.1 0 1-.8-.1-2.6-.5-4-.9l-2.5-.8 2.4-.1 2.3-.1-2.3-1.9-2.4-2 2.5.6c1.4.3 3 1 3.6 1.4m-208.1 1.8c-.3.6-1.4 1.1-2.3 1.1-1.3 0-1.3-.2.4-1.4 2.1-1.5 3-1.4 1.9.3m267.2 1.3c-.3.8-.6.5-.6-.6-.1-1.1.2-1.7.5-1.3.3.3.4 1.2.1 1.9m-369.6.2c.5-.3.9.4.9 1.5s-.4 2.3-1 2.6c-.5.3-1 .3-1-.2 0-.4-.3-1.9-.5-3.3-.3-1.4-.3-1.9.1-1.2.3.6 1 1 1.5.6m145.3-.5c.3.5-.1 1.1-.9 1.4-.9.4-1.2.1-.8-.9.6-1.6 1-1.7 1.7-.5m170.6 1.5c0 .2-.9.6-2 .9s-1.8.1-1.4-.4c.5-.9 3.4-1.3 3.4-.5m-5 1c0 1.1-1.9 1.5-2.5.6-.3-.5.1-1 .9-1 .9 0 1.6.2 1.6.4m-298.6 12c.1.5-1.1 1-2.6 1-1.5.1-2.5 0-2.3-.3.2-.2-.2-1.3-1-2.5-1.8-2.4-1.9-5-.4-7.8 1-1.8 1.3-1.5 3.7 3.3 1.4 3 2.6 5.8 2.6 6.3M534 388c0 .5-.3 1-.7 1-.5 0-1.9.3-3.3.6l-2.5.6 2.5-1.5c3.1-1.8 4-2 4-.7m-314 2.4c0 .2-.8 1-1.7 1.7-1.6 1.3-1.7 1.2-.4-.4s2.1-2.1 2.1-1.3m278.4 6.1c-.4.8-1.1 1.2-1.6.9-.6-.4-.5-1 .3-1.5 1.9-1.2 1.9-1.1 1.3.6m-177.9 1.4c.3.5.2 1.2-.3 1.5s-.9-.1-.9-.9c0-1.7.3-1.9 1.2-.6m210.2 28.6c2.5 4.1 2.6 4.8 1.1 9.6-1.2 3.5-1.3 4.9-.4 5.3.6.3.4.5-.4.5-3.1-.2-3.9.2-4.4 2.3-.2 1.3-.4.6-.2-1.5.1-2-.1-3.7-.5-3.7s-1.1 1.7-1.7 3.7c-.5 2.1-1 3-1.1 2-.1-.9-.5-1.7-1-1.7-1.6 0-3.1 2.7-2.5 4.4.4 1 .1 1.6-.8 1.6-1.7 0-1.9 8-.3 9.2q1.05.75 0 1.5c-1.2.9-1.3 3.3-.2 5 .6.9.3 1.1-.7.7-1.1-.4-1.6 0-1.6 1.5 0 1.2-.5 2.1-1.2 2.1-.6 0-.4.6.6 1.3 1.7 1.2 1.6 1.4-.7 3.7-1.4 1.3-2.3 3-2 3.7s0 1.3-.6 1.3-1.1 1-1.1 2.2c-.1 2.3-.1 2.3-1.7.3-1.4-1.8-1.5-1.8-.9-.1.4 1.1-.2 3.2-1.4 5.3-2.7 4.6-2.5 5.4.4 2 2.6-3 4.1-3.6 3.2-1.1-.3.8.1 2.6 1 4 1.5 2.2 1.5 2.4 0 2.4-.9 0-1.6-.7-1.6-1.5s-.4-1.5-1-1.5c-.5 0-1 .4-1 .9s-.3 1.7-.6 2.5c-.4 1.1-.2 1.5.7 1.1 1-.4 1.4.5 1.4 3.2 0 2.3-.5 3.8-1.5 4.1-.8.3-2.1 1.3-2.8 2.4-.7 1-1.9 1.8-2.6 1.8-.9 0-1.1.9-.8 2.7.4 2 .7 2.3 1 1 .2-.9.8-1.7 1.3-1.7 1.9 0 .8 1.8-3.1 4.8-2.1 1.8-3.7 3.8-3.4 4.5.2.7-1.1 2.8-3.1 4.7-1.9 1.9-3.5 2.9-3.5 2.2 0-2-1.7-1.3-2.3.9-.3 1.2-1 1.8-1.5 1.5s-1.2.3-1.5 1.4-1.7 2.4-3.1 3c-1.4.5-2.6 1.6-2.6 2.5 0 .8-.6 1.4-1.2 1.2-.7-.1-1.2.3-1.1.9.1.7-1 1.5-2.5 1.9s-3 1.2-3.4 1.8c-.6.9-.8.9-.8-.1 0-.6-.5-1.2-1.1-1.2s-.9.6-.6 1.4c.8 2-.4 2.8-2 1.5-1-.9-1.7-.7-3 .8-1 1-1.5 1.4-1 .7s0-1.4-1.3-1.7-2 0-2 .9c0 1.7-2 1.9-2 .1-.1-.6-.8 0-1.6 1.5-1.4 2.8-4.7 3.7-5.9 1.8-.9-1.5-2.5-1.2-2.5.5 0 .8-.7 1.5-1.5 1.5s-1.5.4-1.5 1c0 .5-.4 1-1 1-.5 0-1-.8-1-1.8 0-1.1-1.6-2.7-4.1-4-2.9-1.6-3.8-1.8-2.9-.7 1.1 1.3 1.1 1.8 0 2.8-1 .9-1.4.9-1.7-.1-.5-1.3-7.3-4.6-8-3.8-.2.2.3 1.1 1.2 2s1.2 1.6.7 1.6c-.6 0-1.8.3-2.7.6-.9.4-1.5.3-1.4-.2s.1-1.6 0-2.4c-.1-1.2-.4-1.1-1.2.4-.9 1.5-1.3 1.6-2 .5-.7-1.2-.9-1.1-.9.1 0 1.1-.2 1.2-.8.3-.5-.8-1.2-.9-2.2-.2-1.3.8-1.3 1 0 1.9 1.3.8 1.2 1-.2 1-1 0-1.8-.8-1.9-1.8 0-1.4-.2-1.4-.9.3-.8 1.8-.9 1.8-1-.5-.2-1.6-.4-1.9-.7-.9-.3 1.3-1.6 1.6-5.8 1.5-3 0-5.5-.5-5.5-1s-.7-.2-1.6.5c-1.3 1.1-1.7 1-2.5-.4-.6-.9-1.5-1.7-2-1.7-.6 0-.7.4-.4 1 .3.5.1 1-.4 1-.6 0-1.1-.5-1.1-1 0-1.8-2-1.1-2.1.7-.1 1.6-.2 1.5-.6-.1-.4-1.5-.7-1.6-1.5-.5-.8 1.2-1 1.2-1.5 0-.5-1.1-.7-1.1-1.5 0-.7 1.1-.9.9-.5-.7.6-2.9-1.7-5.8-4.3-5.1-1.3.3-2 0-2-.9 0-.8-.7-1.4-1.5-1.4s-1.5-.6-1.5-1.4c0-.7-1.3-1.9-3-2.6-1.6-.7-3-1.6-3-2.1s-1.1-1.5-2.5-2.1-2.5-1.7-2.5-2.4c0-.6-.6-1.4-1.4-1.7s-1.7-1.9-2.1-3.6c-.3-1.7-1.2-2.9-1.8-2.8-.7.1-1.1-.4-.9-1.1.1-.6-.4-1.2-1.2-1.2-.7 0-1.6-.9-1.9-2s0-2 .6-2 .2-.7-.9-1.5c-1.9-1.4-1.8-1.4.4-1.5 1.2 0 2.2-.5 2.2-1 0-.6-.9-1-1.9-1-1.1 0-2.6-.7-3.5-1.5-.8-.9-1.8-1.6-2.1-1.5-2.1.1-2.5-.3-2.5-2.6 0-2.1-.3-2.4-1.4-1.5-1 .9-1.7.7-2.7-.6-.9-1.1-1-1.4-.1-.9.6.4 1.2.2 1.2-.3 0-.6-.9-1.1-2-1.1s-2.3-.7-2.7-1.6c-.3-.8-1.2-1.3-1.9-1-1 .4-1.4-.3-1.4-2.4 0-1.9-.5-3-1.4-3-1.2 0-2.8-2.2-3-4.2-.2-1.3-4.6-3.9-5.5-3.4-.5.3-1.2-.1-1.5-1-.5-1.3-.1-1.5 1.9-1.2 3.3.7 3.3-1.5 0-3-1.4-.6-2.5-1.6-2.5-2.2 0-.5-.8-1-1.7-1.1-1.4 0-1.3-.2.5-.9 2.5-1.1 2.9-2.8.7-3.6-.8-.4-1.5-1.1-1.5-1.8 0-.6-1.1-1.6-2.4-2.2-1.9-.9-2.3-.9-1.9.1.2.7 0 1.6-.6 2-.7.3-1.1-.2-1.1-1.4 0-1.5-.4-1.9-1.7-1.4s-1.5.2-1-1.1c.4-1 .3-1.5-.3-1.1-.6.3-1-.1-1-.9 0-.9-.4-1.6-1-1.6-.5 0-.7.8-.4 1.7.5 1.6.4 1.6-.6 0-.7-1-1-2.7-.7-3.8.6-2.1-1.8-2.7-2.7-.7-.3.7-.4.1-.3-1.4.3-1.7-.1-2.9-1-3.2-.8-.3-1.1-1.1-.8-1.7.4-.6-.3-2.1-1.5-3.4-2-2.1-2.1-2.8-1.1-5.6.6-1.7.8-3.6.4-4.2-.3-.6-.1-.7.5-.3.7.4 1.2 1.3 1.2 2 0 1.8 3.3 1.5 4.2-.4.5-1.2.7-1.1.7.3.1 1 .5 1.6.9 1.3 1.3-.8 1.1 2.8-.2 3.6-.7.5-.4.8.6.8s2.2.9 2.8 2 1.9 2 3 2c1 0 2.1.6 2.3 1.2.4 1 .8.9 1.6-.2.7-1 1.1-1.1 1.1-.3 0 .7.7 1 1.5.7 1-.4 1.5 0 1.5 1.1 0 .9.5 1.3 1 1 .6-.3 1 .4 1 1.7 0 1.7.3 1.9.9.9.7-1 1.3-1.1 3-.2 1.4.8 2.1.8 2.1.1 0-2 1.9-1 2.2 1.2.2 1.3.9 2.2 1.5 2.1 1.8-.4 6.5 4.7 5.9 6.3-.3.7 0 1.6.6 2 .7.4.8 2.6.4 6-.3 3-.2 5.4.3 5.4.4 0 1.1 2.7 1.5 6s1.3 6.6 2.1 7.4c2 1.9 1.9 2.6-.2 2.6-1.5 0-1.4.2.4 1.5 1.2.8 2.8 1.2 3.7.9s1.6-.1 1.6.5.5 1.1 1.1 1.1c1.6 0 3.9 2.6 3.9 4.4 0 .9-.7 1.5-1.7 1.3-3.8-.5-2.2 1.9 2.1 3.2 3.6 1.2 4.6 1.9 4.6 3.7 0 2.7 2.4 4.8 4.9 4.1 1.4-.3 1.8-.1 1.4.9-.7 1.8.4 1.8 2.2 0 .8-.7 1.1-1.7.7-2.1s.4-.4 1.8.1c1.4.4 3.5.8 4.7.9 1.1 0 1.9.4 1.5.9-.3.5.4.7 1.6.4s2.9 0 3.9.8c2.1 1.6 5.7 1.9 4.8.4-.3-.6.5-1 1.9-1s2.8.4 3.1 1c.3.5 1.1 1 1.6 1 .6 0 .8-.4.5-.9-1-1.6 11.3-.5 13.2 1.2.9.8 3.5 1.8 5.7 2.2 3 .5 3.6.4 2.5-.4-.8-.6-2.3-1.1-3.2-1.1-1.2 0-1.5-.5-1.1-1.7.4-1.1.8-1.2 1.1-.5.2.7.8 1.2 1.3 1.2.4 0 .6-.7.3-1.5-.4-.8-.2-1.5.4-1.5s1.2.6 1.5 1.2c.3 1 .7 1 2-.1 1-.7 1.7-1 1.7-.5s.4.3.9-.4c.9-1.5 7.1-2.5 7.1-1.2 0 .6.5 1 1.1 1 .5 0 .8-.4.5-.9s.1-1.2 1-1.5c.8-.3 1.2-.2.9.3-.3.6.8.9 2.5.9 1.7-.1 3.3-.5 3.6-1s1.3-.3 2.2.4c1.2 1 1.6 1 1.9 0 .3-.6 1.1-1.2 1.9-1.2.9 0 1.2.5.8 1.2-.5 1-.3 1 .7 0 1.2-1.1 1.2-1.4 0-2.1-.9-.6-1-1.1-.2-1.5.6-.4 1.1-.3 1.1.2 0 .6 2 .9 4.5.8 2.5 0 4.5-.4 4.5-.9 0-.4.7-.7 1.5-.7.9 0 1.2-.6.9-1.5-.4-1 0-1.5 1.5-1.5 1.2 0 2.1-.5 2.1-1.1s.9-.9 2-.6c1.2.3 2 0 2-.8 0-2 2.8-3.8 6.2-3.9 1.7-.1 3.3-.7 3.6-1.4.3-.9-.3-1.1-2.4-.6-1.8.5-2.5.3-2-.4.3-.6 0-1.3-.6-1.5-.7-.3-.1-.6 1.5-.6 2-.1 2.7-.6 2.7-2.1 0-1.2-.7-2-1.7-2-1.5 0-1.5-.2-.4-.9.8-.5 2-.7 2.8-.4.7.3 1.3.1 1.3-.5s-.6-1.3-1.2-1.5c-.8-.3-.6-.6.4-.6 1.2-.1 1.5-.6 1.1-1.8-.5-1.2-.2-1.5 1-1 1.3.5 1.7 0 1.7-2.2 0-1.6.6-3.4 1.4-4 2.1-1.8 2.6-5 .9-6.6-.9-.9-1.2-2.3-.8-3.6.6-1.7.9-1.9 1.7-.8.7 1 .8.4.4-1.9-.3-1.8-.2-3.1.3-2.7.5.3.7-.4.4-1.5-.6-2.4 0-2.5 2.1-.4 1.4 1.4 1.6 1.4 1.6 0 0-.8-.8-1.9-1.7-2.5-1.6-.9-1.6-1.1-.1-2.8.9-1 1.7-2.3 1.8-2.8.1-.6.8-.9 1.6-.7s1.4-.5 1.4-1.7c0-1.1.5-2.3 1-2.6.6-.4.7-1.1.4-1.7-.5-.7-.2-.8.5-.4.8.5 1.4 0 1.8-1.3.3-1.1 1-1.8 1.5-1.5s1.6-.2 2.4-1.2c.9-1.1 1.3-1.4 1-.7-.4.6-.2 1.4.4 1.8 1 .6 1.5-.9 1-3-.1-.5.1-.7.5-.3s1.5 0 2.3-.9c1.1-1 1.7-1.2 2-.4.6 1.8 3 1.2 3.7-1 .4-1.2 1.2-1.8 2.1-1.5 1.1.4 1.3-.1.7-2.2-.6-2.4-.5-2.6 1-1.3 1.5 1.2 1.7 1.1 1.7-.3 0-1 .5-2.6 1-3.6.8-1.6 1.5-1.8 3.6-1 1.9.8 2.6.6 3.1-.6.8-2 4.5-1.4 6 1.1m-279.4 7c-.3.9-.8 1.4-1 1.1-.3-.3-.2-.9.2-1.5.9-1.6 1.5-1.3.8.4m220.8 1.2c.7 1.9.7 2.9 0 3.1-.6.2-1.1 1.2-1.1 2.2 0 2.3-3.5 4.4-6.1 3.7-1-.3-1.9-.1-1.9.5s-.6.8-1.4.5c-.9-.4-1.6.3-2 1.9-.7 2.5-4 4.4-8.6 4.7-1.4.2-2.5.7-2.6 1.2-.3 3.7-4.4 6.3-10.3 6.8-1.2.1-2.1.7-2.1 1.3 0 1.1-4.4 2.4-14 3.9-1.9.3-3.6 1-3.8 1.5s-1 .6-1.8.3-1.4.1-1.4 1.1c0 .9.6 1.6 1.3 1.6.8 0 .7.3-.3 1-1.1.7-2 .3-3.5-1.3-1.9-2.2-8.2-5.4-9.7-5-1.2.4-8.8-2.6-10.3-4-1.5-1.6-.2-3.7 2.3-3.7.9 0 1.2-.6.8-1.6-.3-.9-.6-2.3-.6-3.2-.1-1.2-.5-1-1.4.8-1.8 3.2-7.7 4.2-12.4 2.1-2.4-1.1-3.5-2.4-4.3-5.4-1.1-4.2-.6-5.5 2.8-6.1 1.1-.3 3.1-1 4.3-1.8 1.9-1.1 2.3-1.1 2.8.1.4 1.1.6 1.1 1.3 0 .6-1 .9-1.1.9-.2 0 .7.6 1.3 1.4 1.3.7 0 2.1 1 2.9 2.2 1.3 1.9 1.6 2 1.6.6.1-3.1 2.8-4.6 7.3-4.2 2.4.2 6.6.6 9.3.9 2.8.2 5.7.5 6.5.6.8 0 5.9-1.1 11.4-2.7 9.3-2.6 9.9-2.7 11.1-1 1.2 1.6 1.5 1.5 3.8-.8 4.1-4.1 12-5.1 14.1-1.8.8 1.4 4.6.3 4.6-1.3 0-1.3 2.1-2 6.3-2.4 1.1 0 2.2 1 2.8 2.6m-214.2 14.4c-1.7 1-2.4-.4-1.4-2.9.6-1.6.7-1.6 1.7.2.8 1.4.7 2.1-.3 2.7m203.1 7.3c0 .3-.4.8-1 1.1-.5.3-1 .1-1-.4 0-.6.5-1.1 1-1.1.6 0 1 .2 1 .4m-6.6 7.6c1.6 0 2.7 1.1 4 4 1 2.2 2.2 3.8 2.7 3.5.5-.4.9-.4.9-.1 0 1.4-2 1.4-3.4 0s-1.9-1.4-4.8.3c-1.8 1-4.1 2.4-5 3.1-.9.8-4 1.5-6.8 1.6-5 .3-5.1.2-6.7-3.3-1.2-2.7-1.7-3.1-2-1.8-.3.9-.9 1.5-1.4 1.2-1.3-.9.8-4.5 2.6-4.5.8 0 1.5.6 1.5 1.2 0 .9.3.8 1-.2.5-.8 1.3-1.5 1.7-1.5.4-.1 1.9-.5 3.2-.9 1.4-.5 2.7-.4 3.4.3 1.4 1.4 2.7 1.4 2.7.1 0-1.5 3.4-5.2 3.8-4 .2.5 1.4 1 2.6 1m1.3-1.4c-.3.3-1.2.4-1.9.1-.8-.3-.5-.6.6-.6 1.1-.1 1.7.2 1.3.5m3 .9c0 .8-.4 1.2-.9.9-.4-.3-.8-.9-.8-1.5 0-.5.4-.9.8-.9.5 0 .9.7.9 1.5m-48.7 9.3c-2.8.5-3.1.1-2.3-2.8l.6-2.3 2 2.4c1.9 2.4 1.9 2.4-.3 2.7m19.7-2.6c-.3.8-.6.5-.6-.6-.1-1.1.2-1.7.5-1.3.3.3.4 1.2.1 1.9m42.2 0c.1-.6.6-1.2 1.2-1.2.7 0 .9 1 .7 2.5-.3 1.4-.1 2.5.3 2.5.5 0 .9.4.9 1 0 2.1-3.1.9-4-1.6-1.3-3.3-1.3-6.9 0-3.9.5 1.1.9 1.4.9.7m-75.8.2c-1.7 2 .1 2.8 3.4 1.6 3.6-1.4 4.5-1.3 4.5.5 0 .8.5 1.5 1 1.5 1.8 0 1 2.9-.9 3.5-2.7.8-10.5-.2-10.9-1.5-.2-.5-1-1-1.7-1-1.4 0-2.7-2.5-1.8-3.4.4-.3 1.7-.6 3-.6s2.3-.5 2.3-1c0-.6.5-1 1.1-1 .8 0 .8.4 0 1.4m73 1.2c1.3 3.2 1 3.9-.7 1.8-1.5-1.9-1.5-1.9-1 .1.3 1.1.1 2.7-.4 3.5s-1 1.1-1 .7-.9-.3-1.9.3c-1.6.8-2.1.6-2.7-1.2-.4-1.3-.2-2.4.5-2.6.6-.2 1.1-1.2 1.1-2.2 0-3.3 4.9-3.6 6.1-.4m-122.6-.6c.3.5.1 1-.4 1-.6 0-1.1-.5-1.1-1 0-.6.2-1 .4-1 .3 0 .8.4 1.1 1m74.2 3.2c-.3.7-.5.2-.5-1.2s.2-1.9.5-1.3c.2.7.2 1.9 0 2.5M481 472c.8.5 1.1 1 .5 1-.5 0-1.7-.5-2.5-1s-1-1-.5-1c.6 0 1.7.5 2.5 1m-1 2.4c0 .2-.7.9-1.5 1.6-1.3 1.1-1.4 1-.9-.4s2.4-2.3 2.4-1.2m-19.7 1.9c.3.8.1 2-.4 2.8-.6 1-.9.7-.9-1.4 0-2.9.5-3.5 1.3-1.4M458 479c0 .5-.2 1-.4 1-.3 0-.8-.5-1.1-1-.3-.6-.1-1 .4-1 .6 0 1.1.4 1.1 1m-127 7c0 .5-.4 1-1 1-.5 0-1-.5-1-1 0-.6.5-1 1-1 .6 0 1 .4 1 1m144 6c0 .5-.5 1-1.1 1-.5 0-.7-.5-.4-1 .3-.6.8-1 1.1-1 .2 0 .4.4.4 1m-123 16c0 .5-.2 1-.4 1-.3 0-.8-.5-1.1-1-.3-.6-.1-1 .4-1 .6 0 1.1.4 1.1 1m25.5 1c.3.5.1 1-.4 1-.6 0-1.1-.5-1.1-1 0-.6.2-1 .4-1 .3 0 .8.4 1.1 1m62.2 38.2c-.3.8-.6.5-.6-.6-.1-1.1.2-1.7.5-1.3.3.3.4 1.2.1 1.9M493 609c0 .5-.4 1-1 1-.5 0-1-.5-1-1 0-.6.5-1 1-1 .6 0 1 .4 1 1m-2 3.4c0 .3-.4.8-1 1.1-.5.3-1 .1-1-.4 0-.6.5-1.1 1-1.1.6 0 1 .2 1 .4m-21.2 4.1c1.7.2 3.2-.1 3.2-.6s1-.8 2.3-.8c1.7.1 1.8.2.4.6-.9.2-1.5.8-1.2 1.3.2.4-1.4 1-3.7 1.4-3.5.6-4.5.3-6.2-1.5-2.1-2.1-2.1-2.2-.1-1.4 1.1.4 3.5.9 5.3 1m-13.8 1.9c0 .2-.7.7-1.6 1-.8.3-1.2.2-.9-.4.6-1 2.5-1.4 2.5-.6m15.7 3.2c-.3.3-1.2.4-1.9.1-.8-.3-.5-.6.6-.6 1.1-.1 1.7.2 1.3.5"/><path d="M604 47.4c0 .2.8 1 1.8 1.7 1.5 1.3 1.6 1.2.3-.4s-2.1-2.1-2.1-1.3M617 57.7c0 .5.9 1.8 2 2.8s2 1.4 2 .8c0-.5-.9-1.8-2-2.8s-2-1.4-2-.8M187 47c-1.2.8-1 1 .8 1 1.3 0 2-.4 1.7-1-.7-1.2-.6-1.2-2.5 0M631.3 85.7c.1 1.8.5 3.3.9 3.3 1 0 .9-1.9-.2-4.5-.7-1.6-.9-1.4-.7 1.2M333.6 92.8c-.3.6-.1 1.4.5 1.7 1.4.9 2 .2 1-1.4q-.9-1.2-1.5-.3M316 102c.5 1 1.6 2.2 2.3 2.6.9.6.9.5 0-.8-.7-.8-1-1.7-.7-2 .2-.3-.2-.8-1.1-1.2-1.3-.4-1.4-.2-.5 1.4M375.5 127c-.3.5-.1 1 .4 1 .6 0 1.1-.5 1.1-1 0-.6-.2-1-.4-1-.3 0-.8.4-1.1 1M372.4 130.7c1 1 8 3.3 8.5 2.8.2-.3-.2-.5-1-.5-1.2 0-1.1-.2.1-1.1 1.2-.8 1-.9-.9-.4-1.6.5-2.1.4-1.7-.4.5-.7-.4-1.1-2.5-1.1-1.8 0-2.9.3-2.5.7M298.8 138.2c.6.6 1.8.8 2.8.6 1.4-.3 1.2-.5-.9-1-1.9-.3-2.5-.2-1.9.4M425 138.5c0 .8.4 1.5 1 1.5.5 0 .7-.7.4-1.5-.4-.8-.8-1.5-1-1.5s-.4.7-.4 1.5M322.7 143.1c.7.7 1.5 1 1.8.7s-.2-.9-1.2-1.2c-1.4-.6-1.5-.5-.6.5M355.7 143.7c-.3.4.6 2.2 1.9 3.8l2.5 3-1.2-3c-1.6-3.8-2.5-4.9-3.2-3.8M362.7 146c1.8 1.1 5.5 3.1 8.3 4.5 2.7 1.4 5 3.2 5 4 0 1.3.3 1.3 2 .3l2-1.3-2-.9c-1.1-.5-2-1.3-2-1.8s-.5-.6-1-.3c-.6.4-4-1-7.6-2.9-6.9-3.8-10.1-4.9-4.7-1.6M338.2 152.6c1 1 2 1.6 2.2 1.3.3-.3-.5-1.1-1.7-1.8-2.1-1.3-2.1-1.2-.5.5M381.8 154.2c.5.5 1.6.8 2.3.6.8-.3.3-.7-1-1.1-1.7-.4-2.1-.3-1.3.5M386.8 155.7c.6.2 1.8.2 2.5 0 .6-.3.1-.5-1.3-.5s-1.9.2-1.2.5M419.5 156c-1.9.8-1.9.9.3.9 1.2.1 2.2-.4 2.2-.9 0-.6-.1-1-.2-.9-.2 0-1.2.4-2.3.9M347 168.5c0 .5.5 1.7 1 2.5s1 1 1 .5c0-.6-.5-1.7-1-2.5s-1-1.1-1-.5M283 171.9c0 .6.5 1.3 1 1.6.6.3 1-.1 1-.9 0-.9-.4-1.6-1-1.6-.5 0-1 .4-1 .9M447 171.4c0 .2.8 1 1.8 1.7 1.5 1.3 1.6 1.2.3-.4s-2.1-2.1-2.1-1.3M279.6 175.8c-.2.4-.1 1.4.5 2.2.7 1.2.9 1 .9-.8 0-2.3-.5-2.8-1.4-1.4M353 179c1.1 1.6 2.6 3.3 3.2 3.6.7.4-.1-.9-1.6-2.9-3.4-4.4-4.6-5-1.6-.7M360.5 188c2.1 2.2 4.1 4 4.4 4s-1.3-1.8-3.4-4-4.1-4-4.4-4 1.3 1.8 3.4 4M285.6 191.5c-.3.8-.1 1.5.4 1.5 1.3 0 2.2-1.8 1.1-2.4-.5-.3-1.1.1-1.5.9M368.5 195c1 1.1 2 2 2.3 2s-.3-.9-1.3-2-2-2-2.3-2 .3.9 1.3 2M299.1 195.7c-.1 1.2-.9 2.4-1.8 2.6-1.1.3-.7.5 1 .6 1.5 0 2.7.5 2.7 1.1 0 .5 1 1 2.3.9 2 0 2-.1.3-.8-1-.4-2.4-2-3.1-3.7-1.2-2.5-1.3-2.6-1.4-.7M324.8 197.7c.7.3 1.6.2 1.9-.1.4-.3-.2-.6-1.3-.5-1.1 0-1.4.3-.6.6M299.5 203c-.3.5-.1 1 .4 1 .6 0 1.1-.5 1.1-1 0-.6-.2-1-.4-1-.3 0-.8.4-1.1 1M364.5 205.4c1 1.4 1.9 2.6 2.2 2.6.7 0-1.7-3.9-2.8-4.6-.6-.3-.3.5.6 2M301 210c0 .6.7 1 1.5 1s1.5-.2 1.5-.4-.7-.6-1.5-1c-.8-.3-1.5-.1-1.5.4M295 221c-.9.6-1 1-.3 1 .6 0 1.5-.5 1.8-1 .8-1.2.4-1.2-1.5 0M300 221c-.8.5-1 1-.5 1 .6 0 1.7-.5 2.5-1s1.1-1 .5-1c-.5 0-1.7.5-2.5 1M270.5 222c-.8 1.3.5 1.3 2.5 0 1.3-.8 1.3-1-.2-1-.9 0-2 .4-2.3 1M288.5 226l-2 .9h2c1.1 0 2.7-.4 3.5-.9 1.3-.9 1.3-1 0-.9-.8 0-2.4.4-3.5.9M284 228.1c0 .5.5.7 1 .4.6-.3 1-.8 1-1.1 0-.2-.4-.4-1-.4-.5 0-1 .5-1 1.1M401.3 236c0 3 .2 4.3.4 2.7.2-1.5.2-3.9 0-5.5-.2-1.5-.4-.2-.4 2.8M453.6 157.7c-.6 1.4-.5 1.5.5.6.7-.7 1-1.5.7-1.8s-.9.2-1.2 1.2M481.4 189.1c-.4.7-.3.9.4.5.6-.3 1.3-.2 1.7.4.3.5 1.6 1 2.8 1 2.4 0 1.3-1.4-2-2.4-1.2-.4-2.4-.2-2.9.5M482.5 170c-.3.5-.5 1-.3 1.1 3.3.8 3.8.7 2.7-.7-1.4-1.7-1.6-1.7-2.4-.4M498.6 178.5c.4.8.8 1.5 1 1.5s.4-.7.4-1.5-.4-1.5-1-1.5c-.5 0-.7.7-.4 1.5M494.6 189.8c-.3.5.1.9.9.9s1.2-.4.9-.9c-.3-.4-.7-.8-.9-.8s-.6.4-.9.8M498 194.9c0 .5.5 1.3 1 1.6.6.3 1 .2 1-.4 0-.5-.4-1.3-1-1.6-.5-.3-1-.2-1 .4M511.7 200.3c-.2.6.5 2.6 1.6 4.4 2.1 3.6 3.5 4.6 1.7 1.2-.8-1.4-.8-2.4-.1-3.3.7-.8.5-1.5-.9-2.4s-1.9-.9-2.3.1M499.1 201.7c.7 1 1.4 1.9 1.5 2.1.1.1.7-.5 1.5-1.5 1.2-1.5 1.2-1.6-.3-1-1 .3-1.8.2-1.8-.3 0-.6-.5-1-1.1-1-.8 0-.7.6.2 1.7M550 219.3c0 1.4.5 2.9 1 3.2.7.4.8-.3.4-2.2-.9-3.8-1.4-4.2-1.4-1M563.4 291.6c.3.9.6 2.1.6 2.7 0 .7.4.7.9-.2 1-1.6.4-4.1-1.1-4.1-.6 0-.7.7-.4 1.6M573.5 314.9c-.3.5-.1 1.2.5 1.6.5.3 1-.1 1-.9 0-1.8-.6-2.1-1.5-.7M490 329.5c0 .8.4 1.5 1 1.5.5 0 .7-.7.4-1.5-.4-.8-.8-1.5-1-1.5s-.4.7-.4 1.5M451.3 335.5c-.8 2.2.6 3.3 1.7 1.5 1.3-2 1.2-3 0-3-.6 0-1.3.7-1.7 1.5M368.8 336.7c-2.1.5-2.4 2.3-.4 2.3.9 0 1.2.7.9 2-.6 2.4-2.3 2.7-2.3.4 0-.8-.5-1.2-1-.9-.6.4-.8 1.1-.5 1.6.4.5.2.9-.4.9-.5 0-1.1-.8-1.4-1.8-.2-.9-.4-.2-.4 1.5 0 1.8.4 3.3.9 3.3.4 0 .8-.4.8-.9 0-.6.9-.9 1.9-.8 1.1 0 1.7.6 1.4 1.4-.3.7 0 1.3.6 1.3s1.1-1.1 1.1-2.5.5-2.5 1-2.5c1.2 0 1.4-4.7.3-5.3-.5-.2-1.6-.2-2.5 0M566.9 338.6c-.5 1.5-.7 2.9-.5 3.2.5.4 1-.6 2.2-4.6.7-2.3-.7-1.2-1.7 1.4M375.3 339.5c-.3.9-.3 1.8-.1 2.1.3.3.8-.4 1.1-1.6.6-2.3-.1-2.7-1-.5M378 340.6c0 .8.5 1.2 1 .9.6-.4.8-1.1.5-1.6-.9-1.4-1.5-1.1-1.5.7M390.1 344.6c0 1.1.3 1.4.6.6.3-.7.2-1.6-.1-1.9-.3-.4-.6.2-.5 1.3M380.1 345.6c0 1.1.3 1.4.6.6.3-.7.2-1.6-.1-1.9-.3-.4-.6.2-.5 1.3M385.6 348.1c-.3 1.7-.6 3.7-.6 4.3.1 1.7 2.9-3.7 3-5.7 0-2.9-1.7-1.9-2.4 1.4M473 346.5c.7.9 1.5 1.3 1.7 1.1.7-.7-.7-2.6-1.9-2.6-.6 0-.6.6.2 1.5M471 348.4c0 .9.5 1.6 1 1.6.6 0 1-.4 1-.9 0-.6-.4-1.3-1-1.6-.5-.3-1 .1-1 .9M366.1 350.6c0 1.1.3 1.4.6.6.3-.7.2-1.6-.1-1.9-.3-.4-.6.2-.5 1.3M567 350.1c0 .5.5.7 1 .4.6-.3 1-.8 1-1.1 0-.2-.4-.4-1-.4-.5 0-1 .5-1 1.1M478.6 353.5c.4.8 1 1.5 1.5 1.5s.9-.7.9-1.5-.7-1.5-1.5-1.5c-.9 0-1.2.6-.9 1.5M345.8 358.7c.6.2 1.8.2 2.5 0 .6-.3.1-.5-1.3-.5s-1.9.2-1.2.5M482.7 362.1c.7.7 1.5 1 1.8.7s-.2-.9-1.2-1.2c-1.4-.6-1.5-.5-.6.5M480.8 368.7c.7.3 1.6.2 1.9-.1.4-.3-.2-.6-1.3-.5-1.1 0-1.4.3-.6.6M495.6 369.5c.4.8.8 1.5 1 1.5s.4-.7.4-1.5-.4-1.5-1-1.5c-.5 0-.7.7-.4 1.5M475.6 371.5c.4.8.8 1.5 1 1.5s.4-.7.4-1.5-.4-1.5-1-1.5c-.5 0-.7.7-.4 1.5M481.6 370.9c-.3.4.6.6 1.9.3 1.4-.2 2.5-.6 2.5-.8 0-.8-3.9-.4-4.4.5M483.8 373.7c.7.3 1.6.2 1.9-.1.4-.3-.2-.6-1.3-.5-1.1 0-1.4.3-.6.6M464.5 376c-.3.5-.1 1 .4 1 .6 0 1.1-.5 1.1-1 0-.6-.2-1-.4-1-.3 0-.8.4-1.1 1M482.6 375.8c-.2.4.4.9 1.5.9 1.1.1 1.7-.2 1.4-.8-.7-1.1-2.2-1.2-2.9-.1M287 383.8c0 1.2 1.9 2.6 2.6 1.9.2-.2-.2-1-1.1-1.7-.9-.8-1.5-.8-1.5-.2M368.5 391c.3.5 1.4 1 2.3 1 1.5 0 1.5-.2.2-1-2-1.3-3.3-1.3-2.5 0M347 393.6c0 .6.7 1.4 1.5 1.8 1 .3 1.5-.1 1.5-1.3 0-1-.7-1.8-1.5-1.8s-1.5.6-1.5 1.3M370.8 393.7c.7.3 1.6.2 1.9-.1.4-.3-.2-.6-1.3-.5-1.1 0-1.4.3-.6.6M348 403.7c0 1.5 1.9 3.7 2.6 3.1.3-.4-.1-1.4-1-2.3s-1.6-1.3-1.6-.8M488.1 404.6c0 1.1.3 1.4.6.6.3-.7.2-1.6-.1-1.9-.3-.4-.6.2-.5 1.3M346 407.4c0 .2.7.7 1.6 1 .8.3 1.2.2.9-.4-.6-1-2.5-1.4-2.5-.6M358.1 414.6c0 1.1.3 1.4.6.6.3-.7.2-1.6-.1-1.9-.3-.4-.6.2-.5 1.3M355.7 414.6c-.8.9 3.1 5.4 4.7 5.4.6-.1.2-.9-1-1.8-1.1-1-2.3-2.3-2.5-3s-.8-1-1.2-.6M349 418.4c0 .9.5 1.6 1 1.6.6 0 1-.4 1-.9 0-.6-.4-1.3-1-1.6-.5-.3-1 .1-1 .9M352.5 418.1c-.4.6-.5 1.2-.2 1.5.2.3.7-.2 1-1.1.7-1.7.1-2-.8-.4M543 287.8c0 1 4.1 3.5 4.7 2.8.9-.8-1.7-3.6-3.3-3.6-.8 0-1.4.3-1.4.8M491 282c0 1.3.5 1.8 1.5 1.4.8-.4 1.5-1 1.5-1.4s-.7-1-1.5-1.4c-1-.4-1.5.1-1.5 1.4M495.2 282c0 1.4.2 1.9.5 1.2.2-.6.2-1.8 0-2.5-.3-.6-.5-.1-.5 1.3M516 282.4c0 .8-.6 1.7-1.2 1.9-1 .4-.9.8.2 1.6 2.2 1.6 3.3 1.3 2.6-.5-.4-1.1-.2-1.5.8-1.1s1.3.1 1-.8c-.8-1.9-3.4-2.7-3.4-1.1M474.5 284c.3.5.8 1 1.1 1 .2 0 .4-.5.4-1 0-.6-.5-1-1.1-1-.5 0-.7.4-.4 1M503 285.5c0 .8.5 1.5 1 1.5.6 0 1-.7 1-1.5s-.4-1.5-1-1.5c-.5 0-1 .7-1 1.5M459.8 303.7c.7.3 1.6.2 1.9-.1.4-.3-.2-.6-1.3-.5-1.1 0-1.4.3-.6.6M331.9 290.7c-2.3.5-3.1 4-1.2 4.8.9.3 2.1.1 2.8-.5.6-.5 1.5-.7 1.8-.3.4.3.7-.1.7-.9 0-2-2.1-3.5-4.1-3.1M297 317.8c0 1 3.3 2.2 6 2.2 1.3-.1 1.3-.2 0-.9-2.7-1.6-6-2.2-6-1.3M273 310c.6 1.1 1.3 2 1.6 2 .2 0 0-.9-.6-2s-1.3-2-1.6-2c-.2 0 0 .9.6 2M527 427c0 .5.5 1 1.1 1 .5 0 .7-.5.4-1-.3-.6-.8-1-1.1-1-.2 0-.4.4-.4 1M519.8 428.7c.7.3 1.6.2 1.9-.1.4-.3-.2-.6-1.3-.5-1.1 0-1.4.3-.6.6M518.7 433.1c.6.6 1 1.7.9 2.3-.2.6-.1.8.1.3.3-.4.9-.5 1.4-.1.5.3.9 0 .9-.5 0-.6-.5-1.1-1.1-1.1-.5 0-.7-.5-.4-1 .3-.6-.2-1-1.1-1-1.3 0-1.5.3-.7 1.1M515.5 437c-.3.5-.1 1 .4 1 .6 0 1.1-.5 1.1-1 0-.6-.2-1-.4-1-.3 0-.8.4-1.1 1M506 439c0 .5.5 1 1.1 1 .5 0 .7-.5.4-1-.3-.6-.8-1-1.1-1-.2 0-.4.4-.4 1M519.5 440c.3.5 1.2.7 2 .3 2.1-.7 1.9-1.3-.6-1.3-1.1 0-1.8.4-1.4 1M517.1 441.6c0 1.1.3 1.4.6.6.3-.7.2-1.6-.1-1.9-.3-.4-.6.2-.5 1.3M321.2 452.7c-.8 1.4-.9 2.4-.2 2.8 1.2.7 2.4-1.8 1.8-3.7-.3-.8-.9-.5-1.6.9M490.7 454c-.3 1.1-.1 2 .4 2s.9-.9.9-2-.2-2-.4-2-.6.9-.9 2M323.5 456c-.3.6.1.7.9.4 1.8-.7 2.1-1.4.7-1.4-.6 0-1.3.4-1.6 1M319 461c0 .5.6 1 1.4 1s1.8-.5 2.1-1c.3-.6-.3-1-1.4-1-1.2 0-2.1.4-2.1 1M504 473.5c-1 1.2-1 1.5.3 1.5 1.9 0 3.1-1.6 1.8-2.4-.5-.3-1.4.1-2.1.9M503 496c0 .5.5 1 1.1 1 .5 0 .7-.5.4-1-.3-.6-.8-1-1.1-1-.2 0-.4.4-.4 1M350 498c0 .5.5 1 1 1 .6 0 1 .7 1 1.7 0 .9.3 1.4.6 1 .8-.8-.5-4.7-1.7-4.7-.5 0-.9.4-.9 1M470 502c0 1.8.3 1.9 2 .8 1.4-.9 1.6-1.4.7-2-2-1.3-2.7-.9-2.7 1.2M497.3 507.5c.1 2.5.4 4 .5 3.5.2-.6.9-.7 1.4-.3.8.4.9-.2.5-1.8-.4-1.3-.7-3.2-.7-4.2 0-.9-.4-1.7-.9-1.7s-.9 2-.8 4.5M373 515c0 .5.5 1 1 1 .6 0 1-.5 1-1 0-.6-.4-1-1-1-.5 0-1 .4-1 1M401.5 517.1c-1 1.5.3 2.5 1.6 1.2.7-.7.7-1.3.1-1.7-.6-.3-1.4-.1-1.7.5M421.8 517.7c.6.2 1.8.2 2.5 0 .6-.3.1-.5-1.3-.5s-1.9.2-1.2.5M430 518.4c0 .2.7.7 1.6 1 .8.3 1.2.2.9-.4-.6-1-2.5-1.4-2.5-.6M363.5 521c.3.5.8 1 1.1 1 .2 0 .4-.5.4-1 0-.6-.5-1-1.1-1-.5 0-.7.4-.4 1M487.1 524.6c0 1.1.3 1.4.6.6.3-.7.2-1.6-.1-1.9-.3-.4-.6.2-.5 1.3M367.5 526.1c-.4.6-.5 1.2-.2 1.5.2.3.7-.2 1-1.1.7-1.7.1-2-.8-.4M459.1 537.6c0 1.1.3 1.4.6.6.3-.7.2-1.6-.1-1.9-.3-.4-.6.2-.5 1.3M388.8 542.7c.6.2 1.8.2 2.5 0 .6-.3.1-.5-1.3-.5s-1.9.2-1.2.5M397 543.8c0 .4 1.6.8 3.5.8 2.1 0 3-.3 2.2-.8-1.6-1-5.7-1-5.7 0M442 450c0 .5.5 1 1.1 1 .5 0 .7-.5.4-1-.3-.6-.8-1-1.1-1-.2 0-.4.4-.4 1M418 453.6c0 .5.7 1.9 1.5 3 .8 1 1.5 1.4 1.5.8 0-.5-.7-1.9-1.5-3-.8-1-1.5-1.4-1.5-.8M442.5 468c.3.5.8 1 1.1 1 .2 0 .4-.5.4-1 0-.6-.5-1-1.1-1-.5 0-.7.4-.4 1M464.6 473.7c-.6 1.4-.5 1.5.5.6.7-.7 1-1.5.7-1.8s-.9.2-1.2 1.2M197.5 3c-.3.5-.1 1 .4 1 .6 0 1.1-.5 1.1-1 0-.6-.2-1-.4-1-.3 0-.8.4-1.1 1M607.1 29c0 .8.4 2.2.9 3 1.2 1.8 1.2.2 0-2.5-.6-1.3-.9-1.5-.9-.5M640 109.6c0 .6.7 1.9 1.6 3 1.4 1.8 1.4 1.8.3-.6-1.4-3.1-1.9-3.6-1.9-2.4M648.2 125c.7 1.1 1.7 2 2.2 2s.1-.9-.9-2-2-2-2.2-2 .2.9.9 2M101.8 132.7c.7.3 1.6.2 1.9-.1.4-.3-.2-.6-1.3-.5-1.1 0-1.4.3-.6.6M92.5 134l-4 .7 3.5.1c1.9 0 4.6-.4 6-.8 3.2-1 .2-1-5.5 0M131.5 139.1c-.4.6-.5 1.2-.2 1.5.2.3.7-.2 1-1.1.7-1.7.1-2-.8-.4M651.1 153.6c0 1.1.3 1.4.6.6.3-.7.2-1.6-.1-1.9-.3-.4-.6.2-.5 1.3M647.1 161.5c0 .5.8 3.7 1.9 7s1.7 4.4 1.3 2.5c-.6-3.8-3.1-11.1-3.2-9.5M114.5 165c-.3.5-.1 1 .4 1 .6 0 1.1-.5 1.1-1 0-.6-.2-1-.4-1-.3 0-.8.4-1.1 1M144 165.5c0 .5.5 1.7 1 2.5s1 1 1 .5c0-.6-.5-1.7-1-2.5s-1-1.1-1-.5M122 170.1c0 .5.5.7 1 .4.6-.3 1-.8 1-1.1 0-.2-.4-.4-1-.4-.5 0-1 .5-1 1.1M121 173c0 .5.5 1 1 1 .6 0 1-.5 1-1 0-.6-.4-1-1-1-.5 0-1 .4-1 1M651.1 175.8c-.1.7.4 2.3 1.1 3.5.6 1.2 1.5 3.5 1.9 5.2.6 2.7.7 2.7.7.5.1-2.6-3.6-11.5-3.7-9.2M147.2 218.5c0 1.6.2 2.2.5 1.2.2-.9.2-2.3 0-3-.3-.6-.5.1-.5 1.8M144.6 221.9c-.4 2.9-.5 5.6-.1 5.9.3.3.5-.6.6-1.9l.1-2.4.8 2.5c.6 2 .8 2.1.8.5.1-1.1-.3-3.8-.7-6l-.7-4zM641.1 217.7c-.1.6-.4 2-.7 3-.5 1.7-.5 1.7.6 0 .6-1 .9-2.3.6-3-.3-.9-.5-.9-.5 0M641.8 222.2c-.7 1.6.7 4.6 1.7 3.7.3-.4.2-1.6-.3-2.9-.7-1.8-1-2-1.4-.8M641.6 229.7c-.4.9-.4 1.4 0 1s1.4-.1 2.3.6c1.4 1.1 1.5 1 .1-.8-.8-1.1-1.5-2.1-1.6-2.3s-.5.5-.8 1.5M150 231.5c0 3.7 1.5 4.8 2.8 2 1.4-3.1 1.5-4.6.2-2.5-.9 1.3-1.1 1.3-2 0-.8-1.2-1-1.2-1 .5M639 239.4c0 .2.8 1 1.8 1.7 1.5 1.3 1.6 1.2.3-.4s-2.1-2.1-2.1-1.3M150.4 246.4c-.3.8-.4 2.9-.2 4.8.3 2.9.4 2.7.8-1.5.5-4.8.3-5.8-.6-3.3M649 250.5c0 .5.5 1.7 1 2.5s1 1 1 .5c0-.6-.5-1.7-1-2.5s-1-1.1-1-.5M139.6 295.9c-1.9.7-1.8.8.4 1.4 1.3.3 2.6.4 2.9.2.2-.3-.2-.5-1-.5-1.1 0-1.1-.2.1-1 1.8-1.1.3-1.2-2.4-.1M151.8 320.7c.6.2 1.8.2 2.5 0 .6-.3.1-.5-1.3-.5s-1.9.2-1.2.5M171.5 331c.3.5.8 1 1.1 1 .2 0 .4-.5.4-1 0-.6-.5-1-1.1-1-.5 0-.7.4-.4 1M611.6 339.7c-.6 1.4-.5 1.5.5.6.7-.7 1-1.5.7-1.8s-.9.2-1.2 1.2M182 347.5c0 .5.5 1.7 1 2.5s1 1 1 .5c0-.6-.5-1.7-1-2.5s-1-1.1-1-.5M598.1 380.6c0 1.1.3 1.4.6.6.3-.7.2-1.6-.1-1.9-.3-.4-.6.2-.5 1.3M212.6 395.3c.3 1 .9 1.5 1.2 1.2s0-1.1-.7-1.8c-1-.9-1.1-.8-.5.6M227.1 438.6c0 1.1.3 1.4.6.6.3-.7.2-1.6-.1-1.9-.3-.4-.6.2-.5 1.3M242.1 444.5c0 .5.8 2.6 1.9 4.5s1.9 3 1.9 2.5c0-.6-.8-2.6-1.9-4.5s-1.9-3.1-1.9-2.5M246.1 454.6c0 1.1.3 1.4.6.6.3-.7.2-1.6-.1-1.9-.3-.4-.6.2-.5 1.3M248.5 455c.3.5.8 1 1.1 1 .2 0 .4-.5.4-1 0-.6-.5-1-1.1-1-.5 0-.7.4-.4 1M262.9 512.7c-3.6 3.8-8.7 10.4-11.3 14.8s-5.2 8.7-5.7 9.5-1.4 2.7-2 4.2c-.6 1.6-1.5 2.5-2 2.2s-.8-.2-.7.3c.4 1.5-8.3 15.4-14 22.2-6.6 7.8-6.7 7.9-16.1 16.2-9.3 8.1-13.2 11-14.3 10.3-.4-.3-1.1.2-1.4 1-.3.9-1.2 1.6-1.9 1.6-1.2 0-26.5 15.7-40 24.9-3.8 2.6-9.2 6-12 7.6-2.7 1.5-5.2 3.1-5.5 3.5s-2.3 1.7-4.5 2.9-4.7 2.5-5.5 3c-7.8 4.8-20.8 12.5-26.5 15.6-3.8 2-8.8 4.7-11 6-2.2 1.2-7.6 4.1-12 6.5S66 671 63 673s-7.7 5-10.5 6.6c-2.7 1.5-5.6 3.4-6.2 4-.7.7-3.9 2.7-7 4.5-3.2 1.8-10.2 6-15.6 9.3-5.3 3.4-10.5 6.5-11.5 7.1-1 .5-4.1 2.5-7 4.4L0 712.2V800h204.5c112.6 0 204.5-.4 204.5-.9 0-.4-4.2-9.3-9.4-19.7-5.1-10.4-9.6-19.9-10-21-.4-1.2-3.8-7.7-7.8-14.5-10.2-17.9-18.9-34.2-18.4-34.7.3-.2 1.2.9 2.2 2.5 1 1.5 4.4 6.2 7.4 10.3 3.1 4.1 9.6 13.9 14.4 21.8 11.5 18.7 19.6 29.4 24.1 32.1 4.3 2.5 4.5 2.5 4.5.6 0-.8-.4-1.5-1-1.5-.5 0-.7-.6-.4-1.4.3-.7-.2-1.6-1-1.9-.9-.4-1.6-1.5-1.6-2.6 0-1-.7-2.1-1.5-2.5-.8-.3-1.5-1.6-1.5-2.8 0-1.9-.2-2-1-.8s-1 1.1-1-.6c0-1.1-1.6-3.8-3.6-5.9-4.6-5-10.8-12.9-21.8-27.5-4.7-6.3-10.2-13.3-12.1-15.5-10-11.6-16.5-20-17.4-22.9l-1.1-3.1 1.9 2.4c1.7 2.2 4.9 2.2 3.5 0-.3-.5-.9-.7-1.3-.5-.4.3-.8-.5-.9-1.7-.3-3.1-4.8-11.7-5.7-10.9-.4.4-.6.1-.3-.7.2-.7-4.2-8.4-9.9-17-10.8-16.5-12.1-18.3-26-38.1-21.2-30.1-36-55-41.9-70.8-4.2-10.9-4.1-19.7.2-41 .4-1.8.2-3.2-.3-3.2s-3.9 3-7.4 6.7m87.9 173.8c-.3.3-.9-.2-1.2-1.2-.6-1.4-.5-1.5.5-.6.7.7 1 1.5.7 1.8M553.2 549.6c.3 1.1 2.6 8.6 5.1 16.9 2.5 8.2 6.7 23.1 9.2 33 2.6 9.9 5.3 19.2 6.1 20.7s4.7 7.1 8.7 12.5 8.4 11.6 9.7 13.8c1.2 2.2 4.6 7.6 7.5 12s8.4 14.3 12.3 22c6.4 12.8 7.1 15.1 9.1 26.5 6 34 5.5 32.6 20.9 70.5l8.9 22 74.6.3 74.7.2V637.2l-2.7-3.4c-6.5-7.7-8.2-9.2-16.1-13.9-8.9-5.2-15.2-7.1-29.2-8.9-13.7-1.7-39.6-8.2-69-17.5-25.5-8.1-44.7-13.4-54.5-15-2.2-.4-9.2-2.2-15.5-4.1-6.3-1.8-18-4.7-25.9-6.4l-14.3-3-8.2-7.6c-9.3-8.7-12.2-10.7-11.4-7.8M435.7 613.1c.7.7 1.5 1 1.8.7s-.2-.9-1.2-1.2c-1.4-.6-1.5-.5-.6.5M499.5 638.3c-3.8 1.8-8.2 4.7-9.8 6.4-1.6 1.8-4.5 3.7-6.5 4.2-2.1.5-5.2 1.3-7 1.8-3.2.8-3.6 1.4-7.8 12.3-2.4 6.3-4.4 11.9-4.4 12.3 0 .5-.6 2.3-1.4 4-.7 1.8-1.9 4.5-2.6 6.2-1.3 3.1-6.2 17.4-10.6 30.8l-2.5 7.8 4.8 4.3c2.6 2.4 5.1 4 5.4 3.5.3-.6 1.9.6 3.6 2.6 2.2 2.5 4.9 4.1 9.4 5.6 3.5 1.2 8 3.3 9.9 4.8s4.8 3.5 6.4 4.5c2.8 1.8 2.9 1.8 2.2 0-.7-1.7-.6-1.7 1.2.1 1.1 1.1 1.8 2.3 1.6 2.7-.6 1 3.1 1.9 5 1.2.9-.3 1.3-1.1.9-1.8-.3-.6.3-.3 1.5.8 1.2 1 1.9 2.3 1.5 2.9-.3.5-.1.7.5.3.6-.3 1.4-.1 1.7.4.4.6 1.7 1.5 2.9 2 1.9.7 2.5 2.3 3.9 9.7 1 4.8 2.6 11.7 3.7 15.3 1.4 4.8 1.5 6 .5 4.6-.8-1.1-1.5-2.5-1.5-3 0-.6-.5-.4-1 .4s-.7 2.3-.4 3.2c.3 1 .1 1.8-.5 1.8s-1.1-.8-1.1-1.9c0-1.3-.7-1.9-2.6-1.9-1.5 0-3-.6-3.5-1.3-.4-.7-1.1-1-1.6-.6-.4.5-.1 1.2.6 1.6 1.1.7 1.1 1.9.2 6-1.8 8.4-1.8 8.4 4.2 7.7 2.8-.3 5.8-.6 6.5-.7.6-.1 1.2-1.3 1.2-2.5 0-2.4 1.7-4.1 2.8-2.9.4.4.1 1-.5 1.2-.7.3-1.3.9-1.3 1.4 0 .4.7.6 1.6.2 1-.4 1.7.1 2.1 1.6.5 2.1.8 2.1 29.4 2.1 15.9 0 28.9-.2 28.9-.5s-1.4-3.3-3.1-6.7C568 781.2 554 737 554 730c0-2.5-.9-6.5-2-8.9l-2-4.3 2.4-2.9 2.4-2.8 1.5 2.2c.8 1.2 4.9 5.8 9.2 10.2 5.6 5.8 8.6 10 11 15.2 2.4 5.1 3.9 7.3 5.2 7.3 1.6 0 1.8-1 1.8-9.7 0-6.2.4-9.8 1.2-10 .7-.3.8-1.6.1-4.6-.9-4.3-1.8-6.4-5.8-13.2-1.3-2.2-3.7-6.5-5.3-9.5-3.3-6-5.9-10.1-11-17-5.7-7.9-12.2-16.5-13.3-17.7-2.9-3.1-18.2-15.8-21.9-18.2-2.2-1.4-4.2-2.8-4.5-3.1-.7-.7-4.3-2.9-6-3.7-.8-.4-1.7-.9-2-1.2-1.2-1.3-5.1-3.1-6.7-3-1 0-4.9 1.5-8.8 3.2M496 644c0 1.9-1.8 1.9-2.3.1-.3-1.4-.1-1.8.9-1.4.8.3 1.4.9 1.4 1.3m86 73.2c0 .5-.4.8-1 .8-.5 0-1-1-1-2.3 0-1.8.2-1.9 1-.7.5.8 1 1.8 1 2.2m-.3 4c-.3.8-.6.5-.6-.6-.1-1.1.2-1.7.5-1.3.3.3.4 1.2.1 1.9M507 789c0 .5-.2 1-.4 1-.3 0-.8-.5-1.1-1-.3-.6-.1-1 .4-1 .6 0 1.1.4 1.1 1m6 6.8c0 .4-.9.8-2 .9s-1.8-.2-1.5-.8c.7-1.1 3.5-1.2 3.5-.1"/><path d="M459 742.6c0 5.6 2.2 14.8 4.6 19.5 2.5 5.1 4.4 7 4.4 4.4 0-1.5-7.8-25.6-8.6-26.4-.2-.2-.4.9-.4 2.5M497.6 754.5c-.9 2.6-.7 3.2.5 1.2.6-1 .9-2.1.6-2.3-.2-.3-.7.2-1.1 1.1"/></svg>